<svg width="36" height="36" viewBox="0 0 36 36" fill="none" xmlns="http://www.w3.org/2000/svg">
<circle cx="18" cy="18" r="18" fill="#DAC9FF"/>
<path d="M11.3333 14.2H13V23.8H11.3333V14.2ZM13.8333 14.2H14.6667V23.8H13.8333V14.2ZM15.5 14.2H18V23.8H15.5V14.2ZM18.8333 14.2H19.6667V23.8H18.8333V14.2ZM21.3333 14.2H23V23.8H21.3333V14.2ZM23.8333 14.2H24.6667V23.8H23.8333V14.2ZM9.66667 12.6V15.8H8V12.6C8 12.1757 8.17559 11.7687 8.48816 11.4686C8.80072 11.1686 9.22464 11 9.66667 11H13V12.6H9.66667ZM26.3333 11C26.7754 11 27.1993 11.1686 27.5118 11.4686C27.8244 11.7687 28 12.1757 28 12.6V15.8H26.3333V12.6H23V11H26.3333ZM9.66667 22.2V25.4H13V27H9.66667C9.22464 27 8.80072 26.8314 8.48816 26.5314C8.17559 26.2313 8 25.8243 8 25.4V22.2H9.66667ZM26.3333 25.4V22.2H28V25.4C28 25.8243 27.8244 26.2313 27.5118 26.5314C27.1993 26.8314 26.7754 27 26.3333 27H23V25.4H26.3333Z" fill="#5D1BEA"/>
</svg>
