<svg width="20" height="20" viewBox="0 0 28 28" fill="none" xmlns="http://www.w3.org/2000/svg">
<path d="M26 8H8V10.5L9.5 18.5L20.5 19.5L23.5 18.5L25 15.5L26 8Z" fill="#C52127"/>
<path d="M11.375 25.375C11.8582 25.375 12.25 24.9832 12.25 24.5C12.25 24.0168 11.8582 23.625 11.375 23.625C10.8918 23.625 10.5 24.0168 10.5 24.5C10.5 24.9832 10.8918 25.375 11.375 25.375Z" stroke="#C52127" stroke-width="2" stroke-linecap="round" stroke-linejoin="round"/>
<path d="M21.875 25.375C22.3582 25.375 22.75 24.9832 22.75 24.5C22.75 24.0168 22.3582 23.625 21.875 23.625C21.3918 23.625 21 24.0168 21 24.5C21 24.9832 21.3918 25.375 21.875 25.375Z" stroke="#C52127" stroke-width="2" stroke-linecap="round" stroke-linejoin="round"/>
<path d="M1.75 2.625H6.20455L9.18909 17.4652C9.29093 17.9755 9.56985 18.4338 9.97704 18.7601C10.3842 19.0863 10.8937 19.2596 11.4164 19.2496H22.2409C22.7635 19.2596 23.273 19.0863 23.6802 18.7601C24.0874 18.4338 24.3663 17.9755 24.4682 17.4652L26.25 8.16653H7.31818" stroke="#C52127" stroke-width="2" stroke-linecap="round" stroke-linejoin="round"/>
</svg>
