<svg width="28" height="28" viewBox="0 0 28 28" fill="none" xmlns="http://www.w3.org/2000/svg">
<path d="M4.66663 18.6668V9.3335C4.66663 6.03366 4.66663 4.38375 5.69175 3.35862C6.71688 2.3335 8.36679 2.3335 11.6666 2.3335H16.5335C17.0103 2.3335 17.2488 2.3335 17.4632 2.4223C17.6775 2.51111 17.8462 2.67972 18.1834 3.01692L22.6499 7.48341C22.987 7.82061 23.1557 7.98922 23.2445 8.20361C23.3333 8.41801 23.3333 8.65646 23.3333 9.13333V18.6668C23.3333 21.9666 23.3333 23.6165 22.3081 24.6417C21.283 25.6668 19.6331 25.6668 16.3333 25.6668H11.6666C8.36679 25.6668 6.71688 25.6668 5.69175 24.6417C4.66663 23.6165 4.66663 21.9666 4.66663 18.6668Z" fill="#C52127" stroke="#C52127" stroke-width="1.5" stroke-linecap="round" stroke-linejoin="round"/>
<path d="M17.5 2.9165V4.6665C17.5 6.31642 17.5 7.14138 18.0125 7.65394C18.5251 8.1665 19.3501 8.1665 21 8.1665H22.75" stroke="#FEF0F1" stroke-width="1.5" stroke-linecap="round" stroke-linejoin="round"/>
<path d="M9.33337 12.8335H18.6667M9.33337 16.3335H18.6667M9.33337 19.8335H14.1993" stroke="#FEF0F1" stroke-width="1.5" stroke-linecap="round" stroke-linejoin="round"/>
</svg>
