<svg width="32" height="33" viewBox="0 0 32 33" fill="none" xmlns="http://www.w3.org/2000/svg">
<path d="M3.17272 18.5435C2.7034 15.4893 2.46874 13.9624 3.04613 12.6086C3.62352 11.2549 4.90453 10.3287 7.46654 8.47625L9.38076 7.09221C12.5679 4.78782 14.1615 3.63562 16.0001 3.63562C17.8389 3.63562 19.4324 4.78782 22.6195 7.09221L24.5338 8.47625C27.0958 10.3287 28.3768 11.2549 28.9542 12.6086C29.5316 13.9624 29.2969 15.4893 28.8275 18.5435L28.4273 21.1478C27.7621 25.4771 27.4293 27.6419 25.8767 28.9333C24.324 30.2248 22.0541 30.2248 17.5141 30.2248H14.4861C9.94624 30.2248 7.67629 30.2248 6.1236 28.9333C4.57091 27.6419 4.23826 25.4771 3.57294 21.1478L3.17272 18.5435Z" fill="#C52127" stroke="#C52127" stroke-width="1.5" stroke-linejoin="round"/>
<path d="M19.9884 23.5775C18.9255 24.405 17.5293 24.907 16.0001 24.907C14.4709 24.907 13.0747 24.405 12.0117 23.5775" stroke="#FEF0F1" stroke-width="1.5" stroke-linecap="round"/>
</svg>
