<svg width="28" height="28" viewBox="0 0 28 28" fill="none" xmlns="http://www.w3.org/2000/svg">
<path d="M25.6668 16.2946V11.7052C22.334 11.7052 20.1668 8.08532 21.8542 5.21123L17.8127 2.91662C16.1046 5.82623 11.8976 5.82611 10.1894 2.9165L6.14795 5.21112C7.83533 8.08525 5.66635 11.7052 2.3335 11.7052V16.2946C5.66629 16.2946 7.83346 19.9145 6.1461 22.7886L10.1876 25.0832C11.8965 22.1721 16.1055 22.172 17.8146 25.0831L21.856 22.7885C20.1688 19.9144 22.3341 16.2946 25.6668 16.2946Z" fill="#C52127" stroke="#C52127" stroke-width="1.5" stroke-linecap="round" stroke-linejoin="round"/>
<path d="M9.9165 19.2502C10.7316 17.8412 12.255 16.8931 13.9998 16.8931C15.7447 16.8931 17.2681 17.8412 18.0832 19.2502M16.3332 11.6668C16.3332 12.9555 15.2885 14.0002 13.9998 14.0002C12.7113 14.0002 11.6665 12.9555 11.6665 11.6668C11.6665 10.3782 12.7113 9.3335 13.9998 9.3335C15.2885 9.3335 16.3332 10.3782 16.3332 11.6668Z" stroke="#FEF0F1" stroke-width="1.5" stroke-linecap="round"/>
</svg>
