<svg width="36" height="36" viewBox="0 0 36 36" fill="none" xmlns="http://www.w3.org/2000/svg">
<circle cx="18" cy="18" r="18" fill="#00B232" fill-opacity="0.15"/>
<path d="M18 8.8335V27.1668" stroke="#00B332" stroke-width="1.5" stroke-linecap="round" stroke-linejoin="round"/>
<path d="M22.1667 12.1665H15.9167C15.1431 12.1665 14.4013 12.4738 13.8543 13.0208C13.3073 13.5678 13 14.3096 13 15.0832C13 15.8567 13.3073 16.5986 13.8543 17.1456C14.4013 17.6925 15.1431 17.9998 15.9167 17.9998H20.0833C20.8569 17.9998 21.5987 18.3071 22.1457 18.8541C22.6927 19.4011 23 20.143 23 20.9165C23 21.6901 22.6927 22.4319 22.1457 22.9789C21.5987 23.5259 20.8569 23.8332 20.0833 23.8332H13" stroke="#00B332" stroke-width="1.5" stroke-linecap="round" stroke-linejoin="round"/>
</svg>
