<svg width="40" height="40" viewBox="0 0 40 40" fill="none" xmlns="http://www.w3.org/2000/svg">
<rect width="40" height="40" rx="20" fill="#F68A3D" fill-opacity="0.15"/>
<path d="M24.6367 9.0006C24.8711 9.15481 24.9385 9.36722 24.9297 9.63363C24.9127 10.1425 24.9297 10.6537 24.924 11.1607C24.924 11.5399 24.7602 11.6947 24.3688 11.6947H16.0644C15.6674 11.6947 15.4916 11.5273 15.4897 11.1463C15.4897 10.6375 15.4998 10.1263 15.4846 9.61923C15.4765 9.34622 15.5647 9.13921 15.8117 9L24.6367 9.0006Z" fill="#F68A3D"/>
<path d="M26.337 10.328C26.8273 10.3508 27.2892 10.328 27.7335 10.403C28.6839 10.5602 29.3998 11.3997 29.3998 12.3183C29.3998 18.1878 29.3964 24.0573 29.3897 29.9268C29.3897 31.134 28.4557 31.9999 27.1909 31.9999C22.5197 31.9999 17.8484 31.9999 13.1768 31.9999C11.9163 31.9999 10.9994 31.1286 11 29.937C11 24.1199 11.0029 18.303 11.0088 12.4863C11.0088 11.3769 11.7065 10.5434 12.8163 10.3784C13.2215 10.3184 13.6457 10.3688 14.0918 10.3688C14.0918 10.6166 14.1026 10.8698 14.0918 11.1218C14.0376 12.2559 14.9741 13.0581 16.1136 13.0503C18.8506 13.0329 21.5876 13.0455 24.324 13.0443C25.534 13.0443 26.3369 12.2811 26.3407 11.1356C26.3376 10.8824 26.337 10.6292 26.337 10.328ZM22.9848 27.4199C23.8041 27.4199 24.6202 27.4235 25.4376 27.4199C25.8693 27.4199 26.1939 27.1198 26.1907 26.7418C26.1885 26.6517 26.1677 26.5629 26.1293 26.4805C26.091 26.398 26.0359 26.3236 25.9673 26.2615C25.8986 26.1994 25.8178 26.1508 25.7294 26.1185C25.641 26.0863 25.5468 26.0709 25.4521 26.0734C23.7934 26.0692 22.1347 26.0668 20.4734 26.0782C20.3029 26.0877 20.1386 26.1428 19.9995 26.2372C19.7531 26.3986 19.6806 26.6902 19.7745 26.9572C19.8684 27.2242 20.1425 27.4163 20.4829 27.4181C21.3185 27.4223 22.1517 27.4199 22.9848 27.4199ZM22.947 18.4356C23.7726 18.4356 24.5982 18.4392 25.4238 18.4356C25.8536 18.4356 26.1548 18.153 26.1592 17.7756C26.1643 17.3832 25.8618 17.0939 25.4219 17.0927C23.7783 17.0883 22.1349 17.0897 20.4917 17.0969C20.3286 17.1032 20.1701 17.1504 20.0323 17.2337C19.7707 17.391 19.6825 17.6868 19.7732 17.964C19.8196 18.1044 19.9126 18.2267 20.0384 18.3123C20.1641 18.3979 20.3157 18.4422 20.4703 18.4386C21.2958 18.4386 22.1246 18.435 22.947 18.4356ZM22.9577 22.9274C23.7833 22.9274 24.6089 22.9322 25.4345 22.9274C25.8611 22.9238 26.1592 22.6376 26.1592 22.2548C26.1592 21.872 25.8611 21.5834 25.4345 21.5822C23.7833 21.5774 22.1321 21.5788 20.481 21.5864C20.3178 21.5937 20.1597 21.6428 20.0234 21.7286C19.7676 21.8858 19.6819 22.1888 19.7758 22.463C19.8697 22.7372 20.1407 22.9262 20.481 22.928C21.3053 22.9304 22.1321 22.9274 22.9577 22.9274ZM15.7733 17.5032C15.6378 17.3604 15.5262 17.2229 15.3951 17.1071C15.2665 16.9888 15.0947 16.9225 14.9159 16.9219C14.737 16.9214 14.5648 16.9866 14.4353 17.1041C14.3679 17.162 14.3133 17.2322 14.2747 17.3104C14.2361 17.3886 14.2142 17.4733 14.2103 17.5597C14.2064 17.646 14.2206 17.7322 14.2521 17.8133C14.2836 17.8943 14.3318 17.9686 14.3937 18.0318C14.6971 18.345 15.0143 18.645 15.3453 18.9318C15.6151 19.1664 15.9894 19.1754 16.2453 18.9384C16.994 18.2448 17.7383 17.5464 18.4599 16.8275C18.8191 16.4675 18.613 15.8873 18.1095 15.7565C17.8246 15.6827 17.5877 15.7769 17.3841 15.9713C16.8648 16.4729 16.3417 16.9655 15.7752 17.5032H15.7733ZM15.7821 22.337C15.6529 22.2014 15.5489 22.0784 15.4304 21.9704C15.1216 21.6896 14.6981 21.6854 14.4177 21.9524C14.1372 22.2194 14.141 22.6226 14.4385 22.9124C14.7116 23.1812 14.9891 23.4457 15.271 23.7057C15.6069 24.0159 15.9964 24.0135 16.3354 23.7021C16.5446 23.5101 16.7476 23.3115 16.953 23.1158C17.4408 22.6502 17.9324 22.1876 18.4164 21.7178C18.5286 21.6164 18.602 21.4821 18.6248 21.3364C18.6477 21.1907 18.6187 21.0419 18.5424 20.9137C18.4759 20.7891 18.3672 20.6894 18.2339 20.6306C18.1007 20.5718 17.9505 20.5574 17.8076 20.5897C17.6501 20.6285 17.5057 20.7054 17.3885 20.8129C16.8604 21.3026 16.3442 21.8036 15.784 22.337H15.7821ZM15.7821 26.824C15.6384 26.6782 15.5231 26.5438 15.3895 26.4298C15.2567 26.3093 15.0796 26.2433 14.8963 26.2459C14.7129 26.2485 14.538 26.3196 14.4091 26.4438C14.2802 26.568 14.2077 26.7354 14.2072 26.91C14.2067 27.0846 14.2782 27.2524 14.4063 27.3773C14.6975 27.6701 14.9987 27.9551 15.3056 28.2329C15.5886 28.4885 15.9882 28.5077 16.2636 28.2521C17.0009 27.5693 17.7263 26.872 18.446 26.1748C18.5473 26.0735 18.6111 25.9435 18.6277 25.8046C18.6443 25.6656 18.6128 25.5253 18.538 25.405C18.4736 25.2835 18.3685 25.1859 18.2393 25.1276C18.1101 25.0694 17.9642 25.0538 17.8246 25.0833C17.6591 25.1206 17.5069 25.1988 17.3835 25.3102C16.8572 25.7962 16.3411 26.2978 15.7871 26.824H15.7821Z" fill="#F68A3D"/>
</svg>
