<svg width="38" height="38" viewBox="0 0 38 38" fill="none" xmlns="http://www.w3.org/2000/svg">
<rect width="38" height="38" rx="5" fill="#0094E8" fill-opacity="0.1"/>
<g clip-path="url(#clip0_3703_7370)">
<path d="M22.3999 12.43C22.4403 12.4127 22.481 12.3963 22.5219 12.3809C23.0387 12.186 23.4999 11.7523 23.4999 11.2V10C23.4999 8.35 22.1499 7 20.4999 7H10.4999C8.84988 7 7.49988 8.35 7.49988 10V28C7.49988 29.65 8.84988 31 10.4999 31H20.4999C22.1499 31 23.4999 29.65 23.4999 28L23.5 27.1825C23.5 26.9719 23.3029 26.8365 23.1001 26.78C23.0393 26.7631 22.9501 26.72 22.9501 26.72C22.8901 26.7 22.8421 26.6815 22.7701 26.67C22.7121 26.6608 22.6778 26.6707 22.6201 26.66C22.4827 26.6346 22.4252 26.5621 22.3001 26.5C21.931 26.3168 21.5 26.5879 21.5 27L21.4999 28C21.4999 28.55 21.0499 29 20.4999 29H10.4999C9.94988 29 9.49988 28.55 9.49988 28V10C9.49988 9.45 9.94988 9 10.4999 9H10.9999C11.5499 9 11.9999 9.45 11.9999 10C11.9999 10.55 12.4499 11 12.9999 11H17.9999C18.5499 11 18.9999 10.55 18.9999 10C18.9999 9.45 19.4499 9 19.9999 9H20.4999C21.0499 9 21.4999 9.45 21.4999 10V11.8391C21.4999 12.3026 21.9747 12.6143 22.3999 12.43Z" fill="#06A6FF"/>
<path d="M20.7964 25.0015V18.8382L14.7999 15.9194V19.2462V21.7581L20.7964 25.0015Z" fill="#FFCC80"/>
<path d="M26.8016 15.9165V19.1089C26.6215 19.0369 26.4235 19.0008 26.2195 19.0008C25.8234 19.0008 25.4394 19.1449 25.1328 19.4089L23.1651 21.1251C22.8051 21.4431 22.6011 21.8932 22.6011 22.3672C22.6011 22.8473 22.8051 23.3033 23.1651 23.6154L23.2432 23.6808L20.8069 25.0015V18.8388L26.8016 15.9165Z" fill="#06A6FF"/>
<path d="M26.8013 15.9163L20.8066 18.8387L18.4723 17.7045L17.5002 17.2305L14.7999 15.9163L20.7946 13L23.3509 14.2421L24.371 14.7342L26.8013 15.9163Z" fill="#7ACFFF"/>
<path d="M24.2394 14.6776L18.3096 17.6323V20.6171L17.3693 20.1382V17.1739L23.2199 14.1855L24.2394 14.6776Z" fill="white"/>
<path d="M14.7999 15.9194V19.2462V21.7581L20.7964 25.0015V18.8382L18.3145 17.6302L18.3097 17.6326V20.6174L17.3694 20.1385V17.1742L17.3736 17.1724L14.7999 15.9194Z" fill="#7ACFFF"/>
<path d="M25.4469 21.9229L26.5156 20.9898C26.7034 20.8266 26.7226 20.5422 26.5588 20.3549C26.3956 20.1671 26.1112 20.1485 25.9233 20.3117L23.9545 22.0303L23.9455 22.0423L23.8675 22.1473L23.8393 22.1887C23.8153 22.244 23.8009 22.3046 23.8009 22.3694C23.8009 22.4336 23.8153 22.4942 23.8399 22.55L23.8681 22.5914L23.9461 22.6964L23.9551 22.7084L25.9239 24.4264C26.0097 24.5008 26.1148 24.5374 26.2198 24.5374C26.3452 24.5374 26.47 24.4852 26.5588 24.3832C26.722 24.196 26.7028 23.9115 26.5156 23.7483L25.4607 22.8278C27.0341 22.8752 28.3008 24.1888 28.3008 25.8054V26.9509C28.3008 27.1993 28.5024 27.4009 28.7509 27.4009C28.9993 27.4009 29.2009 27.1993 29.2009 26.9509V25.8054C29.2015 23.6871 27.5237 21.9619 25.4469 21.9229Z" fill="#06A6FF"/>
</g>
<defs>
<clipPath id="clip0_3703_7370">
<rect width="24" height="24" fill="white" transform="translate(7 7)"/>
</clipPath>
</defs>
</svg>
