<svg width="40" height="40" viewBox="0 0 40 40" fill="none" xmlns="http://www.w3.org/2000/svg">
<rect width="40" height="40" rx="20" fill="#C52127" fill-opacity="0.15"/>
<path d="M12.8797 9.00537H25.0118C25.0028 9.03235 24.9907 9.05821 24.9758 9.08244C24.2972 9.8917 24.0239 10.8272 24.0319 11.873C24.0479 13.946 24.0319 16.0189 24.0319 18.0919V18.3245C20.7482 18.5371 18.3405 20.028 17.1926 23.1082C16.0274 26.235 16.902 28.9551 19.2964 31.2301C18.9911 31.6606 18.5538 31.7084 18.1712 31.3377C17.9045 31.0719 17.6299 30.8062 17.3259 30.5072C17.0593 30.7849 16.8246 31.0453 16.5753 31.2952C16.1887 31.6845 15.8341 31.6845 15.4501 31.2952C15.2021 31.0467 14.9622 30.7889 14.6888 30.4979C14.4582 30.741 14.2542 30.9417 14.0662 31.1623C13.5796 31.7137 13.1663 31.727 12.6691 31.1623C12.4624 30.9284 12.2278 30.7185 12.0585 30.5497C11.7585 30.8155 11.4785 31.0586 11.2132 31.3124C10.9479 31.5662 10.6973 31.646 10.4133 31.5224C10.1293 31.3988 10 31.1556 10 30.8341C10 24.6541 10 18.4733 10 12.2916C10.0009 11.5736 10.2371 10.8755 10.6727 10.3036C11.1083 9.73175 11.7195 9.3174 12.4131 9.12364C12.5717 9.08643 12.7264 9.04656 12.8797 9.00537ZM18.0152 15.696C18.0299 15.6869 18.0455 15.6793 18.0618 15.6734C18.4618 15.6734 18.8738 15.6734 19.279 15.6655C19.6843 15.6575 19.9803 15.3824 19.9776 15.0011C19.975 14.6197 19.687 14.3499 19.2697 14.3446C18.9604 14.3446 18.6511 14.3446 18.3365 14.3446H18.0112C18.0112 13.8968 18.0112 13.4849 18.0112 13.0742C18.0208 12.9814 18.0108 12.8875 17.9816 12.7988C17.9524 12.71 17.9048 12.6284 17.8419 12.5593C17.7789 12.4901 17.7021 12.435 17.6163 12.3974C17.5305 12.3598 17.4378 12.3407 17.3441 12.3413C17.2504 12.3418 17.1579 12.3621 17.0726 12.4007C16.9873 12.4393 16.9111 12.4953 16.849 12.5653C16.7869 12.6352 16.7403 12.7173 16.7122 12.8064C16.6841 12.8955 16.6752 12.9895 16.686 13.0822C16.686 13.4981 16.686 13.9141 16.686 14.322C16.6634 14.3305 16.6402 14.3371 16.6166 14.342C16.226 14.342 15.8354 14.342 15.4434 14.342C15.0128 14.342 14.7208 14.6183 14.7222 15.0064C14.7235 15.3944 15.0168 15.6615 15.4514 15.6708C15.7314 15.6708 16.0127 15.6708 16.2927 15.6708H16.6926C16.6926 16.104 16.6926 16.5 16.6926 16.8973C16.6926 17.3305 16.9593 17.6242 17.3499 17.6268C17.7405 17.6295 18.0165 17.3358 18.0165 16.8893C18.0165 16.4893 18.0152 16.0933 18.0152 15.696ZM15.5901 20.2991C16.3113 20.2991 17.0339 20.2991 17.7552 20.2991C18.1978 20.2991 18.5085 20.0214 18.5071 19.6347C18.5058 19.248 18.1925 18.9769 17.7499 18.9769H13.457C13.0184 18.9769 12.7037 19.2586 12.7064 19.6413C12.7091 20.024 13.0197 20.2978 13.4637 20.2991C14.1689 20.3004 14.8755 20.2991 15.5901 20.2991ZM14.6795 22.9461H15.9621C16.3887 22.9461 16.6926 22.6657 16.694 22.2817C16.6953 21.8977 16.3873 21.6173 15.9621 21.6173C15.1213 21.6173 14.2809 21.6173 13.441 21.6173C13.0157 21.6173 12.7091 21.9003 12.7091 22.2817C12.7091 22.6631 13.0144 22.9395 13.441 22.9461H14.6795ZM14.5022 24.267C14.1409 24.267 13.7796 24.267 13.4183 24.267C13.3252 24.2568 13.2309 24.2662 13.1417 24.2948C13.0525 24.3233 12.9704 24.3703 12.9006 24.4326C12.8308 24.4949 12.775 24.5712 12.7368 24.6564C12.6986 24.7417 12.6788 24.834 12.6788 24.9274C12.6788 25.0208 12.6986 25.1131 12.7368 25.1984C12.775 25.2837 12.8308 25.3599 12.9006 25.4223C12.9704 25.4846 13.0525 25.5315 13.1417 25.5601C13.2309 25.5886 13.3252 25.5981 13.4183 25.5878C14.1293 25.5932 14.8373 25.5932 15.5421 25.5878C15.6352 25.5981 15.7295 25.5886 15.8187 25.5601C15.9079 25.5315 15.9901 25.4846 16.0598 25.4223C16.1296 25.3599 16.1854 25.2837 16.2237 25.1984C16.2619 25.1131 16.2816 25.0208 16.2816 24.9274C16.2816 24.834 16.2619 24.7417 16.2237 24.6564C16.1854 24.5712 16.1296 24.4949 16.0598 24.4326C15.9901 24.3703 15.9079 24.3233 15.8187 24.2948C15.7295 24.2662 15.6352 24.2568 15.5421 24.267C15.1901 24.263 14.8422 24.263 14.4955 24.263L14.5022 24.267Z" fill="#C52127"/>
<path d="M28.0156 9.00532C28.247 9.07056 28.4737 9.15136 28.6942 9.24716C29.5288 9.68036 29.9941 10.3727 30.0007 11.3135C30.0181 13.4157 30.0074 15.5179 30.0007 17.6188C30.0007 18.0068 29.7674 18.3085 29.4075 18.3111C28.0516 18.3257 26.6957 18.3111 25.3279 18.3111C25.3186 18.261 25.3124 18.2104 25.3092 18.1596C25.3092 15.882 25.3012 13.6031 25.3092 11.3241C25.3056 10.7827 25.4933 10.2574 25.8395 9.84014C26.1856 9.42294 26.6681 9.14055 27.2023 9.04252C27.2361 9.03166 27.2688 9.01742 27.2997 9L28.0156 9.00532Z" fill="#C52127"/>
<path d="M29.9885 25.645C29.987 26.4327 29.8287 27.2124 29.5228 27.9387C29.2169 28.6651 28.7695 29.3238 28.2064 29.8766C27.6433 30.4294 26.9758 30.8654 26.2425 31.1593C25.5093 31.4532 24.7248 31.5992 23.9345 31.5888C20.6855 31.5742 18.0071 28.8594 18.0284 25.6091C18.0498 22.3003 20.7508 19.6706 24.1105 19.6878C27.3288 19.6985 29.9952 22.4026 29.9885 25.645ZM25.5077 23.7315C25.4983 23.3448 25.185 23.164 24.8491 23.0112C24.795 22.9949 24.7466 22.964 24.709 22.9221C24.6713 22.8801 24.646 22.8287 24.6357 22.7734C24.599 22.6298 24.514 22.503 24.3949 22.4143C24.2758 22.3256 24.1297 22.2802 23.9811 22.2857C23.8359 22.2905 23.6966 22.3442 23.586 22.4381C23.4753 22.532 23.3998 22.6605 23.3719 22.8026C23.3646 22.8625 23.3414 22.9193 23.3049 22.9674C23.2684 23.0155 23.2197 23.0531 23.1639 23.0763C22.9716 23.1825 22.8046 23.3289 22.6745 23.5056C22.5444 23.6822 22.4542 23.8849 22.4103 24.0996C22.3663 24.3143 22.3695 24.5359 22.4198 24.7493C22.47 24.9626 22.5661 25.1626 22.7013 25.3354C22.9404 25.607 23.2438 25.8148 23.5839 25.94C23.8237 26.031 24.056 26.1407 24.2785 26.2682C24.3332 26.3047 24.3785 26.3536 24.4107 26.4109C24.4429 26.4681 24.4611 26.5322 24.4638 26.5977C24.4207 26.7397 24.3255 26.8603 24.1971 26.9353C24.0777 26.9926 23.9419 27.0067 23.8132 26.9751C23.6074 26.9239 23.4069 26.8531 23.2146 26.7638C23.065 26.6902 22.8931 26.6751 22.7329 26.7216C22.5727 26.7681 22.4358 26.8728 22.3493 27.015C22.3049 27.0873 22.2753 27.1677 22.2622 27.2515C22.2491 27.3353 22.2528 27.4208 22.273 27.5032C22.2932 27.5856 22.3295 27.6632 22.3799 27.7315C22.4303 27.7998 22.4938 27.8575 22.5666 27.9013C22.75 28.0091 22.9439 28.0982 23.1452 28.1671C23.2786 28.2136 23.3506 28.2535 23.3772 28.4076C23.4132 28.5505 23.4969 28.6769 23.6146 28.766C23.7323 28.8551 23.8769 28.9017 24.0246 28.8979C24.1724 28.8942 24.3144 28.8405 24.4275 28.7456C24.5405 28.6507 24.6177 28.5202 24.6464 28.3757C24.6499 28.3123 24.6719 28.2513 24.7098 28.2003C24.7478 28.1493 24.7999 28.1105 24.8597 28.0887C25.1304 27.959 25.3611 27.7592 25.5277 27.5101C25.6943 27.2611 25.7906 26.9719 25.8065 26.673C25.8225 26.3741 25.7575 26.0764 25.6183 25.8112C25.4792 25.5459 25.2711 25.3228 25.0157 25.1653C24.8076 25.0411 24.5911 24.9315 24.3678 24.837C24.1974 24.7693 24.0305 24.693 23.8678 24.6085C23.7945 24.5646 23.6958 24.4278 23.7172 24.3852C23.7598 24.2962 23.8772 24.1833 23.9598 24.1872C24.1385 24.194 24.3137 24.2394 24.4731 24.3201C24.5755 24.3854 24.6931 24.4229 24.8145 24.4289C24.9358 24.435 25.0566 24.4094 25.165 24.3547C25.2773 24.2958 25.3696 24.2054 25.4306 24.0945C25.4915 23.9837 25.5183 23.8574 25.5077 23.7315Z" fill="#C52127"/>
</svg>
