<svg width="38" height="38" viewBox="0 0 38 38" fill="none" xmlns="http://www.w3.org/2000/svg">
<rect width="38" height="38" rx="5" fill="#FEF0F1"/>
<path d="M11.8798 9.00537H24.0119C24.0029 9.03235 23.9908 9.05821 23.9759 9.08244C23.2973 9.8917 23.024 10.8272 23.032 11.873C23.048 13.946 23.032 16.0189 23.032 18.0919V18.3245C19.7483 18.5371 17.3406 20.028 16.1927 23.1082C15.0275 26.235 15.9021 28.9551 18.2965 31.2301C17.9912 31.6606 17.5539 31.7084 17.1713 31.3377C16.9046 31.0719 16.63 30.8062 16.326 30.5072C16.0594 30.7849 15.8248 31.0453 15.5754 31.2952C15.1888 31.6845 14.8342 31.6845 14.4502 31.2952C14.2022 31.0467 13.9623 30.7889 13.689 30.4979C13.4583 30.741 13.2543 30.9417 13.0664 31.1623C12.5797 31.7137 12.1665 31.727 11.6692 31.1623C11.4625 30.9284 11.2279 30.7185 11.0586 30.5497C10.7586 30.8155 10.4786 31.0586 10.2133 31.3124C9.94804 31.5662 9.6974 31.646 9.41343 31.5224C9.12945 31.3988 9.00012 31.1556 9.00012 30.8341C9.00012 24.6541 9.00012 18.4733 9.00012 12.2916C9.001 11.5736 9.23722 10.8755 9.67282 10.3036C10.1084 9.73175 10.7196 9.3174 11.4132 9.12364C11.5719 9.08643 11.7265 9.04656 11.8798 9.00537ZM17.0153 15.696C17.03 15.6869 17.0457 15.6793 17.062 15.6734C17.4619 15.6734 17.8739 15.6734 18.2792 15.6655C18.6845 15.6575 18.9804 15.3824 18.9778 15.0011C18.9751 14.6197 18.6871 14.3499 18.2698 14.3446C17.9605 14.3446 17.6512 14.3446 17.3366 14.3446H17.0113C17.0113 13.8968 17.0113 13.4849 17.0113 13.0742C17.021 12.9814 17.0109 12.8875 16.9817 12.7988C16.9525 12.71 16.9049 12.6284 16.842 12.5593C16.7791 12.4901 16.7022 12.435 16.6164 12.3974C16.5307 12.3598 16.4379 12.3407 16.3442 12.3413C16.2505 12.3418 16.158 12.3621 16.0727 12.4007C15.9874 12.4393 15.9112 12.4953 15.8491 12.5653C15.787 12.6352 15.7404 12.7173 15.7123 12.8064C15.6842 12.8955 15.6753 12.9895 15.6861 13.0822C15.6861 13.4981 15.6861 13.9141 15.6861 14.322C15.6636 14.3305 15.6404 14.3371 15.6168 14.342C15.2261 14.342 14.8355 14.342 14.4436 14.342C14.0129 14.342 13.721 14.6183 13.7223 15.0064C13.7236 15.3944 14.0169 15.6615 14.4516 15.6708C14.7315 15.6708 15.0128 15.6708 15.2928 15.6708H15.6928C15.6928 16.104 15.6928 16.5 15.6928 16.8973C15.6928 17.3305 15.9594 17.6242 16.35 17.6268C16.7406 17.6295 17.0166 17.3358 17.0166 16.8893C17.0166 16.4893 17.0153 16.0933 17.0153 15.696ZM14.5902 20.2991C15.3115 20.2991 16.0341 20.2991 16.7553 20.2991C17.1979 20.2991 17.5086 20.0214 17.5072 19.6347C17.5059 19.248 17.1926 18.9769 16.75 18.9769H12.4571C12.0185 18.9769 11.7038 19.2586 11.7065 19.6413C11.7092 20.024 12.0198 20.2978 12.4638 20.2991C13.169 20.3004 13.8756 20.2991 14.5902 20.2991ZM13.6796 22.9461H14.9622C15.3888 22.9461 15.6928 22.6657 15.6941 22.2817C15.6954 21.8977 15.3875 21.6173 14.9622 21.6173C14.1214 21.6173 13.281 21.6173 12.4411 21.6173C12.0158 21.6173 11.7092 21.9003 11.7092 22.2817C11.7092 22.6631 12.0145 22.9395 12.4411 22.9461H13.6796ZM13.5023 24.267C13.141 24.267 12.7797 24.267 12.4184 24.267C12.3253 24.2568 12.2311 24.2662 12.1419 24.2948C12.0526 24.3233 11.9705 24.3703 11.9007 24.4326C11.8309 24.4949 11.7751 24.5712 11.7369 24.6564C11.6987 24.7417 11.6789 24.834 11.6789 24.9274C11.6789 25.0208 11.6987 25.1131 11.7369 25.1984C11.7751 25.2837 11.8309 25.3599 11.9007 25.4223C11.9705 25.4846 12.0526 25.5315 12.1419 25.5601C12.2311 25.5886 12.3253 25.5981 12.4184 25.5878C13.1295 25.5932 13.8374 25.5932 14.5422 25.5878C14.6353 25.5981 14.7296 25.5886 14.8188 25.5601C14.908 25.5315 14.9902 25.4846 15.06 25.4223C15.1297 25.3599 15.1856 25.2837 15.2238 25.1984C15.262 25.1131 15.2817 25.0208 15.2817 24.9274C15.2817 24.834 15.262 24.7417 15.2238 24.6564C15.1856 24.5712 15.1297 24.4949 15.06 24.4326C14.9902 24.3703 14.908 24.3233 14.8188 24.2948C14.7296 24.2662 14.6353 24.2568 14.5422 24.267C14.1903 24.263 13.8423 24.263 13.4957 24.263L13.5023 24.267Z" fill="#C52127"/>
<path d="M27.0157 9.00532C27.2471 9.07056 27.4739 9.15136 27.6943 9.24716C28.5289 9.68036 28.9942 10.3727 29.0008 11.3135C29.0182 13.4157 29.0075 15.5179 29.0008 17.6188C29.0008 18.0068 28.7675 18.3085 28.4076 18.3111C27.0517 18.3257 25.6959 18.3111 24.328 18.3111C24.3187 18.261 24.3125 18.2104 24.3093 18.1596C24.3093 15.882 24.3013 13.6031 24.3093 11.3241C24.3057 10.7827 24.4934 10.2574 24.8396 9.84014C25.1858 9.42294 25.6683 9.14055 26.2025 9.04252C26.2363 9.03166 26.2689 9.01742 26.2998 9L27.0157 9.00532Z" fill="#C52127"/>
<path d="M28.9887 25.6447C28.9871 26.4325 28.8288 27.2121 28.5229 27.9385C28.217 28.6649 27.7696 29.3235 27.2065 29.8763C26.6435 30.4291 25.976 30.8651 25.2427 31.159C24.5094 31.453 23.7249 31.599 22.9346 31.5886C19.6856 31.574 17.0072 28.8592 17.0286 25.6089C17.0499 22.3001 19.751 19.6703 23.1106 19.6876C26.3289 19.6982 28.9953 22.4024 28.9887 25.6447ZM24.5078 23.7312C24.4985 23.3445 24.1851 23.1638 23.8492 23.011C23.7952 22.9946 23.7467 22.9638 23.7091 22.9218C23.6715 22.8799 23.6461 22.8285 23.6359 22.7731C23.5991 22.6295 23.5141 22.5028 23.395 22.4141C23.2759 22.3253 23.1299 22.2799 22.9813 22.2854C22.836 22.2903 22.6967 22.344 22.5861 22.4379C22.4754 22.5317 22.4 22.6602 22.372 22.8024C22.3647 22.8622 22.3416 22.9191 22.305 22.9672C22.2685 23.0153 22.2199 23.0528 22.164 23.0761C21.9717 23.1822 21.8047 23.3287 21.6746 23.5053C21.5445 23.682 21.4544 23.8846 21.4104 24.0993C21.3664 24.314 21.3697 24.5357 21.4199 24.749C21.4701 24.9624 21.5662 25.1623 21.7014 25.3351C21.9405 25.6067 22.2439 25.8145 22.584 25.9397C22.8238 26.0307 23.0561 26.1405 23.2786 26.2679C23.3333 26.3045 23.3786 26.3534 23.4108 26.4106C23.443 26.4679 23.4612 26.5319 23.4639 26.5975C23.4209 26.7395 23.3256 26.86 23.1973 26.935C23.0778 26.9924 22.942 27.0065 22.8133 26.9749C22.6075 26.9236 22.407 26.8529 22.2147 26.7636C22.0651 26.6899 21.8932 26.6749 21.733 26.7214C21.5728 26.7679 21.436 26.8726 21.3494 27.0148C21.3051 27.0871 21.2755 27.1675 21.2624 27.2513C21.2493 27.3351 21.2529 27.4206 21.2731 27.503C21.2933 27.5854 21.3297 27.6629 21.3801 27.7313C21.4304 27.7996 21.4939 27.8573 21.5668 27.9011C21.7501 28.0089 21.944 28.0979 22.1454 28.1668C22.2787 28.2134 22.3507 28.2532 22.3773 28.4074C22.4133 28.5502 22.4971 28.6766 22.6147 28.7658C22.7324 28.8549 22.877 28.9014 23.0247 28.8977C23.1725 28.894 23.3146 28.8402 23.4276 28.7453C23.5406 28.6504 23.6178 28.52 23.6465 28.3755C23.65 28.3121 23.672 28.2511 23.71 28.2C23.7479 28.149 23.8 28.1102 23.8599 28.0884C24.1305 27.9588 24.3612 27.759 24.5278 27.5099C24.6944 27.2608 24.7907 26.9717 24.8066 26.6728C24.8226 26.3739 24.7576 26.0762 24.6185 25.8109C24.4793 25.5457 24.2712 25.3226 24.0158 25.165C23.8077 25.0409 23.5912 24.9312 23.3679 24.8368C23.1975 24.769 23.0307 24.6927 22.868 24.6082C22.7946 24.5644 22.696 24.4275 22.7173 24.385C22.76 24.296 22.8773 24.183 22.9599 24.187C23.1387 24.1938 23.3138 24.2391 23.4732 24.3199C23.5756 24.3851 23.6933 24.4226 23.8146 24.4287C23.9359 24.4347 24.0568 24.4091 24.1651 24.3544C24.2774 24.2956 24.3697 24.2051 24.4307 24.0943C24.4916 23.9834 24.5184 23.8572 24.5078 23.7312Z" fill="#C52127"/>
</svg>
