<svg width="25" height="24" viewBox="0 0 25 24" fill="none" xmlns="http://www.w3.org/2000/svg">
<path d="M15.0698 2.5V4C15.0698 5.41421 15.0698 6.12132 15.5091 6.56066C15.9485 7 16.6556 7 18.0698 7H19.5698" stroke="#4D4D4D" stroke-width="1.5" stroke-linecap="round" stroke-linejoin="round"/>
<path d="M4.06982 16V8C4.06982 5.17157 4.06982 3.75736 4.9485 2.87868C5.82718 2 7.24139 2 10.0698 2H14.2414C14.6501 2 14.8545 2 15.0383 2.07612C15.222 2.15224 15.3666 2.29676 15.6556 2.58579L19.484 6.41421C19.773 6.70324 19.9176 6.84776 19.9937 7.03153C20.0698 7.2153 20.0698 7.41968 20.0698 7.82843V16C20.0698 18.8284 20.0698 20.2426 19.1911 21.1213C18.3124 22 16.8982 22 14.0698 22H10.0698C7.24139 22 5.82718 22 4.9485 21.1213C4.06982 20.2426 4.06982 18.8284 4.06982 16Z" stroke="#4D4D4D" stroke-width="1.5" stroke-linecap="round" stroke-linejoin="round"/>
<path d="M8.06982 11H16.0698M8.06982 14H16.0698M8.06982 17H12.2406" stroke="#4D4D4D" stroke-width="1.5" stroke-linecap="round" stroke-linejoin="round"/>
</svg>
