<svg width="25" height="24" viewBox="0 0 25 24" fill="none" xmlns="http://www.w3.org/2000/svg">
<path d="M15.9302 17C15.1307 17.6224 14.0805 18 12.9302 18C11.78 18 10.7297 17.6224 9.93018 17" stroke="#4D4D4D" stroke-width="1.5" stroke-linecap="round"/>
<path d="M3.28157 13.2135C2.92855 10.9162 2.75204 9.76763 3.18635 8.74938C3.62065 7.73112 4.58421 7.03443 6.51132 5.64106L7.95117 4.6C10.3485 2.86667 11.5472 2 12.9302 2C14.3133 2 15.5119 2.86667 17.9092 4.6L19.3491 5.64106C21.2762 7.03443 22.2398 7.73112 22.6741 8.74938C23.1084 9.76763 22.9319 10.9162 22.5788 13.2135L22.2778 15.1724C21.7774 18.4289 21.5271 20.0572 20.3592 21.0286C19.1913 22 17.4839 22 14.069 22H11.7914C8.37652 22 6.66909 22 5.50118 21.0286C4.33327 20.0572 4.08305 18.4289 3.58261 15.1724L3.28157 13.2135Z" stroke="#4D4D4D" stroke-width="1.5" stroke-linejoin="round"/>
</svg>
