<svg width="79" height="88" viewBox="0 0 79 88" fill="none" xmlns="http://www.w3.org/2000/svg">
<g clip-path="url(#clip0_3708_2694)">
<path fill-rule="evenodd" clip-rule="evenodd" d="M60.6329 34.5384V54.2692L69.8164 59.6998V34.5384C69.8164 28.9134 67.0815 24.0862 62.3036 21.2746L50.3072 14.2152L39.9796 8.13861V18.9443L57.7128 29.3798C59.6486 30.52 60.6329 32.2617 60.6329 34.5384ZM47.4924 2.1083L59.4888 9.16773L71.4852 16.2272C76.2631 19.0387 78.998 23.8659 78.998 29.489V57.7267C78.998 63.3498 76.2631 68.1771 71.4852 70.9886L59.4888 78.048L47.4924 85.1075C42.7145 87.919 37.2447 87.919 32.4669 85.1075L23.7828 79.997C22.4364 79.2298 21.3184 78.1059 20.5471 76.7444C19.7757 75.3828 19.3797 73.8341 19.4008 72.2621V66.613L37.0559 77.0023C38.9935 78.1406 40.9639 78.1406 42.8997 77.0023L47.2763 74.4276C48.5595 73.6973 49.6252 72.6269 50.3605 71.3297C51.0957 70.0326 51.4732 68.557 51.453 67.0591V41.1628C51.4715 39.7409 51.1128 38.3403 50.4146 37.1091C49.7165 35.8778 48.7049 34.8617 47.4869 34.1682L26.3052 21.6985C24.9797 20.8935 23.4653 20.4685 21.9223 20.4685C20.3793 20.4685 18.8649 20.8935 17.5394 21.6985L13.0684 24.3324C11.1308 25.4707 10.1465 27.2105 10.1465 29.489V71.9714L8.4776 70.9886C3.69973 68.1771 0.964844 63.3498 0.964844 57.7267V29.489C0.964844 23.8659 3.69973 19.0387 8.4776 16.2272L20.474 9.16773L32.4687 2.1083C37.2447 -0.703255 42.7145 -0.703255 47.4924 2.1083Z" fill="#003399"/>
<path fill-rule="evenodd" clip-rule="evenodd" d="M21.0846 56.7993L35.7941 65.4598H35.8068C38.1331 66.6962 42.1882 64.2234 42.1882 61.5321V43.6596C42.1618 43.0848 41.9939 42.526 41.7001 42.0347C41.4062 41.5433 40.9958 41.1353 40.5066 40.848L25.797 32.1894H25.7843C23.4544 30.9641 19.4011 33.4092 19.4011 36.1041V54.0155C19.4304 54.5847 19.5995 55.1373 19.8931 55.6224C20.1866 56.1076 20.595 56.5097 21.0809 56.7919" fill="#FF6600"/>
<g clip-path="url(#clip1_3708_2694)">
<path fill-rule="evenodd" clip-rule="evenodd" d="M60.6329 34.5384V54.2692L69.8164 59.6998V34.5384C69.8164 28.9134 67.0815 24.0862 62.3036 21.2746L50.3072 14.2152L39.9796 8.13861V18.9443L57.7128 29.3798C59.6486 30.52 60.6329 32.2617 60.6329 34.5384ZM47.4924 2.1083L59.4888 9.16773L71.4852 16.2272C76.2631 19.0387 78.998 23.8659 78.998 29.489V57.7267C78.998 63.3498 76.2631 68.1771 71.4852 70.9886L59.4888 78.048L47.4924 85.1075C42.7145 87.919 37.2447 87.919 32.4669 85.1075L23.7828 79.997C22.4364 79.2298 21.3184 78.1059 20.5471 76.7444C19.7757 75.3828 19.3797 73.8341 19.4008 72.2621V66.613L37.0559 77.0023C38.9935 78.1406 40.9639 78.1406 42.8997 77.0023L47.2763 74.4276C48.5595 73.6973 49.6252 72.6269 50.3605 71.3297C51.0957 70.0326 51.4732 68.557 51.453 67.0591V41.1628C51.4715 39.7409 51.1128 38.3403 50.4146 37.1091C49.7165 35.8778 48.7049 34.8617 47.4869 34.1682L26.3052 21.6985C24.9797 20.8935 23.4653 20.4685 21.9223 20.4685C20.3793 20.4685 18.8649 20.8935 17.5394 21.6985L13.0684 24.3324C11.1308 25.4707 10.1465 27.2105 10.1465 29.489V71.9714L8.4776 70.9886C3.69973 68.1771 0.964844 63.3498 0.964844 57.7267V29.489C0.964844 23.8659 3.69973 19.0387 8.4776 16.2272L20.474 9.16773L32.4687 2.1083C37.2447 -0.703255 42.7145 -0.703255 47.4924 2.1083Z" fill="#C52127"/>
<path fill-rule="evenodd" clip-rule="evenodd" d="M21.0846 56.7993L35.7941 65.4598H35.8068C38.1331 66.6962 42.1882 64.2234 42.1882 61.5321V43.6596C42.1618 43.0848 41.9939 42.526 41.7001 42.0347C41.4062 41.5433 40.9958 41.1353 40.5066 40.848L25.797 32.1894H25.7843C23.4544 30.9641 19.4011 33.4092 19.4011 36.1041V54.0155C19.4304 54.5847 19.5995 55.1373 19.8931 55.6224C20.1866 56.1076 20.595 56.5097 21.0809 56.7919" fill="#F68A3D"/>
</g>
</g>
<defs>
<clipPath id="clip0_3708_2694">
<rect width="78.035" height="87.2156" fill="white" transform="translate(0.963379)"/>
</clipPath>
<clipPath id="clip1_3708_2694">
<rect width="78.035" height="87.2156" fill="white" transform="translate(0.963379)"/>
</clipPath>
</defs>
</svg>
