<svg width="40" height="40" viewBox="0 0 40 40" fill="none" xmlns="http://www.w3.org/2000/svg">
<rect width="40" height="40" rx="20" fill="#C52127" fill-opacity="0.1"/>
<path d="M20.6941 9.45382C20.6941 9.03547 20.3827 8.69641 19.9985 8.69641C19.6143 8.69641 19.303 9.03547 19.303 9.45382V12.6989C19.303 13.1172 19.6143 13.4563 19.9985 13.4563C20.3827 13.4563 20.6941 13.1172 20.6941 12.6989V9.45382Z" fill="#C52127"/>
<path d="M16.5301 14.0448C16.6658 14.1925 16.8438 14.2667 17.0219 14.2667C17.1997 14.2667 17.3778 14.1927 17.5136 14.0448C17.7851 13.7489 17.7851 13.2694 17.5136 12.9736L16.0235 11.351C15.752 11.0552 15.3116 11.0552 15.04 11.351C14.7683 11.6469 14.7683 12.1264 15.04 12.4223L16.5301 14.0448Z" fill="#C52127"/>
<path d="M22.9785 14.2669C23.1565 14.2669 23.3346 14.1929 23.4703 14.045L24.9604 12.4224C25.2319 12.1268 25.2319 11.6471 24.9604 11.3514C24.6887 11.0556 24.2484 11.0556 23.9767 11.3514L22.4867 12.9739C22.215 13.2698 22.215 13.7493 22.4867 14.045C22.6226 14.1929 22.8006 14.2669 22.9785 14.2669Z" fill="#C52127"/>
<path d="M17.9882 15.841C17.981 15.8475 17.9741 15.8538 17.9676 15.8597L14.9604 18.6669C14.6819 18.9268 14.3258 19.0702 13.9584 19.0702H11.8046C9.77508 19.0702 8.12988 20.8586 8.12988 23.0719V30.3744C8.12988 30.7926 8.44124 31.1318 8.82542 31.1318H14.7853C15.1696 31.1318 15.4808 30.7924 15.4808 30.3744V23.4212L19.0201 20.1176C19.2009 19.949 19.3048 19.7026 19.3048 19.4434V16.5355C19.3048 15.7958 18.5158 15.3751 17.9882 15.841V15.841Z" fill="#C52127"/>
<path d="M28.1943 19.2432H26.0405C25.6732 19.2432 25.3171 19.0998 25.0385 18.8397L22.0314 16.0327C22.0248 16.0268 22.018 16.0205 22.0107 16.014C21.4831 15.5481 20.6941 15.9688 20.6941 16.7084V19.6164C20.6941 19.8756 20.7981 20.1219 20.9788 20.2906L24.5181 23.5942V30.5472C24.5181 30.9653 24.8293 31.3046 25.2136 31.3046H31.1735C31.5577 31.3046 31.869 30.9655 31.869 30.5472V23.2449C31.869 21.0316 30.2238 19.2432 28.1943 19.2432Z" fill="#C52127"/>
<path d="M14.7335 15.8771C14.7335 14.1175 13.4189 12.6859 11.803 12.6859C10.1872 12.6859 8.87256 14.1175 8.87256 15.8771C8.87256 17.6369 10.1872 19.0685 11.803 19.0685C13.4189 19.0685 14.7335 17.6369 14.7335 15.8771Z" fill="#C52127"/>
<path d="M31.1254 16.0517C31.1254 14.2921 29.8107 12.8605 28.1949 12.8605C26.579 12.8605 25.2644 14.2921 25.2644 16.0517C25.2644 17.8115 26.579 19.243 28.1949 19.243C29.8107 19.243 31.1254 17.8115 31.1254 16.0517V16.0517Z" fill="#C52127"/>
</svg>
