<svg width="36" height="36" viewBox="0 0 36 36" fill="none" xmlns="http://www.w3.org/2000/svg">
<circle cx="18" cy="18" r="18" fill="#007AFF" fill-opacity="0.15"/>
<path d="M24.4546 18.8332C25.1137 17.8883 25.5002 16.7392 25.5002 15.4998C25.5002 12.2782 22.8885 9.6665 19.6668 9.6665C16.4452 9.6665 13.8335 12.2782 13.8335 15.4998C13.8335 16.3945 14.0349 17.2421 14.3949 17.9998" stroke="#007AFF" stroke-width="1.2" stroke-linecap="round" stroke-linejoin="round"/>
<path d="M19.6667 12.9998C18.7462 12.9998 18 13.5595 18 14.2498C18 14.9402 18.7462 15.4998 19.6667 15.4998C20.5872 15.4998 21.3333 16.0595 21.3333 16.7498C21.3333 17.4402 20.5872 17.9998 19.6667 17.9998M19.6667 12.9998C20.3923 12.9998 21.0097 13.3477 21.2385 13.8332M19.6667 12.9998V12.1665M19.6667 17.9998C18.941 17.9998 18.3237 17.652 18.0948 17.1665M19.6667 17.9998V18.8332" stroke="#007AFF" stroke-width="1.2" stroke-linecap="round"/>
<path d="M10.5 19.6665H12.4957C12.7408 19.6665 12.9826 19.7218 13.2018 19.8278L14.9035 20.6512C15.1227 20.7573 15.3645 20.8124 15.6096 20.8124H16.4784C17.3187 20.8124 18 21.4717 18 22.2848C18 22.3177 17.9775 22.3466 17.9448 22.3556L15.8274 22.9411C15.4476 23.0461 15.0408 23.0095 14.6875 22.8385L12.8684 21.9584M18 21.7498L21.8273 20.5739C22.5058 20.3625 23.2392 20.6132 23.6642 21.2018C23.9716 21.6273 23.8464 22.2367 23.3987 22.495L17.1357 26.1086C16.7374 26.3384 16.2674 26.3945 15.8293 26.2645L10.5 24.6831" stroke="#007AFF" stroke-width="1.2" stroke-linecap="round" stroke-linejoin="round"/>
</svg>
