<svg width="38" height="38" viewBox="0 0 38 38" fill="none" xmlns="http://www.w3.org/2000/svg">
<circle cx="19" cy="19" r="19" fill="#C52127" fill-opacity="0.15"/>
<path d="M28.9976 13.683C28.9419 17.4181 28.2439 20.9919 26.4631 24.2829C24.8402 27.2825 22.497 29.4738 19.4781 30.893C19.1343 31.0542 18.7926 31.0254 18.4496 30.8592C13.9567 28.6851 11.2461 24.986 9.88976 20.1276C9.2246 17.7228 8.92917 15.2248 9.0143 12.7252C9.03517 12.0256 9.27596 11.6888 9.91899 11.4384C12.8098 10.31 15.7021 9.17506 18.5985 8.06751C18.8686 7.97533 19.1606 7.97761 19.4294 8.07398C22.3363 9.1837 25.232 10.3222 28.1346 11.4442C28.7018 11.6601 28.9809 12.071 28.9962 12.6849C29.0039 13.0173 28.9976 13.3498 28.9976 13.683ZM18.6736 19.5461C18.1969 19.0495 17.7474 18.5746 17.2909 18.1068C16.8162 17.621 16.1301 17.6124 15.6902 18.078C15.2504 18.5436 15.2553 19.2295 15.7223 19.7181C16.44 20.4742 17.163 21.2244 17.8914 21.9685C18.373 22.4615 19.0348 22.4543 19.5129 21.9548C19.8122 21.6425 20.101 21.3186 20.3953 21.0005C21.6615 19.6303 22.9271 18.2615 24.1923 16.8942C24.5145 16.5466 24.6363 16.145 24.4985 15.6837C24.4426 15.4963 24.3405 15.3271 24.2023 15.1929C24.0641 15.0586 23.8944 14.9639 23.71 14.918C23.5256 14.8721 23.3329 14.8766 23.1507 14.9311C22.9685 14.9856 22.8032 15.0882 22.671 15.2289C21.9994 15.9305 21.3488 16.6545 20.6883 17.3691L18.6736 19.5461Z" fill="#C52127"/>
</svg>
