<svg width="40" height="40" viewBox="0 0 40 40" fill="none" xmlns="http://www.w3.org/2000/svg">
<rect width="40" height="40" rx="20" fill="#F35DA7" fill-opacity="0.15"/>
<path d="M26.0635 13.3635V19.1018C26.0635 19.6908 25.5862 20.1682 24.9971 20.1682H22.4377L22.4428 13.3584H26.0635V13.3635Z" fill="#F35DA7"/>
<path d="M19.7265 13.3539L19.7214 20.1637H17.1011C16.512 20.1637 16.0347 19.6864 16.0347 19.0973V13.3539H19.7265Z" fill="#F35DA7"/>
<path d="M26.7237 10.8959C26.4698 10.6369 26.1194 10.4897 25.7538 10.4897H24.6264L24.7788 10.3323C25.2967 9.82952 25.3069 9.00179 24.8042 8.4889C24.3014 7.97093 23.4737 7.96077 22.9608 8.46351C22.9557 8.46858 22.9456 8.47874 22.9405 8.48382L21.0819 10.3323L19.7209 8.96624C19.4772 8.72249 19.1471 8.5803 18.8018 8.5803C18.0807 8.5803 17.4967 9.16429 17.4967 9.88538C17.4967 10.0885 17.5424 10.2916 17.6338 10.4694H16.3542H16.3491C15.5924 10.4694 14.978 11.0838 14.978 11.8405L14.9729 13.3537C14.9729 13.5213 15.11 13.6584 15.2776 13.6584H15.7295V19.0971C15.7295 19.8537 16.344 20.4682 17.1006 20.4682H24.992C25.7487 20.4682 26.3631 19.8537 26.3631 19.0971V13.6584H26.81C26.9776 13.6584 27.1147 13.5213 27.1147 13.3537L27.1198 11.8658C27.1249 11.5002 26.9827 11.1498 26.7237 10.8959ZM23.3721 8.91546C23.6463 8.64632 24.0831 8.64632 24.3573 8.92054C24.6264 9.19476 24.6264 9.63147 24.3522 9.90569L23.7834 10.4846H21.7979L23.3721 8.91546ZM18.3042 9.3928C18.4362 9.26077 18.6088 9.18968 18.7967 9.18968C18.9795 9.18968 19.1573 9.26077 19.2893 9.3928L20.3709 10.4744L18.3905 10.4541L18.3042 10.3678C18.035 10.1037 18.035 9.66702 18.3042 9.3928ZM19.4213 19.8639H17.1057C16.6842 19.8639 16.344 19.5237 16.344 19.1022V13.6584H19.4264L19.4213 19.8639ZM19.4213 13.049H15.5823V11.8405C15.5823 11.419 15.9225 11.0787 16.344 11.0787L19.4163 11.0838L19.4213 13.049ZM22.1331 19.8639H20.0256L20.0307 13.6635H22.1381L22.1331 19.8639ZM22.1381 13.049H20.0307V11.0889L22.1381 11.094V13.049ZM25.7588 19.0971C25.7588 19.5186 25.4186 19.8588 24.9971 19.8588H22.7424L22.7475 13.6584H25.7588V19.0971ZM26.5104 13.049H22.7475V11.094L25.7538 11.0991C26.1752 11.0991 26.5155 11.4444 26.5155 11.8658L26.5104 13.049Z" fill="#F35DA7"/>
<path d="M29.9986 23.0606L25.6771 25.3864C25.5908 24.8532 25.3216 24.386 24.9357 24.0458C24.5345 23.6954 24.0115 23.4821 23.4376 23.4821H22.7623H20.3908C19.8423 23.4821 19.3041 23.3603 18.8166 23.1216L18.5017 22.9692C16.7904 22.1415 14.7642 22.3396 13.2459 23.4821L12.4892 24.1575C12.0779 24.5181 7.55835 26.8286 7.55835 26.8286L10.6712 31.5919L15.2466 28.9767C15.6275 28.7634 16.0693 28.7075 16.4908 28.8142L21.0662 29.6571C22.2392 29.8704 23.4478 29.6978 24.5142 29.1696L32.4361 23.731C31.9334 22.888 30.8619 22.5935 29.9986 23.0606Z" fill="#F35DA7"/>
<path d="M32.7005 23.5698C32.1114 22.5897 30.8622 22.2495 29.8517 22.7928L29.6892 22.8792C29.156 22.2139 28.2165 21.9499 27.5056 22.3104C27.5056 22.3104 27.5005 22.3104 27.5005 22.3155L27.1602 22.4983C26.3985 21.8382 25.2915 21.7264 24.413 22.2342L22.6864 23.1737H20.3911C20.3911 23.1737 20.3911 23.1737 20.386 23.1737C19.8935 23.1737 19.3907 23.0569 18.9438 22.8436L18.629 22.6913C16.811 21.8128 14.6731 22.021 13.0583 23.2346C13.0532 23.2397 13.0431 23.2448 13.038 23.2499L12.2813 23.9253C12.0071 24.169 9.14814 25.6721 7.4165 26.5608C7.34033 26.6014 7.28447 26.6725 7.25908 26.7538C7.23876 26.835 7.24892 26.9264 7.2997 26.9975L10.4126 31.7608C10.4685 31.8522 10.57 31.8979 10.6665 31.8979C10.7173 31.8979 10.7681 31.8827 10.8188 31.8573L15.3942 29.2421C15.704 29.0694 16.0696 29.0186 16.4149 29.1049C16.42 29.1049 16.4251 29.11 16.4352 29.11L21.0157 29.953C22.2446 30.1764 23.5345 29.9936 24.6567 29.4401C24.672 29.435 24.6821 29.4249 24.6923 29.4198L32.6142 23.9811C32.7462 23.8897 32.7868 23.7069 32.7005 23.5698ZM27.7849 22.8538C28.2063 22.6405 28.7802 22.7928 29.1407 23.1737L25.8755 24.9307C25.779 24.6362 25.6267 24.362 25.4286 24.1182L27.7849 22.8538ZM24.7075 22.7675L24.7126 22.7624C25.3017 22.4221 26.0177 22.4526 26.5712 22.8132L24.9716 23.6764C24.6517 23.4378 24.281 23.2803 23.8899 23.2092L24.7075 22.7675ZM24.3673 28.9018C23.372 29.3893 22.2192 29.5518 21.1274 29.3538L16.5571 28.5108C16.0595 28.3889 15.5415 28.46 15.0946 28.7089L10.7681 31.1819L8.00048 26.9467C9.16845 26.3475 12.3169 24.7174 12.6927 24.3823L13.4392 23.7171C14.8712 22.6456 16.7602 22.4628 18.37 23.2448L18.6849 23.3971C19.213 23.651 19.802 23.7882 20.3911 23.7882H20.3962H23.4431C23.9204 23.7882 24.3774 23.9608 24.738 24.2757C25.0782 24.5753 25.3017 24.9815 25.3778 25.4284L23.1231 25.3268C22.3259 25.2913 21.5184 25.3268 20.7263 25.4385C20.5587 25.4639 20.4419 25.6163 20.4673 25.7839C20.4927 25.9514 20.645 26.0682 20.8126 26.0428C21.5692 25.9362 22.336 25.9007 23.0977 25.9362L25.6977 26.053H25.713C25.7892 26.053 25.8653 26.0225 25.9212 25.9667C25.9821 25.9108 26.0177 25.8296 26.0177 25.7483C26.0177 25.6874 26.0177 25.6264 26.0126 25.5604L30.1513 23.3311C30.786 22.9858 31.5579 23.1382 32.02 23.6561L24.3673 28.9018Z" fill="#F35DA7"/>
</svg>
