<svg width="40" height="40" viewBox="0 0 40 40" fill="none" xmlns="http://www.w3.org/2000/svg">
<rect width="40" height="40" rx="20" fill="#2CB9B0" fill-opacity="0.15"/>
<path d="M20.7008 25.8024C20.6637 26.0637 20.6296 26.325 20.5854 26.612C21.0205 26.675 21.4399 26.7394 21.8572 26.7959C22.9909 26.9498 24.1238 27.1073 25.2582 27.2512C26.0458 27.3507 26.7358 26.9241 27.0441 26.1868C27.0883 26.0769 27.1695 25.9859 27.2734 25.9298C28.5659 25.3887 29.8633 24.8562 31.1593 24.3265C31.5467 24.1669 31.8935 24.2378 32.1855 24.5319C32.6127 24.9614 32.439 25.6557 31.8408 25.9069C30.6715 26.398 29.4966 26.8761 28.3245 27.3592C26.9639 27.9199 25.6031 28.4801 24.242 29.0399C23.6426 29.2905 22.9976 29.4124 22.3486 29.3978C21.8957 29.3885 21.4392 29.4099 20.9906 29.3627C19.681 29.2253 18.4498 29.4837 17.2706 30.0455C17.1994 30.0799 17.1246 30.1057 17.0185 30.1493C16.4104 28.6462 15.808 27.1595 15.187 25.6357C15.5203 25.4131 15.8279 25.169 16.1711 24.9857C17.4144 24.3186 18.7055 23.8083 20.1553 23.9665C20.9927 24.0574 21.8266 24.1812 22.6612 24.295C23.6275 24.4282 24.5938 24.5606 25.558 24.7059C26.0814 24.7846 26.4004 25.2155 26.3135 25.6865C26.2181 26.2047 25.7908 26.4803 25.2454 26.4023C23.7621 26.1875 22.2766 25.99 20.7926 25.786C20.7615 25.788 20.7307 25.7935 20.7008 25.8024Z" fill="#2CB9B0"/>
<path d="M23.2515 13.7885H24.5169V15.9308H23.4488C22.9631 15.9308 22.8271 16.0653 22.8271 16.547V21.4987H16.0181V13.7885H17.2877L17.2799 13.7806V15.0547H18.1408V13.7806L18.133 13.7877H22.4056L22.3977 13.7806V15.0547H23.2587V13.7806L23.2515 13.7885Z" fill="#2CB9B0"/>
<path d="M23.6941 21.4955V16.8043H30.4825V21.4955H23.6941ZM24.963 17.6582C24.963 17.9911 24.9502 18.2946 24.963 18.5973C24.9783 19.0241 25.1217 19.4362 25.3743 19.7795C25.627 20.1228 25.9772 20.3811 26.3787 20.5206C27.2446 20.8184 28.0087 20.6187 28.6424 19.9666C29.2762 19.3145 29.2627 18.4935 29.2057 17.6683H28.3683C28.3683 17.9546 28.3683 18.2244 28.3683 18.4921C28.3633 19.2294 27.8143 19.7927 27.1 19.7955C26.3702 19.7955 25.8183 19.2358 25.8126 18.485C25.8126 18.2115 25.8126 17.9381 25.8126 17.6582H24.963Z" fill="#2CB9B0"/>
<path d="M10.2041 26.9396C10.224 26.9207 10.246 26.9041 10.2696 26.8902C11.5478 26.3627 12.826 25.8352 14.1349 25.2962L16.5795 31.3144C16.1337 31.4404 15.72 31.6272 15.2977 31.663C14.3343 31.7453 13.3644 31.7517 12.3974 31.7911C12.2585 31.7968 12.1538 31.7961 12.0862 31.6272C11.4716 30.0876 10.8457 28.5494 10.224 27.0162C10.2153 26.9913 10.2086 26.9657 10.2041 26.9396Z" fill="#2CB9B0"/>
<path d="M17.2874 13.7885C17.2874 13.0291 17.2774 12.2696 17.2874 11.5102C17.3066 10.0565 18.5221 8.76308 19.9762 8.63639C21.5258 8.50111 22.9485 9.56689 23.1942 11.06C23.238 11.396 23.2568 11.7347 23.2505 12.0735C23.259 12.6461 23.2505 13.2188 23.2505 13.7914L23.2583 13.7835H22.3974L22.4052 13.7907C22.4052 13.0749 22.413 12.3591 22.3995 11.6433C22.3725 10.2576 21.1975 9.29347 19.8466 9.53826C18.8782 9.71362 18.154 10.5969 18.1376 11.6433C18.1269 12.3591 18.1333 13.0749 18.1326 13.7907L18.1405 13.7835H17.2795L17.2874 13.7885Z" fill="#2CB9B0"/>
<path d="M11.2592 31.8301L8.98047 31.9167L7.57764 28.4588L9.55869 27.6421L11.2592 31.8301Z" fill="#2CB9B0"/>
<path d="M22.8696 23.2361H16.7534C16.0463 23.2361 15.9701 23.1474 16.0185 22.3979H22.8083C22.8276 22.6635 22.8475 22.9355 22.8696 23.2361Z" fill="#2CB9B0"/>
<path d="M30.504 22.3953C30.504 22.5206 30.504 22.6272 30.504 22.7332C30.4997 23.0853 30.3523 23.2342 29.997 23.2342C28.4432 23.2342 26.8894 23.2342 25.3356 23.2342H24.2674C23.7953 23.2342 23.6778 23.1118 23.68 22.6265V22.3953H30.504Z" fill="#2CB9B0"/>
</svg>
