<svg width="38" height="38" viewBox="0 0 38 38" fill="none" xmlns="http://www.w3.org/2000/svg">
<rect width="38" height="38" rx="5" fill="#029394" fill-opacity="0.1"/>
<g clip-path="url(#clip0_3706_1802)">
<mask id="path-2-inside-1_3706_1802" fill="white">
<path d="M11.271 10.6611H17.0474C17.2507 10.6611 17.4541 10.7426 17.6168 10.9052L21.0337 14.3222V18.3899H13.2235C13.0201 18.3899 12.8167 18.3085 12.654 18.1458L11.271 16.7628"/>
</mask>
<path d="M11.271 10.6611H17.0474C17.2507 10.6611 17.4541 10.7426 17.6168 10.9052L21.0337 14.3222V18.3899H13.2235C13.0201 18.3899 12.8167 18.3085 12.654 18.1458L11.271 16.7628" fill="#94DADA"/>
<path d="M17.6168 10.9052L18.3239 10.1981L17.6168 10.9052ZM21.0337 14.3222H22.0337V13.9079L21.7408 13.615L21.0337 14.3222ZM21.0337 18.3899V19.3899H22.0337V18.3899H21.0337ZM12.654 18.1458L11.9469 18.8529H11.9469L12.654 18.1458ZM11.271 11.6611H17.0474V9.66113H11.271V11.6611ZM17.0474 11.6611C17.0149 11.6611 16.9846 11.6545 16.9592 11.6438C16.9334 11.6329 16.9174 11.62 16.9097 11.6123L18.3239 10.1981C17.9798 9.85406 17.5245 9.66113 17.0474 9.66113V11.6611ZM16.9097 11.6123L20.3266 15.0293L21.7408 13.615L18.3239 10.1981L16.9097 11.6123ZM20.0337 14.3222V18.3899H22.0337V14.3222H20.0337ZM21.0337 17.3899H13.2235V19.3899H21.0337V17.3899ZM13.2235 17.3899C13.2559 17.3899 13.2862 17.3966 13.3117 17.4073C13.3374 17.4181 13.3535 17.4311 13.3611 17.4387L11.9469 18.8529C12.291 19.197 12.7463 19.3899 13.2235 19.3899V17.3899ZM13.3611 17.4387L11.9781 16.0557L10.5639 17.4699L11.9469 18.8529L13.3611 17.4387Z" fill="#008788" mask="url(#path-2-inside-1_3706_1802)"/>
<path d="M29.9825 31.0001H8.01644C7.56894 31.0001 7.20288 30.6341 7.20288 30.1866V27.7459C7.20288 27.2984 7.56894 26.9323 8.01644 26.9323H17.4538C17.6572 26.9323 17.8606 26.8509 18.0233 26.6882L19.5689 25.1425C19.7316 24.9799 19.935 24.8984 20.1384 24.8984H29.9825C30.43 24.8984 30.7961 25.2645 30.7961 25.712V30.1866C30.7961 30.6341 30.43 31.0001 29.9825 31.0001Z" fill="#94DADA"/>
<path d="M7.20288 11.2544C7.20288 10.7021 7.6506 10.2544 8.20288 10.2544H10.2707C10.823 10.2544 11.2707 10.7021 11.2707 11.2544V15.7629C11.2707 16.3152 10.823 16.7629 10.2707 16.7629H8.20288C7.6506 16.7629 7.20288 16.3152 7.20288 15.7629V11.2544Z" fill="#008788"/>
<path d="M16.1519 14.5723H26.7282C27.0376 14.5723 27.2918 14.8264 27.2918 15.1358V21.6443C27.2918 21.9537 27.0376 22.2079 26.7282 22.2079H16.1519C15.8425 22.2079 15.5884 21.9537 15.5884 21.6443V15.1358C15.5884 14.8264 15.8425 14.5723 16.1519 14.5723Z" fill="#94DADA" stroke="#008788" stroke-width="0.5"/>
<path d="M8.42383 10.2544H9.23739V13.9154H8.42383V10.2544Z" fill="white"/>
<path d="M8.42383 14.729H9.23739V15.5426H8.42383V14.729Z" fill="white"/>
<path d="M15.6665 16.3335H26.9998V18.3335H15.6665V16.3335Z" fill="#CCEBEF"/>
<path d="M18.6741 29.7796H7.20288V28.9661H18.6741C18.7961 28.9661 18.8775 28.9253 18.9588 28.8441L20.9114 26.8915C21.1553 26.6473 21.4402 26.5254 21.7655 26.5254H23.0673V27.3389H21.7655C21.6436 27.3389 21.5621 27.3797 21.4809 27.4609L19.5282 29.4136C19.2843 29.6577 18.9995 29.7796 18.6741 29.7796Z" fill="#008788"/>
<path d="M15.5161 14.1452L15.4429 14.0719H15.3393H13.5554V12.9448H16.0493L18.6202 15.5157C18.8479 15.7434 18.8479 16.1547 18.6202 16.3825C18.3925 16.6102 17.9811 16.6102 17.7534 16.3825L15.5161 14.1452Z" fill="#94DADA" stroke="#008788" stroke-width="0.5"/>
</g>
<defs>
<clipPath id="clip0_3706_1802">
<rect width="24" height="24" fill="white" transform="translate(7 7)"/>
</clipPath>
</defs>
</svg>
