<svg width="40" height="40" viewBox="0 0 40 40" fill="none" xmlns="http://www.w3.org/2000/svg">
<rect width="40" height="40" rx="20" fill="#5E37E0" fill-opacity="0.15"/>
<path d="M24.6567 8.88885C28.0889 8.88885 30 10.8666 30 14.2555V25.7333C30 29.1777 28.0889 31.1111 24.6567 31.1111H15.3444C11.9667 31.1111 10 29.1777 10 25.7333V14.2555C10 10.8666 11.9667 8.88885 15.3444 8.88885H24.6567ZM15.6444 24.1555C15.3111 24.1222 14.9889 24.2777 14.8111 24.5666C14.6333 24.8444 14.6333 25.2111 14.8111 25.5C14.9889 25.7777 15.3111 25.9444 15.6444 25.9H24.3556C24.7989 25.8555 25.1333 25.4766 25.1333 25.0333C25.1333 24.5777 24.7989 24.2 24.3556 24.1555H15.6444ZM24.3556 19.0877H15.6444C15.1656 19.0877 14.7778 19.4777 14.7778 19.9555C14.7778 20.4333 15.1656 20.8222 15.6444 20.8222H24.3556C24.8333 20.8222 25.2222 20.4333 25.2222 19.9555C25.2222 19.4777 24.8333 19.0877 24.3556 19.0877ZM18.9656 14.0555H15.6444V14.0666C15.1656 14.0666 14.7778 14.4555 14.7778 14.9333C14.7778 15.4111 15.1656 15.8 15.6444 15.8H18.9656C19.4444 15.8 19.8333 15.4111 19.8333 14.9211C19.8333 14.4444 19.4444 14.0555 18.9656 14.0555Z" fill="#5E37E0"/>
</svg>
