<svg width="40" height="40" viewBox="0 0 40 40" fill="none" xmlns="http://www.w3.org/2000/svg">
<rect width="40" height="40" rx="20" fill="#F93696" fill-opacity="0.15"/>
<path d="M27.0517 9.39087H26.1212C26.5215 10.1257 26.7492 10.9679 26.7492 11.8624C26.7492 13.0196 25.8096 13.9609 24.6548 13.9609H14.7413C13.5865 13.9609 12.6469 13.0195 12.6469 11.8624C12.6469 10.9679 12.8746 10.1258 13.2749 9.39087H12.3444C11.1895 9.39087 10.25 10.3323 10.25 11.4894V29.8162C10.25 30.9733 11.1895 31.9147 12.3444 31.9147H27.0517C28.2065 31.9147 29.1461 30.9733 29.1461 29.8162V11.4894C29.1461 10.3322 28.2065 9.39087 27.0517 9.39087ZM17.244 27.917L15.7236 29.4403C15.451 29.7135 15.009 29.7135 14.7363 29.4403L13.9917 28.6942C13.719 28.4211 13.719 27.9782 13.9917 27.705C14.2643 27.4318 14.7063 27.4318 14.979 27.705L15.23 27.9565L16.2567 26.9278C16.5293 26.6546 16.9714 26.6546 17.244 26.9278C17.5166 27.2009 17.5166 27.6438 17.244 27.917ZM17.244 23.9065L15.7236 25.4298C15.451 25.703 15.009 25.703 14.7363 25.4298L13.9917 24.6837C13.719 24.4106 13.719 23.9677 13.9917 23.6945C14.2643 23.4213 14.7063 23.4213 14.979 23.6945L15.23 23.946L16.2567 22.9174C16.5293 22.6442 16.9714 22.6442 17.244 22.9174C17.5166 23.1905 17.5166 23.6334 17.244 23.9065ZM15.9098 21.0775C15.6372 21.3507 15.1951 21.3507 14.9225 21.0775C14.6499 20.8043 14.6499 20.3614 14.9225 20.0882L17.4358 17.57C17.7084 17.2968 18.1504 17.2968 18.4231 17.57L20.5358 19.6868L22.2014 18.018H22.1182C21.7327 18.018 21.4201 17.7048 21.4201 17.3185C21.4201 16.9322 21.7327 16.619 22.1182 16.619C24.0407 16.619 24.2046 16.5366 24.4674 16.9302C24.6277 17.1702 24.585 17.2515 24.585 19.0906C24.585 19.4769 24.2724 19.7901 23.8868 19.7901C23.5013 19.7901 23.1887 19.4769 23.1887 19.0906V19.0072L21.0294 21.1707C20.7568 21.4438 20.3148 21.4439 20.0421 21.1707L17.9294 19.0539L15.9098 21.0775ZM24.8642 28.8835H19.2326C18.8471 28.8835 18.5345 28.5704 18.5345 28.1841C18.5345 27.7978 18.8471 27.4846 19.2326 27.4846H24.8642C25.2498 27.4846 25.5623 27.7978 25.5623 28.1841C25.5623 28.5704 25.2498 28.8835 24.8642 28.8835ZM24.8642 24.8731H19.2326C18.8471 24.8731 18.5345 24.5599 18.5345 24.1736C18.5345 23.7873 18.8471 23.4741 19.2326 23.4741H24.8642C25.2498 23.4741 25.5623 23.7873 25.5623 24.1736C25.5623 24.5599 25.2498 24.8731 24.8642 24.8731Z" fill="#F93696"/>
<path d="M21.583 8.08337H17.8131C15.7344 8.08337 14.0432 9.77788 14.0432 11.8607C14.0432 12.247 14.3558 12.5602 14.7413 12.5602H24.6548C25.0404 12.5602 25.3529 12.247 25.3529 11.8607C25.3529 9.77788 23.6618 8.08337 21.583 8.08337Z" fill="#F93696"/>
</svg>
