<svg width="38" height="38" viewBox="0 0 38 38" fill="none" xmlns="http://www.w3.org/2000/svg">
<rect width="38" height="38" rx="5" fill="#FF8243" fill-opacity="0.1"/>
<g clip-path="url(#clip0_3706_1801)">
<ellipse cx="20.6" cy="13.3996" rx="4.8" ry="4.8" fill="white"/>
<path d="M15.4997 30.7416C17.1062 30.7416 18.4086 29.4392 18.4086 27.8327C18.4086 26.2262 17.1062 24.9238 15.4997 24.9238C13.8932 24.9238 12.5908 26.2262 12.5908 27.8327C12.5908 29.4392 13.8932 30.7416 15.4997 30.7416Z" fill="#FF722C"/>
<path d="M24.8212 24.8952C23.2068 24.7363 21.7694 25.9162 21.6105 27.5305C21.4517 29.1449 22.6315 30.5823 24.2459 30.7412C24.4372 30.76 24.6299 30.76 24.8212 30.7412C26.4355 30.5823 27.6154 29.1449 27.4565 27.5305C27.3193 26.1358 26.2158 25.0324 24.8212 24.8952Z" fill="#FF722C"/>
<path d="M30.8076 13.8249C30.6631 13.6085 30.4182 13.4807 30.1581 13.486H26.9385V13.4295C26.9387 10.0136 24.1699 7.24436 20.754 7.24414C17.3382 7.24392 14.5689 10.0128 14.5687 13.4286V13.4295V13.486H12.1682L11.3492 9.75808C11.2582 9.37886 10.9202 9.11073 10.5302 9.10852H7V10.803H9.85239L12.4789 22.8621C12.5482 23.2586 12.8954 23.546 13.2979 23.5399H28.0682C28.4582 23.5377 28.7962 23.2696 28.8872 22.8904L30.9771 14.5309C31.0383 14.282 30.9752 14.0188 30.8076 13.8249ZM20.7536 17.9199C18.2737 17.9199 16.2632 15.9094 16.2632 13.4295C16.2632 10.9495 18.2737 8.93907 20.7536 8.93907C23.2336 8.93907 25.244 10.9495 25.244 13.4295C25.2286 15.903 23.2272 17.9044 20.7536 17.9199Z" fill="#FF722C"/>
<path d="M20.0748 13.5142L18.5215 11.9326L17.3071 13.1188L19.4535 15.2934C19.6099 15.453 19.8231 15.5444 20.0466 15.5476C20.2671 15.5584 20.4821 15.4765 20.6396 15.3216L24.1981 11.9609L23.0402 10.7183L20.0748 13.5142Z" fill="#FF722C"/>
</g>
<defs>
<clipPath id="clip0_3706_1801">
<rect width="24" height="24" fill="white" transform="translate(7 7)"/>
</clipPath>
</defs>
</svg>
