<svg width="40" height="40" viewBox="0 0 40 40" fill="none" xmlns="http://www.w3.org/2000/svg">
<rect width="40" height="40" rx="20" fill="#567DF4" fill-opacity="0.15"/>
<path d="M16.8194 13.9966C16.3751 17.6852 19.1932 20.387 22.2235 20.3222C25.1665 20.2589 27.8438 17.5847 27.4055 14.0317C27.4419 14.0157 27.4803 14.0048 27.5196 13.9994C28.4269 13.9994 29.3356 13.9718 30.2403 14.0193C30.5516 14.0347 30.8552 14.1244 31.1271 14.2814C31.3991 14.4385 31.632 14.6586 31.8076 14.9244C31.9831 15.1902 32.0965 15.4944 32.1387 15.8131C32.181 16.1318 32.1509 16.4563 32.051 16.761C31.2311 19.2506 30.3831 21.7306 29.5264 24.2078C29.2349 25.0542 28.477 25.5639 27.5916 25.5639C23.8043 25.5639 20.0168 25.5639 16.229 25.5639C15.2522 25.5639 14.475 24.9585 14.1981 23.9799C13.5465 21.6783 12.8971 19.376 12.25 17.073C11.8537 15.6667 11.4494 14.2625 11.0624 12.8541C11.0328 12.7207 10.9683 12.5982 10.876 12.4999C10.7836 12.4017 10.667 12.3315 10.5387 12.2969C9.96155 12.1082 9.38512 11.9133 8.81668 11.6978C8.32097 11.5098 8.16952 10.9182 8.49978 10.5215C8.70393 10.277 8.9668 10.1909 9.26435 10.2908C9.90351 10.5043 10.546 10.7129 11.1771 10.9512C11.4699 11.0553 11.734 11.2307 11.9471 11.4626C12.1603 11.6944 12.3161 11.9759 12.4014 12.2832C12.5529 12.7818 12.7003 13.2818 12.8311 13.7866C12.8744 13.9525 12.9458 14.0007 13.1053 13.9994C14.2395 13.9939 15.3697 13.9994 16.5019 13.9994L16.8194 13.9966Z" fill="#567DF4"/>
<path d="M22.2372 19.188C21.083 19.1886 19.9752 18.7226 19.1548 17.8914C18.3344 17.0602 17.8678 15.9309 17.8563 14.7492C17.8395 12.3016 19.7989 10.2616 22.1783 10.2502C22.7538 10.2453 23.3245 10.3566 23.8579 10.5777C24.3913 10.7987 24.877 11.1252 25.2871 11.5385C25.6973 11.9517 26.0239 12.4437 26.2483 12.9862C26.4727 13.5288 26.5905 14.1112 26.595 14.7004C26.6104 17.1638 24.6524 19.1765 22.2372 19.188ZM20.2539 16.1103L19.4718 15.0429C18.9495 15.0429 19.9966 14.2439 19.9917 14.704C19.9861 15.1749 20.3065 15.4749 20.833 15.4857C21.0391 15.49 21.2452 15.4857 21.4717 15.4857C21.4717 15.6938 21.4717 15.8625 21.4717 16.0305C21.4692 16.1287 21.5466 15.212 21.5575 15.3097C21.6192 15.7282 21.6975 15.3277 22.0789 15.3097C22.4771 15.2911 22.3165 15.7483 22.3396 15.3097C22.3515 15.0635 22.9796 15.7469 22.9796 15.4835C23.251 15.4835 22.7553 14.9478 22.981 14.9378C23.4465 14.9119 22.8688 14.9521 22.861 14.5092C22.8533 14.0785 23.4381 13.7144 22.981 13.7087C22.7574 13.7087 23.1015 13.7087 22.861 13.7087C22.861 13.4668 22.981 13.5039 22.981 13.2993C23.1218 12.6413 24.6182 12.906 24.1646 12.9081C23.711 12.9103 23.3508 12.7674 23.3445 13.2993C23.3459 13.5039 23.3825 15.3383 23.3825 15.5766L20.2539 16.1103Z" fill="#567DF4"/>
<path d="M18.0621 26.6983C18.2574 26.6973 18.451 26.7365 18.6315 26.8137C18.8119 26.8909 18.9757 27.0045 19.1131 27.1479C19.2504 27.2912 19.3587 27.4615 19.4316 27.6486C19.5044 27.8357 19.5403 28.0359 19.5372 28.2376C19.5292 29.1191 18.7786 29.7837 18.0027 29.7486C17.2268 29.7134 16.5509 29.0316 16.5569 28.2142C16.5584 28.0123 16.5986 27.8128 16.6752 27.6271C16.7518 27.4414 16.8633 27.2732 17.0033 27.1323C17.1432 26.9913 17.3089 26.8804 17.4906 26.8059C17.6723 26.7314 17.8666 26.6949 18.0621 26.6983Z" fill="#567DF4"/>
<path d="M24.5834 28.205C24.5834 27.3421 25.2286 26.7099 26.0766 26.6899C26.8592 26.6754 27.5664 27.4206 27.541 28.2677C27.5197 28.997 26.8698 29.7628 26.0245 29.7484C25.3447 29.7401 24.5374 29.1065 24.5834 28.205Z" fill="#567DF4"/>
<path d="M24.2125 13.8056V13.5789C24.2125 12.6968 23.5888 11.9774 22.8222 11.9774H22.6235V11.0632H21.8291V11.9774H21.6304C20.8638 11.9774 20.2402 12.695 20.2402 13.577C20.2402 14.4592 20.8639 15.1768 21.6304 15.1768H22.8221C23.1506 15.1768 23.4179 15.4843 23.4179 15.8623C23.4179 16.2403 23.1506 16.5479 22.8221 16.5479H21.6305C21.302 16.5479 21.0347 16.2421 21.0347 15.8641V15.6338H20.2402V15.8641C20.2402 16.7463 20.8639 17.462 21.6304 17.462H21.8291V18.3761H22.6235V17.462H22.8222C23.5888 17.462 24.2125 16.7444 24.2125 15.8623C24.2125 14.9802 23.5888 14.2626 22.8222 14.2626H21.6305C21.302 14.2626 21.0347 13.955 21.0347 13.577C21.0347 13.199 21.302 12.8914 21.6305 12.8914H22.8222C23.1507 12.8914 23.418 13.2009 23.418 13.5788V13.8055L24.2125 13.8056Z" fill="white"/>
</svg>
