<svg width="40" height="40" viewBox="0 0 40 40" fill="none" xmlns="http://www.w3.org/2000/svg">
<rect width="40" height="40" rx="20" fill="#08D98E" fill-opacity="0.15"/>
<path d="M26.2236 14.4329V14.1775C26.2236 12.5406 26.2236 10.9038 26.2236 9.26689C26.2236 8.70708 26.5155 8.41858 27.0858 8.41858C27.794 8.41858 28.501 8.41858 29.2093 8.41858C29.6908 8.41858 30 8.7304 30 9.21533C30 10.6885 30 12.1617 30 13.6349C30 14.126 29.6933 14.4341 29.2117 14.4353C28.2264 14.4341 27.2435 14.4329 26.2236 14.4329Z" fill="#00AD33"/>
<path d="M14.8501 18.191V10.7636C14.8501 9.38007 15.8194 8.41144 17.2026 8.41022H28.8261C28.4183 8.50262 28.0383 8.69029 27.7175 8.95775C27.4597 9.17696 27.2543 9.45098 27.1166 9.75966C26.979 10.0683 26.9124 10.4039 26.9219 10.7415C26.9219 16.3757 26.9219 22.0098 26.9219 27.6439V27.9582H22.9534C22.8635 26.9761 22.7735 25.9866 22.6812 24.9652H22.9448C23.754 24.9652 24.5632 24.9652 25.3736 24.9652C25.5564 24.9723 25.7354 24.9129 25.8775 24.7982C26.0196 24.6835 26.115 24.5212 26.1459 24.3415C26.1786 24.1791 26.1537 24.0104 26.0755 23.8642C25.9974 23.718 25.8708 23.6034 25.7173 23.5399C25.5863 23.4883 25.4467 23.462 25.3059 23.4625C24.4807 23.4625 23.6554 23.4625 22.829 23.4625H22.5445L22.404 21.9586H22.6701C23.5655 21.9586 24.4622 21.9586 25.3589 21.9586C25.5134 21.9685 25.6672 21.9298 25.7985 21.8478C25.9298 21.7659 26.0319 21.6449 26.0905 21.502C26.1544 21.3701 26.1753 21.2216 26.1501 21.0774C26.1249 20.9331 26.0549 20.8004 25.9501 20.6978C25.8681 20.6127 25.7684 20.5465 25.6579 20.5041C25.5474 20.4616 25.4289 20.444 25.3108 20.4523C24.3045 20.4523 23.2983 20.4523 22.292 20.4523C22.2353 20.4603 22.1777 20.4483 22.1289 20.4185C22.0801 20.3887 22.0433 20.3429 22.0247 20.289C21.3571 18.9165 20.2437 18.2217 18.7238 18.1959C17.529 18.1762 16.3343 18.1959 15.1383 18.1959L14.8501 18.191ZM22.3991 17.0443C22.4533 17.0321 22.4755 17.0247 22.4977 17.021C22.9408 16.9544 23.3456 16.7323 23.6391 16.3947C23.9326 16.0571 24.0956 15.6262 24.0988 15.1795C24.1029 14.7308 23.9424 14.2961 23.6475 13.957C23.3527 13.618 22.9438 13.3978 22.4977 13.338C22.0579 13.2767 21.6047 13.3049 21.1576 13.2963C20.857 13.2963 20.6969 13.16 20.6994 12.9145C20.7019 12.669 20.8607 12.5462 21.1674 12.5462C21.8596 12.5462 22.5506 12.5462 23.2428 12.5401C23.4066 12.5386 23.5681 12.5013 23.7158 12.4308C23.8552 12.3557 23.9657 12.2366 24.0299 12.0922C24.0941 11.9478 24.1084 11.7862 24.0705 11.6328C24.0314 11.4592 23.9325 11.3048 23.7909 11.1964C23.6494 11.0881 23.4741 11.0327 23.2958 11.0399C23.0002 11.0399 22.7046 11.0399 22.3979 11.0399C22.3979 10.906 22.3979 10.8054 22.3979 10.7035C22.4042 10.6011 22.3894 10.4985 22.3545 10.4019C22.3196 10.3054 22.2653 10.217 22.1949 10.1421C22.1245 10.0673 22.0396 10.0075 21.9452 9.96651C21.8508 9.92552 21.7491 9.90416 21.6461 9.90374C21.5432 9.90333 21.4412 9.92386 21.3466 9.96408C21.2519 10.0043 21.1664 10.0634 21.0954 10.1377C21.0244 10.212 20.9694 10.2999 20.9337 10.3962C20.898 10.4924 20.8824 10.5949 20.8878 10.6973C20.8878 10.8201 20.8878 10.9429 20.8878 11.0546C20.8633 11.0646 20.8382 11.0732 20.8127 11.0804C20.3688 11.1412 19.9613 11.358 19.6637 11.6918C19.366 12.0256 19.1978 12.4545 19.1893 12.901C19.1808 13.3528 19.3392 13.792 19.6344 14.135C19.9297 14.4779 20.3412 14.7007 20.7905 14.7609C21.2364 14.8017 21.6843 14.816 22.1318 14.8039C22.4324 14.8039 22.5925 14.9389 22.59 15.1844C22.5876 15.43 22.4287 15.5527 22.122 15.5527C21.4224 15.5527 20.7228 15.5527 20.0281 15.5527C19.9099 15.5458 19.7917 15.5656 19.6823 15.6107C19.5728 15.6557 19.475 15.7249 19.3963 15.813C19.2979 15.9161 19.2334 16.0467 19.2114 16.1873C19.1894 16.3279 19.2109 16.4718 19.2731 16.5999C19.331 16.7389 19.4298 16.8572 19.5564 16.9391C19.683 17.0211 19.8316 17.0629 19.9825 17.0591C20.2855 17.0652 20.5885 17.0591 20.9038 17.0591C20.9038 17.2002 20.9038 17.3046 20.9038 17.4188C20.9034 17.5176 20.9224 17.6155 20.9599 17.707C20.9974 17.7985 21.0526 17.8818 21.1224 17.952C21.1921 18.0222 21.2751 18.078 21.3665 18.1163C21.4579 18.1546 21.556 18.1745 21.6552 18.175C21.7543 18.1755 21.8526 18.1565 21.9444 18.1191C22.0362 18.0818 22.1197 18.0267 22.1901 17.9572C22.2606 17.8876 22.3166 17.805 22.355 17.7138C22.3934 17.6227 22.4134 17.525 22.4139 17.4261C22.404 17.3046 22.3991 17.1818 22.3991 17.0443Z" fill="#00CB51"/>
<path d="M15.5372 30.9818H11.7645C10.3468 30.9818 9.4243 29.9113 9.57703 28.502C9.7002 27.3431 9.79381 26.1805 9.90097 25.0191C10.0106 23.8344 10.1067 22.6485 10.236 21.4663C10.3431 20.4841 11.246 19.7021 12.2486 19.6997C14.418 19.6948 16.5874 19.6948 18.7568 19.6997C19.9245 19.6997 20.7965 20.5443 20.8889 21.7118C20.9936 23.045 21.1352 24.377 21.251 25.7103C21.3446 26.7464 21.4481 27.7826 21.522 28.8212C21.602 29.958 20.645 30.9671 19.4761 30.9782C18.1631 30.9917 16.8502 30.9782 15.5347 30.9782L15.5372 30.9818ZM13.2413 24.1426C13.2413 24.4482 13.2413 24.7564 13.2413 25.0596C13.2487 25.9595 13.8301 26.7378 14.7132 26.9109C15.177 26.9932 15.6504 27.008 16.1185 26.9551C17.1544 26.8508 17.8343 26.0859 17.8589 25.0473C17.8749 24.42 17.8688 23.7939 17.8589 23.1666C17.8528 22.6915 17.5202 22.3637 17.0805 22.3747C16.6408 22.3858 16.3563 22.7258 16.3563 23.1936C16.3563 23.7964 16.3563 24.3991 16.3563 25.0031C16.3563 25.3187 16.1924 25.4746 15.8747 25.4782C15.6542 25.4782 15.4337 25.4782 15.2145 25.4782C14.909 25.4782 14.7575 25.3223 14.7452 25.0142C14.7452 24.9442 14.7452 24.873 14.7452 24.803C14.7452 24.2543 14.7526 23.7067 14.7452 23.158C14.7366 22.6902 14.4139 22.3698 13.9828 22.3747C13.5517 22.3796 13.2438 22.716 13.2438 23.1788C13.2401 23.5005 13.2413 23.8209 13.2413 24.1426Z" fill="#00CB51"/>
</svg>
