<svg width="25" height="24" viewBox="0 0 25 24" fill="none" xmlns="http://www.w3.org/2000/svg">
<path d="M9.06982 16.5C9.76845 15.2923 11.0742 14.4797 12.5698 14.4797C14.0654 14.4797 15.3712 15.2923 16.0698 16.5M14.5698 10C14.5698 11.1046 13.6744 12 12.5698 12C11.4653 12 10.5698 11.1046 10.5698 10C10.5698 8.89543 11.4653 8 12.5698 8C13.6744 8 14.5698 8.89543 14.5698 10Z" stroke="#4D4D4D" stroke-width="1.5" stroke-linecap="round"/>
<path d="M22.5698 13.9669V10.0332C19.7131 10.0332 17.8555 6.93041 19.3018 4.46691L15.8377 2.5001C14.3736 4.99405 10.7676 4.99395 9.30345 2.5L5.83935 4.46681C7.28568 6.93035 5.42655 10.0332 2.56982 10.0332V13.9669C5.4265 13.9669 7.28407 17.0697 5.83777 19.5332L9.30187 21.5C10.7667 19.0048 14.3744 19.0047 15.8393 21.4999L19.3034 19.5331C17.8572 17.0696 19.7132 13.9669 22.5698 13.9669Z" stroke="#4D4D4D" stroke-width="1.5" stroke-linecap="round" stroke-linejoin="round"/>
</svg>
