<svg width="230" height="230" viewBox="0 0 230 230" fill="none" xmlns="http://www.w3.org/2000/svg">
<circle cx="115" cy="115" r="115" fill="white"/>
<g clip-path="url(#clip0_3704_2686)">
<path fill-rule="evenodd" clip-rule="evenodd" d="M134.133 79.5384V99.2692L143.316 104.7V79.5384C143.316 73.9134 140.582 69.0862 135.804 66.2746L123.807 59.2152L113.48 53.1386V63.9443L131.213 74.3798C133.149 75.52 134.133 77.2617 134.133 79.5384ZM120.992 47.1083L132.989 54.1677L144.985 61.2272C149.763 64.0387 152.498 68.8659 152.498 74.489V102.727C152.498 108.35 149.763 113.177 144.985 115.989L132.989 123.048L120.992 130.107C116.215 132.919 110.745 132.919 105.967 130.107L97.2829 124.997C95.9365 124.23 94.8185 123.106 94.0472 121.744C93.2759 120.383 92.8798 118.834 92.9009 117.262V111.613L110.556 122.002C112.494 123.141 114.464 123.141 116.4 122.002L120.776 119.428C122.06 118.697 123.125 117.627 123.861 116.33C124.596 115.033 124.973 113.557 124.953 112.059V86.1628C124.972 84.7409 124.613 83.3403 123.915 82.1091C123.217 80.8778 122.205 79.8617 120.987 79.1682L99.8053 66.6985C98.4798 65.8935 96.9654 65.4685 95.4224 65.4685C93.8794 65.4685 92.3651 65.8935 91.0395 66.6985L86.5685 69.3324C84.6309 70.4707 83.6466 72.2105 83.6466 74.489V116.971L81.9777 115.989C77.1998 113.177 74.465 108.35 74.465 102.727V74.489C74.465 68.8659 77.1998 64.0387 81.9777 61.2272L93.9742 54.1677L105.969 47.1083C110.745 44.2967 116.215 44.2967 120.992 47.1083Z" fill="#003399"/>
<path fill-rule="evenodd" clip-rule="evenodd" d="M94.5846 101.799L109.294 110.46H109.307C111.633 111.696 115.688 109.223 115.688 106.532V88.6596C115.662 88.0848 115.494 87.526 115.2 87.0347C114.906 86.5433 114.496 86.1353 114.007 85.848L99.297 77.1894H99.2843C96.9544 75.9641 92.9011 78.4092 92.9011 81.1041V99.0155C92.9304 99.5847 93.0995 100.137 93.3931 100.622C93.6866 101.108 94.095 101.51 94.5809 101.792" fill="#FF6600"/>
<g clip-path="url(#clip1_3704_2686)">
<path fill-rule="evenodd" clip-rule="evenodd" d="M134.133 79.5384V99.2692L143.316 104.7V79.5384C143.316 73.9134 140.582 69.0862 135.804 66.2746L123.807 59.2152L113.48 53.1386V63.9443L131.213 74.3798C133.149 75.52 134.133 77.2617 134.133 79.5384ZM120.992 47.1083L132.989 54.1677L144.985 61.2272C149.763 64.0387 152.498 68.8659 152.498 74.489V102.727C152.498 108.35 149.763 113.177 144.985 115.989L132.989 123.048L120.992 130.107C116.215 132.919 110.745 132.919 105.967 130.107L97.2829 124.997C95.9365 124.23 94.8185 123.106 94.0472 121.744C93.2759 120.383 92.8798 118.834 92.9009 117.262V111.613L110.556 122.002C112.494 123.141 114.464 123.141 116.4 122.002L120.776 119.428C122.06 118.697 123.125 117.627 123.861 116.33C124.596 115.033 124.973 113.557 124.953 112.059V86.1628C124.972 84.7409 124.613 83.3403 123.915 82.1091C123.217 80.8778 122.205 79.8617 120.987 79.1682L99.8053 66.6985C98.4798 65.8935 96.9654 65.4685 95.4224 65.4685C93.8794 65.4685 92.3651 65.8935 91.0395 66.6985L86.5685 69.3324C84.6309 70.4707 83.6466 72.2105 83.6466 74.489V116.971L81.9777 115.989C77.1998 113.177 74.465 108.35 74.465 102.727V74.489C74.465 68.8659 77.1998 64.0387 81.9777 61.2272L93.9742 54.1677L105.969 47.1083C110.745 44.2967 116.215 44.2967 120.992 47.1083Z" fill="#C52127"/>
<path fill-rule="evenodd" clip-rule="evenodd" d="M94.5846 101.799L109.294 110.46H109.307C111.633 111.696 115.688 109.223 115.688 106.532V88.6596C115.662 88.0848 115.494 87.526 115.2 87.0347C114.906 86.5433 114.496 86.1353 114.007 85.848L99.297 77.1894H99.2843C96.9544 75.9641 92.9011 78.4092 92.9011 81.1041V99.0155C92.9304 99.5847 93.0995 100.137 93.3931 100.622C93.6866 101.108 94.095 101.51 94.5809 101.792" fill="#F68A3D"/>
</g>
</g>
<path d="M62.1477 177V153.727H71.3295C73.0947 153.727 74.5985 154.064 75.8409 154.739C77.0833 155.405 78.0303 156.333 78.6818 157.523C79.3409 158.705 79.6705 160.068 79.6705 161.614C79.6705 163.159 79.3371 164.523 78.6705 165.705C78.0038 166.886 77.0379 167.807 75.7727 168.466C74.5152 169.125 72.9924 169.455 71.2045 169.455H65.3523V165.511H70.4091C71.3561 165.511 72.1364 165.348 72.75 165.023C73.3712 164.689 73.8333 164.231 74.1364 163.648C74.447 163.057 74.6023 162.379 74.6023 161.614C74.6023 160.841 74.447 160.167 74.1364 159.591C73.8333 159.008 73.3712 158.557 72.75 158.239C72.1288 157.913 71.3409 157.75 70.3864 157.75H67.0682V177H62.1477ZM104.253 165.364C104.253 167.902 103.772 170.061 102.81 171.841C101.855 173.621 100.552 174.981 98.9006 175.92C97.2566 176.852 95.4081 177.318 93.3551 177.318C91.2869 177.318 89.4309 176.848 87.7869 175.909C86.143 174.97 84.8438 173.61 83.8892 171.83C82.9347 170.049 82.4574 167.894 82.4574 165.364C82.4574 162.826 82.9347 160.667 83.8892 158.886C84.8438 157.106 86.143 155.75 87.7869 154.818C89.4309 153.879 91.2869 153.409 93.3551 153.409C95.4081 153.409 97.2566 153.879 98.9006 154.818C100.552 155.75 101.855 157.106 102.81 158.886C103.772 160.667 104.253 162.826 104.253 165.364ZM99.2642 165.364C99.2642 163.72 99.018 162.333 98.5256 161.205C98.0407 160.076 97.3551 159.22 96.4688 158.636C95.5824 158.053 94.5445 157.761 93.3551 157.761C92.1657 157.761 91.1278 158.053 90.2415 158.636C89.3551 159.22 88.6657 160.076 88.1733 161.205C87.6884 162.333 87.446 163.72 87.446 165.364C87.446 167.008 87.6884 168.394 88.1733 169.523C88.6657 170.652 89.3551 171.508 90.2415 172.091C91.1278 172.674 92.1657 172.966 93.3551 172.966C94.5445 172.966 95.5824 172.674 96.4688 172.091C97.3551 171.508 98.0407 170.652 98.5256 169.523C99.018 168.394 99.2642 167.008 99.2642 165.364ZM120.523 160.42C120.432 159.504 120.042 158.792 119.352 158.284C118.663 157.777 117.727 157.523 116.545 157.523C115.742 157.523 115.064 157.636 114.511 157.864C113.958 158.083 113.534 158.39 113.239 158.784C112.951 159.178 112.807 159.625 112.807 160.125C112.792 160.542 112.879 160.905 113.068 161.216C113.265 161.527 113.534 161.795 113.875 162.023C114.216 162.242 114.61 162.436 115.057 162.602C115.504 162.761 115.981 162.898 116.489 163.011L118.58 163.511C119.595 163.739 120.527 164.042 121.375 164.42C122.223 164.799 122.958 165.265 123.58 165.818C124.201 166.371 124.682 167.023 125.023 167.773C125.371 168.523 125.549 169.383 125.557 170.352C125.549 171.777 125.186 173.011 124.466 174.057C123.754 175.095 122.723 175.902 121.375 176.477C120.034 177.045 118.417 177.33 116.523 177.33C114.644 177.33 113.008 177.042 111.614 176.466C110.227 175.89 109.144 175.038 108.364 173.909C107.591 172.773 107.186 171.367 107.148 169.693H111.909C111.962 170.473 112.186 171.125 112.58 171.648C112.981 172.163 113.515 172.553 114.182 172.818C114.856 173.076 115.617 173.205 116.466 173.205C117.299 173.205 118.023 173.083 118.636 172.841C119.258 172.598 119.739 172.261 120.08 171.83C120.42 171.398 120.591 170.902 120.591 170.341C120.591 169.818 120.436 169.379 120.125 169.023C119.822 168.667 119.375 168.364 118.784 168.114C118.201 167.864 117.485 167.636 116.636 167.432L114.102 166.795C112.14 166.318 110.591 165.572 109.455 164.557C108.318 163.542 107.754 162.174 107.761 160.455C107.754 159.045 108.129 157.814 108.886 156.761C109.652 155.708 110.701 154.886 112.034 154.295C113.367 153.705 114.883 153.409 116.58 153.409C118.307 153.409 119.814 153.705 121.102 154.295C122.398 154.886 123.405 155.708 124.125 156.761C124.845 157.814 125.216 159.034 125.239 160.42H120.523ZM128.776 183.545V159.545H133.548V162.477H133.764C133.976 162.008 134.283 161.53 134.685 161.045C135.094 160.553 135.624 160.144 136.276 159.818C136.935 159.485 137.753 159.318 138.73 159.318C140.003 159.318 141.177 159.652 142.253 160.318C143.329 160.977 144.188 161.973 144.832 163.307C145.476 164.633 145.798 166.295 145.798 168.295C145.798 170.242 145.484 171.886 144.855 173.227C144.234 174.561 143.385 175.572 142.31 176.261C141.241 176.943 140.045 177.284 138.719 177.284C137.779 177.284 136.98 177.129 136.321 176.818C135.67 176.508 135.135 176.117 134.719 175.648C134.302 175.17 133.984 174.689 133.764 174.205H133.616V183.545H128.776ZM133.514 168.273C133.514 169.311 133.658 170.216 133.946 170.989C134.234 171.761 134.651 172.364 135.196 172.795C135.741 173.22 136.404 173.432 137.185 173.432C137.973 173.432 138.639 173.216 139.185 172.784C139.73 172.345 140.143 171.739 140.423 170.966C140.711 170.186 140.855 169.288 140.855 168.273C140.855 167.265 140.715 166.379 140.435 165.614C140.154 164.848 139.741 164.25 139.196 163.818C138.651 163.386 137.98 163.17 137.185 163.17C136.397 163.17 135.73 163.379 135.185 163.795C134.647 164.212 134.234 164.803 133.946 165.568C133.658 166.333 133.514 167.235 133.514 168.273ZM149.026 177V159.545H153.719V162.591H153.901C154.219 161.508 154.753 160.689 155.503 160.136C156.253 159.576 157.116 159.295 158.094 159.295C158.336 159.295 158.598 159.311 158.878 159.341C159.158 159.371 159.404 159.413 159.616 159.466V163.761C159.389 163.693 159.075 163.633 158.673 163.58C158.272 163.527 157.904 163.5 157.571 163.5C156.859 163.5 156.223 163.655 155.662 163.966C155.109 164.269 154.67 164.693 154.344 165.239C154.026 165.784 153.866 166.413 153.866 167.125V177H149.026ZM169.193 177.341C167.428 177.341 165.902 176.966 164.614 176.216C163.333 175.458 162.345 174.405 161.648 173.057C160.951 171.701 160.602 170.129 160.602 168.341C160.602 166.538 160.951 164.962 161.648 163.614C162.345 162.258 163.333 161.205 164.614 160.455C165.902 159.697 167.428 159.318 169.193 159.318C170.958 159.318 172.481 159.697 173.761 160.455C175.049 161.205 176.042 162.258 176.739 163.614C177.436 164.962 177.784 166.538 177.784 168.341C177.784 170.129 177.436 171.701 176.739 173.057C176.042 174.405 175.049 175.458 173.761 176.216C172.481 176.966 170.958 177.341 169.193 177.341ZM169.216 173.591C170.019 173.591 170.689 173.364 171.227 172.909C171.765 172.447 172.17 171.818 172.443 171.023C172.723 170.227 172.864 169.322 172.864 168.307C172.864 167.292 172.723 166.386 172.443 165.591C172.17 164.795 171.765 164.167 171.227 163.705C170.689 163.242 170.019 163.011 169.216 163.011C168.405 163.011 167.723 163.242 167.17 163.705C166.625 164.167 166.212 164.795 165.932 165.591C165.659 166.386 165.523 167.292 165.523 168.307C165.523 169.322 165.659 170.227 165.932 171.023C166.212 171.818 166.625 172.447 167.17 172.909C167.723 173.364 168.405 173.591 169.216 173.591Z" fill="#121212"/>
<defs>
<clipPath id="clip0_3704_2686">
<rect width="78.035" height="87.2156" fill="white" transform="translate(74.4634 45)"/>
</clipPath>
<clipPath id="clip1_3704_2686">
<rect width="78.035" height="87.2156" fill="white" transform="translate(74.4634 45)"/>
</clipPath>
</defs>
</svg>
