<svg width="40" height="40" viewBox="0 0 40 40" fill="none" xmlns="http://www.w3.org/2000/svg">
<rect width="40" height="40" rx="20" fill="#FD7248" fill-opacity="0.16"/>
<g clip-path="url(#clip0_1762_2266)">
<path d="M11.8933 24.9565H14.1099C14.2402 24.9565 14.3459 25.0622 14.3459 25.1926V28.7329H11.6572V25.1926C11.6572 25.0622 11.7629 24.9565 11.8933 24.9565Z" fill="#FD7248" stroke="#FD7248"/>
<path d="M11.8733 28.0249H14.1309V28.969H11.8733V28.0249Z" fill="#FD7248"/>
<path d="M16.4086 23.0682H18.6252C18.7556 23.0682 18.8612 23.1739 18.8612 23.3043V28.7328H16.1726V23.3043C16.1726 23.1739 16.2783 23.0682 16.4086 23.0682Z" fill="#FD7248" stroke="#FD7248"/>
<path d="M16.3875 28.0249H18.6451V28.969H16.3875V28.0249Z" fill="#FD7248"/>
<path d="M20.9238 20.236H23.1404C23.2707 20.236 23.3764 20.3417 23.3764 20.472V28.7329H20.6877V20.472C20.6877 20.3417 20.7934 20.236 20.9238 20.236Z" fill="#FD7248" stroke="#FD7248"/>
<path d="M20.9028 28.0249H23.1605V28.969H20.9028V28.0249Z" fill="#FD7248"/>
<path d="M25.4394 18.3473H27.656C27.7863 18.3473 27.892 18.453 27.892 18.5833V28.7324H25.2034V18.5833C25.2034 18.453 25.3091 18.3473 25.4394 18.3473Z" fill="#FD7248" stroke="#FD7248"/>
<path d="M25.4182 28.0249H27.6758V28.969H25.4182V28.0249Z" fill="#FD7248"/>
<path d="M22.5158 12.5767C21.0131 16.0735 15.2159 18.7738 12.488 19.6914C12.1099 19.8232 12.105 20.3946 12.4733 20.5081C12.4829 20.5111 12.4933 20.5121 12.5034 20.5115C19.5195 20.1018 23.4555 16.077 24.6044 14.031C24.6311 13.9834 24.691 13.9692 24.7373 13.9981L25.6346 14.559C25.7017 14.6009 25.7876 14.5466 25.7784 14.4679L25.3353 10.6696C25.3285 10.6114 25.271 10.5734 25.2148 10.59L21.6579 11.638C21.5861 11.6591 21.5664 11.751 21.6242 11.7987C21.8209 11.9611 22.1422 12.2173 22.4839 12.4643C22.5194 12.49 22.5332 12.5364 22.5158 12.5767Z" fill="#FD7248" stroke="#FD7248"/>
<path d="M30.1492 29.4403H9.85102C9.72066 29.4403 9.61499 29.3346 9.61499 29.2043C9.61499 29.0739 9.72066 28.9683 9.85102 28.9683H30.1492C30.2795 28.9683 30.3852 29.0739 30.3852 29.2043C30.3852 29.3346 30.2795 29.4403 30.1492 29.4403Z" fill="#FD7248"/>
</g>
<defs>
<clipPath id="clip0_1762_2266">
<rect width="21.7143" height="21.7143" fill="white" transform="translate(9.14307 9.14282)"/>
</clipPath>
</defs>
</svg>
