<svg width="36" height="36" viewBox="0 0 36 36" fill="none" xmlns="http://www.w3.org/2000/svg">
<circle cx="18" cy="18" r="18" fill="#30B0C7" fill-opacity="0.15"/>
<path d="M25.3332 18V27.1667H10.6665V18" stroke="#30B0C7" stroke-width="1.5" stroke-linecap="round" stroke-linejoin="round"/>
<path d="M27.1668 13.418H8.8335V18.0013H27.1668V13.418Z" stroke="#30B0C7" stroke-width="1.5" stroke-linecap="round" stroke-linejoin="round"/>
<path d="M18 27.168V13.418" stroke="#30B0C7" stroke-width="1.5" stroke-linecap="round" stroke-linejoin="round"/>
<path d="M18.0002 13.4154H13.8752C13.2674 13.4154 12.6845 13.1739 12.2547 12.7442C11.8249 12.3144 11.5835 11.7315 11.5835 11.1237C11.5835 10.5159 11.8249 9.93302 12.2547 9.50324C12.6845 9.07347 13.2674 8.83203 13.8752 8.83203C17.0835 8.83203 18.0002 13.4154 18.0002 13.4154Z" stroke="#30B0C7" stroke-width="1.5" stroke-linecap="round" stroke-linejoin="round"/>
<path d="M18 13.4154H22.125C22.7328 13.4154 23.3157 13.1739 23.7455 12.7442C24.1752 12.3144 24.4167 11.7315 24.4167 11.1237C24.4167 10.5159 24.1752 9.93302 23.7455 9.50324C23.3157 9.07347 22.7328 8.83203 22.125 8.83203C18.9167 8.83203 18 13.4154 18 13.4154Z" stroke="#30B0C7" stroke-width="1.5" stroke-linecap="round" stroke-linejoin="round"/>
</svg>
