<svg width="40" height="40" viewBox="0 0 40 40" fill="none" xmlns="http://www.w3.org/2000/svg">
<rect width="40" height="40" rx="20" fill="#F9E9E9"/>
<path d="M17.7954 15.8751H18.5379L18.1667 14.8896L17.7954 15.8751Z" fill="#C52127"/>
<path d="M20.4583 24.5834C20.4583 23.2462 20.9895 21.9639 21.935 21.0184C22.8805 20.0729 24.1629 19.5417 25.5 19.5417V11.2917C25.5 10.8055 25.6932 10.3392 26.037 9.99534C26.3808 9.65153 26.8471 9.45837 27.3333 9.45837H12.2083C11.7221 9.45837 11.2558 9.65153 10.912 9.99534C10.5682 10.3392 10.375 10.8055 10.375 11.2917V30.5417H25.5V29.625C24.1629 29.625 22.8805 29.0939 21.935 28.1484C20.9895 27.2029 20.4583 25.9205 20.4583 24.5834ZM20.5088 13.7896C20.4643 13.6828 20.4618 13.5631 20.502 13.4545C20.5421 13.346 20.6218 13.2566 20.7251 13.2044C20.8283 13.1522 20.9475 13.141 21.0587 13.173C21.1699 13.205 21.2649 13.278 21.3246 13.3771L21.8333 14.39L22.3421 13.3771C22.4018 13.278 22.4967 13.205 22.6079 13.173C22.7191 13.141 22.8383 13.1522 22.9416 13.2044C23.0449 13.2566 23.1246 13.346 23.1647 13.4545C23.2048 13.5631 23.2024 13.6828 23.1579 13.7896L22.3467 15.4167L23.1579 17.0438C23.1931 17.1136 23.2098 17.1912 23.2065 17.2692C23.2033 17.3473 23.1801 17.4232 23.1392 17.4898C23.0984 17.5564 23.0411 17.6114 22.973 17.6497C22.9049 17.6879 22.8281 17.7081 22.75 17.7084C22.3879 17.7084 22.3558 17.4884 21.8333 16.4434C21.2925 17.5296 21.2742 17.7084 20.9167 17.7084C20.8385 17.7081 20.7618 17.6879 20.6936 17.6497C20.6255 17.6114 20.5683 17.5564 20.5274 17.4898C20.4866 17.4232 20.4634 17.3473 20.4601 17.2692C20.4569 17.1912 20.4736 17.1136 20.5088 17.0438L21.32 15.4167L20.5088 13.7896ZM13.125 13.125H15.875C15.9966 13.125 16.1131 13.1733 16.1991 13.2593C16.285 13.3452 16.3333 13.4618 16.3333 13.5834C16.3333 13.7049 16.285 13.8215 16.1991 13.9075C16.1131 13.9934 15.9966 14.0417 15.875 14.0417H14.9583V17.25C14.9583 17.3716 14.91 17.4882 14.8241 17.5741C14.7381 17.6601 14.6216 17.7084 14.5 17.7084C14.3784 17.7084 14.2619 17.6601 14.1759 17.5741C14.09 17.4882 14.0417 17.3716 14.0417 17.25V14.0417H13.125C13.0034 14.0417 12.8869 13.9934 12.8009 13.9075C12.715 13.8215 12.6667 13.7049 12.6667 13.5834C12.6667 13.4618 12.715 13.3452 12.8009 13.2593C12.8869 13.1733 13.0034 13.125 13.125 13.125ZM12.6667 20.4584H16.3333C16.4549 20.4584 16.5715 20.5067 16.6574 20.5926C16.7434 20.6786 16.7917 20.7952 16.7917 20.9167C16.7917 21.0383 16.7434 21.1548 16.6574 21.2408C16.5715 21.3268 16.4549 21.375 16.3333 21.375H12.6667C12.5451 21.375 12.4285 21.3268 12.3426 21.2408C12.2566 21.1548 12.2083 21.0383 12.2083 20.9167C12.2083 20.7952 12.2566 20.6786 12.3426 20.5926C12.4285 20.5067 12.5451 20.4584 12.6667 20.4584ZM19.0833 28.25H12.6667C12.5451 28.25 12.4285 28.2018 12.3426 28.1158C12.2566 28.0298 12.2083 27.9133 12.2083 27.7917C12.2083 27.6702 12.2566 27.5536 12.3426 27.4676C12.4285 27.3817 12.5451 27.3334 12.6667 27.3334H19.0833C19.2049 27.3334 19.3215 27.3817 19.4074 27.4676C19.4934 27.5536 19.5417 27.6702 19.5417 27.7917C19.5417 27.9133 19.4934 28.0298 19.4074 28.1158C19.3215 28.2018 19.2049 28.25 19.0833 28.25ZM19.0833 25.9584H12.6667C12.5451 25.9584 12.4285 25.9101 12.3426 25.8241C12.2566 25.7382 12.2083 25.6216 12.2083 25.5C12.2083 25.3785 12.2566 25.2619 12.3426 25.176C12.4285 25.09 12.5451 25.0417 12.6667 25.0417H19.0833C19.2049 25.0417 19.3215 25.09 19.4074 25.176C19.4934 25.2619 19.5417 25.3785 19.5417 25.5C19.5417 25.6216 19.4934 25.7382 19.4074 25.8241C19.3215 25.9101 19.2049 25.9584 19.0833 25.9584ZM19.0833 23.6667H12.6667C12.5451 23.6667 12.4285 23.6184 12.3426 23.5325C12.2566 23.4465 12.2083 23.3299 12.2083 23.2084C12.2083 23.0868 12.2566 22.9702 12.3426 22.8843C12.4285 22.7983 12.5451 22.75 12.6667 22.75H19.0833C19.2049 22.75 19.3215 22.7983 19.4074 22.8843C19.4934 22.9702 19.5417 23.0868 19.5417 23.2084C19.5417 23.3299 19.4934 23.4465 19.4074 23.5325C19.3215 23.6184 19.2049 23.6667 19.0833 23.6667ZM19.1108 17.4105L18.8817 16.7917H17.4517L17.2225 17.4105C17.18 17.5247 17.0938 17.6174 16.9829 17.6681C16.872 17.7188 16.7455 17.7234 16.6312 17.6809C16.517 17.6383 16.4243 17.5521 16.3736 17.4413C16.3229 17.3304 16.3183 17.2039 16.3608 17.0896L17.7358 13.423C17.7679 13.3345 17.8265 13.258 17.9036 13.204C17.9807 13.15 18.0725 13.121 18.1667 13.121C18.2608 13.121 18.3526 13.15 18.4297 13.204C18.5068 13.258 18.5654 13.3345 18.5975 13.423L19.9725 17.0896C20.015 17.2039 20.0105 17.3304 19.9597 17.4413C19.909 17.5521 19.8163 17.6383 19.7021 17.6809C19.5878 17.7234 19.4613 17.7188 19.3505 17.6681C19.2396 17.6174 19.1534 17.5247 19.1108 17.4105Z" fill="#C52127"/>
<path d="M26.4167 11.75V13.125H29.1667V11.75C29.1667 11.3853 29.0218 11.0356 28.7639 10.7777C28.5061 10.5199 28.1563 10.375 27.7917 10.375C27.427 10.375 27.0773 10.5199 26.8194 10.7777C26.5615 11.0356 26.4167 11.3853 26.4167 11.75ZM25.5 20.4583C24.6842 20.4583 23.8866 20.7003 23.2083 21.1535C22.5299 21.6068 22.0012 22.251 21.689 23.0048C21.3768 23.7585 21.2951 24.5879 21.4543 25.3881C21.6134 26.1883 22.0063 26.9233 22.5832 27.5001C23.1601 28.077 23.8951 28.4699 24.6953 28.6291C25.4954 28.7882 26.3248 28.7065 27.0786 28.3943C27.8323 28.0821 28.4766 27.5534 28.9298 26.8751C29.3831 26.1967 29.625 25.3992 29.625 24.5833C29.625 23.4893 29.1904 22.4401 28.4168 21.6665C27.6432 20.8929 26.594 20.4583 25.5 20.4583ZM23.2083 23.2083C23.2083 23.027 23.2621 22.8498 23.3628 22.6991C23.4635 22.5483 23.6067 22.4308 23.7742 22.3614C23.9417 22.2921 24.126 22.2739 24.3038 22.3093C24.4817 22.3447 24.645 22.432 24.7732 22.5602C24.9014 22.6884 24.9887 22.8517 25.0241 23.0295C25.0594 23.2073 25.0413 23.3916 24.9719 23.5591C24.9025 23.7266 24.785 23.8698 24.6343 23.9705C24.4835 24.0712 24.3063 24.125 24.125 24.125C23.8819 24.125 23.6487 24.0284 23.4768 23.8565C23.3049 23.6846 23.2083 23.4514 23.2083 23.2083ZM24.3908 26.7054C24.3149 26.8014 24.2039 26.8634 24.0822 26.8775C23.9606 26.8917 23.8383 26.857 23.7423 26.781C23.6463 26.7051 23.5843 26.5941 23.5702 26.4724C23.556 26.3508 23.5907 26.2285 23.6667 26.1325L26.6 22.4658C26.676 22.3686 26.7875 22.3055 26.91 22.2905C27.0324 22.2754 27.1559 22.3097 27.2531 22.3856C27.3504 22.4616 27.4135 22.5731 27.4285 22.6956C27.4435 22.8181 27.4093 22.9415 27.3333 23.0387L24.3908 26.7054ZM26.875 26.875C26.6937 26.875 26.5165 26.8212 26.3657 26.7205C26.215 26.6198 26.0975 26.4766 26.0281 26.3091C25.9587 26.1416 25.9406 25.9573 25.9759 25.7795C26.0113 25.6017 26.0986 25.4383 26.2268 25.3102C26.355 25.182 26.5184 25.0947 26.6962 25.0593C26.874 25.0239 27.0583 25.0421 27.2258 25.1114C27.3933 25.1808 27.5365 25.2983 27.6372 25.4491C27.7379 25.5998 27.7917 25.777 27.7917 25.9583C27.7917 26.2014 27.6951 26.4346 27.5232 26.6065C27.3513 26.7784 27.1181 26.875 26.875 26.875Z" fill="#C52127"/>
</svg>
