<svg width="40" height="40" viewBox="0 0 40 40" fill="none" xmlns="http://www.w3.org/2000/svg">
<rect width="40" height="40" rx="20" fill="#2CB9B0" fill-opacity="0.15"/>
<path d="M26.0633 13.3635V19.1018C26.0633 19.6908 25.5859 20.1682 24.9969 20.1682H22.4375L22.4426 13.3584H26.0633V13.3635Z" fill="#2CB9B0"/>
<path d="M19.726 13.354L19.7209 20.1638H17.1006C16.5115 20.1638 16.0342 19.6864 16.0342 19.0974V13.354H19.726Z" fill="#2CB9B0"/>
<path d="M26.7234 10.8959C26.4695 10.6369 26.1191 10.4896 25.7535 10.4896H24.6262L24.7785 10.3322C25.2965 9.82946 25.3066 9.00173 24.8039 8.48884C24.3012 7.97087 23.4734 7.96071 22.9605 8.46345C22.9555 8.46852 22.9453 8.47868 22.9402 8.48376L21.0816 10.3322L19.7207 8.96618C19.477 8.72243 19.1469 8.58024 18.8016 8.58024C18.0805 8.58024 17.4965 9.16423 17.4965 9.88532C17.4965 10.0884 17.5422 10.2916 17.6336 10.4693H16.3539H16.3488C15.5922 10.4693 14.9777 11.0838 14.9777 11.8404L14.9727 13.3537C14.9727 13.5213 15.1098 13.6584 15.2773 13.6584H15.7293V19.097C15.7293 19.8537 16.3437 20.4681 17.1004 20.4681H24.9918C25.7484 20.4681 26.3629 19.8537 26.3629 19.097V13.6584H26.8098C26.9773 13.6584 27.1145 13.5213 27.1145 13.3537L27.1195 11.8658C27.1246 11.5002 26.9824 11.1498 26.7234 10.8959ZM23.3719 8.9154C23.6461 8.64626 24.0828 8.64626 24.357 8.92048C24.6262 9.1947 24.6262 9.63141 24.352 9.90563L23.7832 10.4845H21.7977L23.3719 8.9154ZM18.3039 9.39274C18.4359 9.26071 18.6086 9.18962 18.7965 9.18962C18.9793 9.18962 19.157 9.26071 19.2891 9.39274L20.3707 10.4744L18.3902 10.4541L18.3039 10.3677C18.0348 10.1037 18.0348 9.66696 18.3039 9.39274ZM19.4211 19.8638H17.1055C16.684 19.8638 16.3438 19.5236 16.3438 19.1021V13.6584H19.4262L19.4211 19.8638ZM19.4211 13.049H15.582V11.8404C15.582 11.4189 15.9223 11.0787 16.3438 11.0787L19.416 11.0838L19.4211 13.049ZM22.1328 19.8638H20.0254L20.0305 13.6634H22.1379L22.1328 19.8638ZM22.1379 13.049H20.0305V11.0888L22.1379 11.0939V13.049ZM25.7586 19.097C25.7586 19.5185 25.4184 19.8587 24.9969 19.8587H22.7422L22.7473 13.6584H25.7586V19.097ZM26.5102 13.049H22.7473V11.0939L25.7535 11.099C26.175 11.099 26.5152 11.4443 26.5152 11.8658L26.5102 13.049Z" fill="#2CB9B0"/>
<path d="M29.9988 23.0607L25.6773 25.3865C25.591 24.8533 25.3219 24.3861 24.9359 24.0459C24.5348 23.6955 24.0117 23.4822 23.4379 23.4822H22.7625H20.391C19.8426 23.4822 19.3043 23.3603 18.8168 23.1216L18.502 22.9693C16.7906 22.1416 14.7645 22.3396 13.2461 23.4822L12.4895 24.1576C12.0781 24.5181 7.55859 26.8287 7.55859 26.8287L10.6715 31.592L15.2469 28.9767C15.6277 28.7634 16.0695 28.7076 16.491 28.8142L21.0664 29.6572C22.2395 29.8705 23.448 29.6978 24.5145 29.1697L32.4363 23.731C31.9336 22.8881 30.8621 22.5935 29.9988 23.0607Z" fill="#2CB9B0"/>
<path d="M32.7002 23.5698C32.1112 22.5897 30.862 22.2495 29.8514 22.7928L29.6889 22.8792C29.1557 22.2139 28.2163 21.9499 27.5053 22.3104C27.5053 22.3104 27.5002 22.3104 27.5002 22.3155L27.16 22.4983C26.3983 21.8382 25.2913 21.7264 24.4127 22.2342L22.6862 23.1737H20.3909C20.3909 23.1737 20.3909 23.1737 20.3858 23.1737C19.8932 23.1737 19.3905 23.0569 18.9436 22.8436L18.6288 22.6913C16.8108 21.8128 14.6729 22.021 13.0581 23.2346C13.053 23.2397 13.0428 23.2448 13.0377 23.2499L12.2811 23.9253C12.0069 24.169 9.14789 25.6721 7.41625 26.5608C7.34008 26.6014 7.28422 26.6725 7.25883 26.7538C7.23852 26.835 7.24868 26.9264 7.29946 26.9975L10.4123 31.7608C10.4682 31.8522 10.5698 31.8979 10.6663 31.8979C10.717 31.8979 10.7678 31.8827 10.8186 31.8573L15.394 29.2421C15.7038 29.0694 16.0694 29.0186 16.4147 29.1049C16.4198 29.1049 16.4248 29.11 16.435 29.11L21.0155 29.953C22.2444 30.1764 23.5342 29.9936 24.6565 29.4401C24.6717 29.435 24.6819 29.4249 24.692 29.4198L32.6139 23.9811C32.7459 23.8897 32.7866 23.7069 32.7002 23.5698ZM27.7846 22.8538C28.2061 22.6405 28.7799 22.7928 29.1405 23.1737L25.8752 24.9307C25.7788 24.6362 25.6264 24.362 25.4284 24.1182L27.7846 22.8538ZM24.7073 22.7675L24.7123 22.7624C25.3014 22.4221 26.0174 22.4526 26.5709 22.8132L24.9713 23.6764C24.6514 23.4378 24.2807 23.2803 23.8897 23.2092L24.7073 22.7675ZM24.367 28.9018C23.3717 29.3893 22.219 29.5518 21.1272 29.3538L16.5569 28.5108C16.0592 28.3889 15.5413 28.46 15.0944 28.7089L10.7678 31.1819L8.00024 26.9467C9.16821 26.3475 12.3166 24.7174 12.6924 24.3823L13.4389 23.7171C14.8709 22.6456 16.76 22.4628 18.3698 23.2448L18.6846 23.3971C19.2127 23.651 19.8018 23.7882 20.3909 23.7882H20.3959H23.4428C23.9202 23.7882 24.3772 23.9608 24.7377 24.2757C25.078 24.5753 25.3014 24.9815 25.3776 25.4284L23.1229 25.3268C22.3256 25.2913 21.5182 25.3268 20.726 25.4385C20.5584 25.4639 20.4416 25.6163 20.467 25.7839C20.4924 25.9514 20.6448 26.0682 20.8123 26.0428C21.569 25.9362 22.3358 25.9007 23.0975 25.9362L25.6975 26.053H25.7127C25.7889 26.053 25.8651 26.0225 25.9209 25.9667C25.9819 25.9108 26.0174 25.8296 26.0174 25.7483C26.0174 25.6874 26.0174 25.6264 26.0123 25.5604L30.151 23.3311C30.7858 22.9858 31.5577 23.1382 32.0198 23.6561L24.367 28.9018Z" fill="#2CB9B0"/>
</svg>
