<svg width="40" height="40" viewBox="0 0 40 40" fill="none" xmlns="http://www.w3.org/2000/svg">
<rect width="40" height="40" rx="20" fill="#0D99FF" fill-opacity="0.15"/>
<g clip-path="url(#clip0_3709_7374)">
<path d="M23.3832 26.6926C23.383 25.8654 22.7281 25.1869 21.9014 25.1574V25.1562H28.5111C29.4737 25.1564 30.254 25.9367 30.2542 26.8993V30.746C30.254 31.2403 30.633 31.6519 31.1256 31.6929H25.1261C24.1635 31.6931 23.383 30.9126 23.3832 29.9498V26.6926Z" fill="#0D99FF"/>
<path d="M23.3827 29.0711H18.8721V29.0701C19.6889 28.9864 20.3102 28.2983 20.3104 27.477V26.6926C20.3102 25.8443 20.9979 25.1562 21.8464 25.1562C21.8646 25.1562 21.8825 25.1568 21.9009 25.1574C22.7276 25.1869 23.3825 25.8655 23.3827 26.6926V29.0711Z" fill="#0D99FF"/>
<path d="M18.3403 8.30322C18.8593 8.30342 19.2798 8.72415 19.2796 9.24314V10.2873H8.83789V9.24314C8.83789 8.72396 9.25863 8.30322 9.7778 8.30322H18.3403Z" fill="#0D99FF"/>
<path d="M17.1084 24.0603V15.5469C17.6256 15.5469 17.6256 15.8954 18.1431 15.8954C18.6605 15.8954 18.6605 15.5469 19.1779 15.5469C19.2121 15.5467 19.2461 15.5484 19.2798 15.5519C19.6979 15.5943 19.7317 15.8954 20.2128 15.8954C20.7302 15.8954 20.7302 15.5469 21.2476 15.5469C21.7651 15.5469 21.7651 15.8954 22.2825 15.8954C22.7999 15.8954 22.7999 15.5469 23.3179 15.5469C23.8357 15.5469 23.8354 15.8954 24.3528 15.8954C24.87 15.8954 24.8706 15.5469 25.388 15.5469V25.1771H21.9017V25.1783C21.8833 25.1777 21.8654 25.1771 21.8472 25.1771C20.9987 25.1771 20.311 25.8652 20.3112 26.7135V27.4979C20.3112 28.3823 19.5942 29.0993 18.7098 29.0993C17.8252 29.0993 17.1084 28.3823 17.1084 27.4979V24.0603Z" fill="#0D99FF"/>
<path d="M18.1429 15.8944C17.6254 15.8944 17.6254 15.5459 17.1082 15.5459V24.0593H8.83789V10.2966H19.2796V15.5509C19.2459 15.5474 19.2119 15.5457 19.1777 15.5459C18.6603 15.5459 18.6603 15.8944 18.1429 15.8944Z" fill="#0D99FF"/>
<path d="M17.1082 24.0532V27.1021H9.7778C9.25863 27.1021 8.8377 26.6813 8.83789 26.1622V24.0532H17.1082Z" fill="#0D99FF"/>
<path d="M15.0227 25.2749H13.0912C12.9265 25.2749 12.793 25.4083 12.793 25.5732C12.793 25.7378 12.9265 25.8714 13.0912 25.8714H15.0227C15.1873 25.8714 15.3209 25.7378 15.3209 25.5732C15.3209 25.4083 15.1873 25.2749 15.0227 25.2749Z" fill="#FDE7F2"/>
<path d="M31.2042 31.4002H31.1418C30.8081 31.3672 30.5533 31.087 30.552 30.7515V26.9049C30.5506 25.778 29.6375 24.8649 28.5106 24.8635H25.6854V15.5315C25.6854 15.3669 25.5519 15.2333 25.3872 15.2333C25.1406 15.2302 24.8999 15.3094 24.7032 15.4583C24.589 15.5354 24.5199 15.5818 24.352 15.5818C24.1838 15.5818 24.1153 15.5354 24.0011 15.4585C23.5944 15.1584 23.0395 15.1584 22.6325 15.4585C22.5184 15.5354 22.4492 15.5818 22.2817 15.5818C22.1141 15.5818 22.045 15.5354 21.9308 15.4585C21.5243 15.1584 20.9696 15.1584 20.5628 15.4585C20.4485 15.5354 20.3797 15.5818 20.212 15.5818C20.0444 15.5818 19.9753 15.5354 19.8611 15.4585C19.7732 15.3952 19.6778 15.3426 19.5773 15.302V9.23814C19.5767 8.55471 19.023 8.00097 18.3397 8H9.7772C9.09377 8.00078 8.53984 8.55471 8.53906 9.23814V26.1539C8.53984 26.8373 9.09357 27.3912 9.7772 27.392H16.8094V27.4825C16.809 28.0143 17.0319 28.5218 17.4235 28.8814C17.8153 29.2411 18.3397 29.42 18.8696 29.3745H23.0845V29.9553C23.0843 31.0827 23.9982 31.9966 25.1257 31.9964H31.116C31.144 31.9986 31.1727 31.9999 31.2042 31.9999C31.3698 31.9999 31.5041 31.8658 31.5041 31.7C31.5041 31.5343 31.3698 31.4 31.2042 31.4V31.4002ZM17.1076 15.2333C16.9428 15.2333 16.8094 15.3669 16.8094 15.5315V23.7467H9.13551V10.5805H18.9808V15.2487C18.8041 15.2791 18.637 15.3512 18.4933 15.4585C18.3789 15.5354 18.31 15.5818 18.1423 15.5818C17.9747 15.5818 17.9058 15.5354 17.7914 15.4585C17.5949 15.3094 17.3542 15.2302 17.1076 15.2333ZM9.7772 8.59645H18.3397C18.6939 8.59684 18.9806 8.884 18.9808 9.23814V9.98409H9.13551V9.23814C9.1359 8.8838 9.42286 8.59684 9.7772 8.59645ZM9.7772 26.7956C9.42286 26.7952 9.1359 26.5082 9.13551 26.1539V24.3432H16.8094V26.7956H9.7772ZM17.4058 27.4825V15.9183C17.4225 15.929 17.4398 15.9408 17.4582 15.9531C17.865 16.253 18.4197 16.253 18.8265 15.9531C18.9406 15.8762 19.0096 15.8296 19.1771 15.8296C19.201 15.8296 19.2249 15.8305 19.2486 15.8331H19.2491C19.3678 15.8451 19.428 15.8857 19.528 15.9529C19.9345 16.253 20.4894 16.253 20.896 15.9529C21.0103 15.876 21.0793 15.8296 21.2468 15.8296C21.4146 15.8296 21.4835 15.876 21.5977 15.9529C22.0044 16.253 22.5589 16.253 22.9657 15.9529C23.0799 15.8758 23.149 15.8294 23.3171 15.8294C23.4851 15.8294 23.5536 15.8758 23.668 15.9529C24.0747 16.2528 24.6296 16.2528 25.0364 15.9529C25.0548 15.9404 25.0723 15.9288 25.089 15.9181V24.8635H21.9009C21.8963 24.8635 21.8918 24.8641 21.8872 24.8643C21.8736 24.8639 21.86 24.8635 21.8464 24.8635C20.8331 24.8635 20.012 25.685 20.0122 26.6981V27.4825C20.0145 28.1517 19.5076 28.713 18.8416 28.7789C18.4748 28.8165 18.1092 28.6969 17.8355 28.45C17.5617 28.2028 17.4056 27.8512 17.4058 27.4825ZM20.1007 28.7783C20.4283 28.4265 20.6098 27.9632 20.6086 27.4825V26.6981C20.6086 26.3628 20.7445 26.0416 20.9857 25.8083C21.2268 25.5751 21.5522 25.4497 21.8875 25.4607H21.8905C22.5578 25.4819 23.087 26.0304 23.0845 26.6981V28.7783H20.1007ZM24.104 30.9771C23.8322 30.7066 23.6798 30.3387 23.681 29.9553V26.6981C23.6823 26.2401 23.5117 25.7984 23.203 25.4599H28.5106C29.3082 25.4609 29.9548 26.1073 29.9555 26.9049V30.7515C29.9557 30.9806 30.0192 31.205 30.1394 31.4002H25.1257C24.7424 31.4013 24.3743 31.2489 24.104 30.9771Z" fill="#E7F5FF"/>
<path d="M19.7285 19.08C19.7285 19.2448 19.8621 19.3782 20.0267 19.3782H23.94C24.1046 19.3782 24.2382 19.2448 24.2382 19.08C24.2382 18.9153 24.1046 18.7817 23.94 18.7817H20.0267C19.8621 18.7817 19.7285 18.9153 19.7285 19.08Z" fill="#E7F5FF"/>
<path d="M18.556 19.3779H19.1898C19.3544 19.3779 19.488 19.2446 19.488 19.0797C19.488 18.9151 19.3544 18.7815 19.1898 18.7815H18.556C18.3914 18.7815 18.2578 18.9151 18.2578 19.0797C18.2578 19.2446 18.3914 19.3779 18.556 19.3779Z" fill="#0D99FF"/>
<path d="M23.94 20.4692H20.0267C19.8621 20.4692 19.7285 20.6028 19.7285 20.7675C19.7285 20.9321 19.8621 21.0657 20.0267 21.0657H23.94C24.1046 21.0657 24.2382 20.9321 24.2382 20.7675C24.2382 20.6028 24.1046 20.4692 23.94 20.4692Z" fill="#E7F5FF"/>
<path d="M18.556 21.0654H19.1898C19.3544 21.0654 19.488 20.9319 19.488 20.7672C19.488 20.6026 19.3544 20.469 19.1898 20.469H18.556C18.3914 20.469 18.2578 20.6026 18.2578 20.7672C18.2578 20.9319 18.3914 21.0654 18.556 21.0654Z" fill="#0D99FF"/>
<path d="M23.94 22.1118H20.0267C19.8621 22.1118 19.7285 22.2454 19.7285 22.4101C19.7285 22.5747 19.8621 22.7083 20.0267 22.7083H23.94C24.1046 22.7083 24.2382 22.5747 24.2382 22.4101C24.2382 22.2454 24.1046 22.1118 23.94 22.1118Z" fill="#E7F5FF"/>
<path d="M19.488 22.4103C19.488 22.2457 19.3544 22.1121 19.1898 22.1121H18.556C18.3914 22.1121 18.2578 22.2457 18.2578 22.4103C18.2578 22.575 18.3914 22.7086 18.556 22.7086H19.1898C19.3544 22.7086 19.488 22.575 19.488 22.4103Z" fill="#0D99FF"/>
<path d="M18.556 17.7151H21.3558C21.5206 17.7151 21.654 17.5817 21.654 17.4169C21.654 17.2522 21.5206 17.1187 21.3558 17.1187H18.556C18.3914 17.1187 18.2578 17.2522 18.2578 17.4169C18.2578 17.5817 18.3914 17.7151 18.556 17.7151Z" fill="#0D99FF"/>
<path d="M25.5019 27.2482C25.7092 27.2482 25.8774 27.4161 25.8778 27.6233C25.8778 27.7881 26.0113 27.9215 26.176 27.9215C26.3406 27.9215 26.4742 27.7881 26.4742 27.6233C26.4734 27.2017 26.2014 26.8284 25.8001 26.6989V26.5795C25.8001 26.4148 25.6667 26.2812 25.5019 26.2812C25.3372 26.2812 25.2037 26.4148 25.2037 26.5795V26.6989C24.7486 26.8457 24.4678 27.3019 24.5422 27.7745C24.6165 28.2469 25.0237 28.595 25.5019 28.595C25.7092 28.595 25.8772 28.763 25.8772 28.9703C25.8772 29.1775 25.7092 29.3456 25.5019 29.3456C25.2947 29.3456 25.1268 29.1775 25.1268 28.9703C25.1268 28.8055 24.9932 28.6721 24.8285 28.6721C24.6637 28.6721 24.5303 28.8055 24.5303 28.9703C24.5309 29.3918 24.8027 29.765 25.2037 29.8947V30.045C25.2037 30.2096 25.3372 30.3432 25.5019 30.3432C25.6667 30.3432 25.8001 30.2096 25.8001 30.045V29.8949C26.2558 29.7483 26.5369 29.2918 26.4626 28.8191C26.3882 28.3463 25.9805 27.9982 25.5019 27.9986C25.2947 27.9986 25.1268 27.8306 25.1268 27.6233C25.1268 27.4161 25.2947 27.2482 25.5019 27.2482Z" fill="#E7F5FF"/>
<path d="M28.6582 29.3748H27.5433C27.3787 29.3748 27.2451 29.5081 27.2451 29.673C27.2451 29.8376 27.3787 29.9712 27.5433 29.9712H28.6582C28.8228 29.9712 28.9564 29.8376 28.9564 29.673C28.9564 29.5081 28.8228 29.3748 28.6582 29.3748Z" fill="#E7F5FF"/>
<path d="M28.6592 28.0376H27.5443C27.3797 28.0376 27.2461 28.171 27.2461 28.3358C27.2461 28.5005 27.3797 28.634 27.5443 28.634H28.6592C28.8238 28.634 28.9574 28.5005 28.9574 28.3358C28.9574 28.171 28.8238 28.0376 28.6592 28.0376Z" fill="#E7F5FF"/>
<path d="M28.6592 26.6782H27.5443C27.3797 26.6782 27.2461 26.8118 27.2461 26.9764C27.2461 27.1413 27.3797 27.2747 27.5443 27.2747H28.6592C28.8238 27.2747 28.9574 27.1413 28.9574 26.9764C28.9574 26.8118 28.8238 26.6782 28.6592 26.6782Z" fill="#E7F5FF"/>
<circle cx="15.5" cy="9.5" r="0.5" fill="#E7F5FF"/>
</g>
<defs>
<clipPath id="clip0_3709_7374">
<rect width="24" height="24" fill="white" transform="translate(8 8)"/>
</clipPath>
</defs>
</svg>
