<svg width="238" height="198" viewBox="0 0 238 198" fill="none" xmlns="http://www.w3.org/2000/svg">
<path d="M233.138 110.6C233.138 110.6 219.758 91.7333 237.999 77.0952C237.999 77.0952 214.558 83.2781 203.165 54.7625C203.165 54.7625 192.221 69.4423 177.666 57.1404C177.666 57.1404 176.487 71.6389 156.493 71.9324C156.493 71.9324 165.462 90.678 141.203 100.856C141.203 100.856 162.81 104.445 159.949 130.586C159.949 130.586 184.723 120.334 199.425 139.886C199.425 139.886 205.379 128.828 220.008 131.025C220.007 131.026 217.599 115.948 233.138 110.6Z" fill="#FEF0F1"/>
<path d="M111.416 144.507C111.416 144.507 95.2018 121.642 117.309 103.905C117.309 103.905 88.9095 111.397 75.0939 76.8395C75.0939 76.8395 61.8297 94.6304 44.1889 79.7223C44.1889 79.7223 42.7642 97.2927 18.5312 97.6475C18.5312 97.6475 29.4004 120.365 0 132.701C0 132.701 26.1907 137.05 22.7178 168.73C22.7178 168.73 52.7415 156.307 70.5603 180C70.5603 180 77.7759 166.6 95.5056 169.262C95.5043 169.262 92.5893 150.989 111.416 144.507Z" fill="#FEF0F1"/>
<path d="M144.388 53.1306C144.388 53.1306 131.661 35.1788 148.999 21.2515C148.999 21.2515 126.726 27.1373 115.89 0C115.89 0 105.488 13.9696 91.6528 2.26236C91.6528 2.26236 90.5351 16.0573 71.5305 16.3387C71.5305 16.3387 80.0553 34.1801 56.9985 43.8604C56.9985 43.8604 77.5395 47.276 74.8153 72.151C74.8153 72.151 98.3608 62.4026 112.336 81C112.336 81 117.994 70.4791 131.899 72.5686C131.912 72.5686 129.621 58.22 144.388 53.1306Z" fill="#FEF0F1"/>
<g clip-path="url(#clip0_3711_2698)">
<path d="M114.076 109.665C114.21 109.467 114.359 109.281 114.521 109.106C116.638 106.789 119.049 104.63 121.018 102.205C121.432 101.684 121.842 101.148 122.204 100.595C122.369 98.1361 122.595 95.6769 122.922 93.1981C123.313 90.1897 123.805 87.6879 124.781 85.2631C125.464 83.5853 126.349 81.996 127.416 80.53C128.572 78.9345 129.999 77.5524 131.633 76.4462L131.594 76.0494C133.786 73.3873 136.311 71.0139 139.106 68.9866C141.386 67.3308 143.54 65.7373 145.666 63.9503C145.985 63.6781 146.305 63.406 146.618 63.1305C147.781 62.1206 149.273 61.273 150.804 61.514C151.967 61.6927 152.373 62.3698 153.192 63.0223C154.403 63.9863 155.777 64.6847 157.136 65.4471C157.456 65.6258 157.777 65.8045 158.105 65.975C164.07 69.2703 170.285 72.3475 175.357 76.938C185.602 86.2632 190.333 100.476 192.872 113.68C197.939 139.962 193.55 166.819 193.223 193.467C178.5 194.057 155 194.057 133.754 194.057C133.645 189.604 133.535 185.075 133.442 182.745L133.278 182.232C127.265 184.112 122.127 180.592 118.989 175.431C118.224 174.137 117.646 172.744 117.27 171.29C116.521 168.616 116.224 165.749 115.709 163.093C115.005 159.486 113.429 156.089 113.295 152.382C113.241 150.782 113.241 149.182 113.279 147.572C113.373 143.31 113.709 139.017 113.74 134.766C113.788 131.012 113.865 127.251 113.99 123.505C114.116 120.164 114.826 116.472 114.521 113.162C114.368 111.499 113.228 110.994 114.076 109.665Z" fill="#C52127"/>
<path d="M158.806 59.704C159.298 61.7534 159.081 63.9077 158.19 65.8192L158.105 65.9831C157.775 65.8192 157.456 65.6339 157.136 65.4552C155.777 64.6929 154.403 63.9945 153.192 63.0305C152.369 62.3747 151.967 61.7009 150.804 61.5222C149.273 61.2812 147.781 62.1288 146.618 63.1387C146.305 63.4108 145.985 63.683 145.672 63.9584C144.098 63.8227 142.538 63.5523 141.01 63.1501C141.643 60.4844 139.762 57.0579 137.607 55.3398C135.452 53.6217 132.897 52.0609 131.937 49.5033C131.095 47.2343 131.696 44.708 132.344 42.3767C132.991 40.0454 133.694 37.5665 133.003 35.2516C132.311 32.9367 129.611 31.012 127.42 32.0694H127.255C126.7 30.6693 125.489 29.3102 124.553 28.2987C123.802 27.4986 123.046 26.7445 122.203 26.2477L122.967 26.1854C124.573 25.1636 126.372 24.4803 128.253 24.1778C130.134 23.8754 132.058 23.9602 133.905 24.427C135.753 24.8938 137.484 25.7327 138.992 26.8918C140.501 28.051 141.755 29.5057 142.676 31.1661C145.824 36.8632 144.567 44.0128 149.265 49.0099C152.52 52.4921 157.612 54.7217 158.806 59.704Z" fill="#1B1D21"/>
<path d="M145.666 63.947C143.541 65.734 141.383 67.3275 139.106 68.9834C136.311 71.0106 133.787 73.384 131.594 76.0461L131.634 76.4429C130 77.5504 128.574 78.9336 127.42 80.53C126.352 81.996 125.467 83.5853 124.784 85.2631C124.003 84.991 123.239 84.6795 122.478 84.3385C122.486 84.1516 122.54 81.2153 121.819 78.8758C121.3 77.363 120.612 75.9133 119.766 74.5542C118.587 78.9807 111.38 88.7289 111.38 88.7289L114.925 85.45C113.956 86.5976 112.987 87.8043 111.902 88.8142C111.192 89.4831 110.543 90.252 109.849 90.9455L109.793 91.1947C108.49 90.9061 107.171 90.6422 105.851 90.3618C104.227 90.0126 103.173 89.706 101.477 90.0585C100.818 90.1995 100.16 90.3864 99.5253 90.5635C98.9553 90.0979 97.7692 89.1027 97.219 88.6224C97.5214 88.4237 97.7554 88.1377 97.8895 87.8026C98.219 86.9091 97.7495 86.2402 96.8665 86.1632C96.0165 86.1009 95.173 85.9222 94.3214 85.8058C94.1418 85.7812 93.9474 85.7435 93.7366 85.6959L93.7514 85.6271C93.2918 85.2451 92.8684 84.9123 92.4862 84.6434C90.5358 83.2745 87.452 83.9876 85.9068 82.5121C83.986 80.7464 88.0153 76.774 84.6811 72.5721C82.9778 70.4966 80.5628 68.3096 78.6288 65.7012C77.9023 64.7175 77.3011 63.7978 76.8793 62.6862C76.825 62.5387 76.7706 62.3846 76.7146 62.2206C76.2393 60.7125 76.0097 59.1384 76.0343 57.558L77.2681 55.8087C78.1824 56.5088 79.3454 56.9908 80.2827 57.3482C82.3749 58.1482 84.6021 58.4958 86.8029 58.8483C90.5918 59.4532 94.7447 59.668 98.4776 58.6302C102.006 57.6466 104.873 55.389 106.52 52.1249L107.62 52.3905C109.831 49.0099 112.068 48.0525 115.664 51.4265C117.608 53.3299 118.135 55.7153 117.717 58.0777L117.773 58.0859C119.216 58.9876 121.044 59.0499 122.738 58.8089C124.431 58.5679 126.072 58.0548 127.782 57.9154C128.657 57.8367 129.611 57.7826 130.477 57.9843C130.648 58.026 130.814 58.0859 130.971 58.163C134.408 60.65 137.664 62.2436 140.997 63.1453C142.527 63.5454 144.089 63.8136 145.666 63.947Z" fill="#FFD6BA"/>
<path d="M77.2763 55.8022L76.0424 57.5514C76.0178 59.1318 76.2475 60.7059 76.7228 62.2141C76.7771 62.378 76.8315 62.5321 76.8875 62.6797C75.8547 65.8993 75.0872 69.1973 74.5928 72.541C74.3649 73.9788 74.2345 75.4302 74.2023 76.8855C74.1002 80.4923 74.4989 84.2139 75.9123 87.378C73.125 84.4876 72.1234 80.1201 71.4645 75.7379C70.7923 71.1835 70.8055 66.4668 71.1202 61.8665C71.3623 58.2597 72.4875 52.6183 75.227 50.8313C76.1577 50.2641 76.1017 48.5082 76.1017 48.5082C75.7278 45.772 76.9386 42.9439 78.3668 40.1995C79.6633 37.6895 82.0058 35.1565 83.9892 33.1367C88.0268 29.0168 92.4466 26.515 97.8581 24.8755C102.23 23.5459 107.274 23.282 111.74 24.3001C113.21 24.628 114.669 25.1477 115.918 26.0018C116.371 26.3051 116.832 26.5461 117.285 26.8216C117.56 26.9933 117.824 27.1828 118.074 27.3888C119.001 28.2005 119.822 29.1247 120.517 30.1398C121.237 31.2284 122.446 32.2711 122.446 32.2711C123.886 33.2548 125.15 34.4705 126.187 35.8681C127.932 38.2321 128.915 41.034 129.095 44.1489C129.26 46.854 128.65 49.6821 129.243 52.3462C129.805 54.7885 131.132 56.9902 133.032 58.6335C132.969 58.5794 132.548 58.6171 132.439 58.6023C132.199 58.5777 131.961 58.5333 131.727 58.4695C131.472 58.3887 131.224 58.2873 130.986 58.1662C130.828 58.0892 130.663 58.0293 130.492 57.9875C129.625 57.7859 128.672 57.84 127.797 57.9187C126.087 58.058 124.44 58.5745 122.753 58.8122C121.066 59.0499 119.231 58.9909 117.788 58.0892L117.732 58.081C118.147 55.7185 117.623 53.3266 115.679 51.4297C112.086 48.0557 109.846 49.0132 107.635 52.3937L106.535 52.1281C104.887 55.3923 102.021 57.6547 98.4923 58.6335C94.7595 59.6745 90.6049 59.4532 86.8177 58.8515C84.6168 58.5007 82.3896 58.1515 80.2975 57.3514C79.3536 56.9842 78.1905 56.5022 77.2763 55.8022Z" fill="#1B1D21"/>
<path d="M127.245 32.0776C127.739 33.3597 127.682 34.6729 126.339 35.768L126.191 35.8845C125.153 34.4869 123.889 33.2712 122.45 32.2875C122.45 32.2875 121.241 31.2382 120.521 30.1562C119.825 29.1411 119.004 28.2168 118.078 27.4052C117.827 27.1991 117.564 27.0096 117.289 26.838L117.663 26.815C117.804 26.3232 118.28 25.9674 118.779 25.8199C119.347 25.6423 119.947 25.5907 120.536 25.6686C121.126 25.7465 121.691 25.952 122.193 26.2707C123.036 26.7625 123.792 27.5216 124.543 28.3217C125.479 29.3185 126.69 30.6776 127.245 32.0776Z" fill="#EFEFEF"/>
<path d="M122.478 84.3385L122.431 84.3237C122.446 84.3316 122.461 84.3366 122.478 84.3385Z" fill="black"/>
<path d="M99.5548 94.9228C100.062 95.008 100.57 95.0867 101.085 95.1408C101.92 95.2343 102.749 95.3195 103.568 95.49C105.841 95.9491 109.791 96.7721 112.15 97.7361C110.472 96.8278 108.543 96.1589 106.801 95.4195C106.148 95.1166 105.465 94.8799 104.764 94.7129C104.086 94.5927 103.398 94.5302 102.709 94.526C101.64 94.4883 100.601 94.7523 99.5548 94.9228ZM85.6941 96.2835C85.1999 95.7392 84.9067 95.0949 85.1176 94.3326C85.5039 93.0005 85.9625 91.6903 86.4914 90.4077C87.0301 89.0962 87.7401 85.9238 89.5917 85.9238L90.7449 85.9091C90.8832 85.809 91.0298 85.7207 91.1831 85.6451C91.87 85.3172 92.893 85.5435 93.7447 85.714C93.9555 85.7615 94.1499 85.7992 94.3295 85.8238C95.1812 85.9402 96.0246 86.1189 96.8746 86.1812C97.7576 86.2583 98.2254 86.9272 97.8976 87.8207C97.7636 88.1557 97.5296 88.4418 97.2271 88.6404C96.8008 88.9251 96.3274 89.1326 95.8286 89.2535C95.0724 89.4404 94.2982 89.5716 93.5404 89.4552C93.4969 89.4414 93.451 89.4363 93.4055 89.4403C93.36 89.4442 93.3157 89.4571 93.2752 89.4782C93.2126 89.5175 93.1978 89.588 93.1665 89.6421C92.893 90.2553 91.8931 92.921 92.5965 93.4128C92.7522 93.5022 92.9251 93.558 93.1039 93.5768C94.0923 93.7702 95.0247 94.4703 95.9933 94.5014C95.1334 94.0588 94.4399 93.3669 94.7512 92.5587C94.8645 92.3177 95.0497 92.1173 95.2816 91.9849C96.1185 91.4406 97.3441 91.2766 98.3045 90.9586C98.7098 90.8258 99.1166 90.7012 99.5301 90.5766C100.171 90.3913 100.827 90.2126 101.482 90.0716C103.177 89.7142 104.232 90.0257 105.856 90.3749C107.174 90.6553 108.492 90.9192 109.798 91.2078C110.869 91.4406 111.94 91.6996 113.009 91.9849C114.374 92.357 116.084 92.5816 117.279 93.3522C118.669 94.2604 119.435 95.8228 119.778 97.4C120.13 99.0165 120.418 100.641 121.02 102.195C119.059 104.628 116.648 106.786 114.531 109.104C114.369 109.279 114.22 109.466 114.086 109.663C113.032 108.009 110.814 108.032 109.065 107.565C106.699 106.943 104.301 106.353 101.858 106.22C99.8662 106.12 98.0393 105.21 96.3129 104.302C95.2042 103.718 93.9078 103.338 92.8535 102.654C91.6114 101.846 90.394 100.999 89.1684 100.167C88.0477 99.3533 86.9736 98.4775 85.9511 97.5442C85.8731 97.4797 85.8091 97.3999 85.7633 97.3098C85.7244 97.211 85.7032 97.1061 85.7007 97C85.6842 96.7655 85.6777 96.5409 85.6612 96.3081L85.6941 96.2835Z" fill="#FFD6BA"/>
<path d="M82.6812 131.914C82.6812 131.386 82.696 130.858 82.696 130.328C92.4334 136.001 103.537 141.9 113.274 147.58C113.236 149.19 113.236 150.79 113.29 152.39C113.424 156.097 115 159.502 115.704 163.101C116.219 165.75 116.516 168.618 117.265 171.298C114.758 169.167 111.284 166.872 108.731 165.232C105.466 163.158 102.233 161.06 98.9849 158.961C92.5982 154.843 85.6794 150.53 79.1987 146.574C79.5956 145.769 79.9422 144.942 80.2366 144.095C80.9087 142.208 81.3617 140.24 81.8065 138.291C82.0634 137.186 82.3138 136.076 82.4654 134.948C82.5913 133.941 82.6634 132.928 82.6812 131.914Z" fill="#C52127"/>
<path d="M82.6962 130.328C82.6962 130.858 82.6962 131.386 82.6813 131.914C82.3471 131.681 82.0265 131.429 81.7209 131.16C82.0241 130.143 82.4771 130.174 82.6962 130.328Z" fill="#8AB4D6"/>
<path d="M57.7553 131.596L58.317 132.263L66.2671 128.417C66.3601 128.37 66.4423 128.305 66.5081 128.225C66.574 128.144 66.6221 128.051 66.6493 127.951L67.1023 126.281L67.0562 126.264C67.0796 126.172 67.0812 126.075 67.0609 125.982C67.0406 125.889 66.999 125.802 66.9392 125.728L55.7637 112.776L58.6992 113.522C59.4743 113.683 60.2271 113.936 60.9412 114.276C64.1816 115.97 67.1418 118.598 69.8896 120.975C72.1113 122.899 74.4044 124.724 76.7689 126.449C78.6353 127.825 79.9944 129.674 81.7208 131.158C82.0263 131.427 82.347 131.679 82.6812 131.912C82.6646 132.923 82.5942 133.932 82.4703 134.935C82.3138 136.063 82.0634 137.173 81.8114 138.278C81.3666 140.227 80.9136 142.195 80.2415 144.082L79.8659 143.951C79.5213 143.773 79.1671 143.615 78.805 143.477C74.5878 141.837 69.3789 142.598 64.9756 142.769C63.0696 142.854 61.9148 142.411 60.2988 141.526C58.5411 140.554 56.6598 139.832 54.9334 138.813C54.0043 138.262 52.3174 137.617 52.0522 136.475C52.0408 136.445 52.0331 136.413 52.0291 136.381C51.9039 135.658 52.1527 134.927 52.3883 134.25C52.6765 133.396 52.9731 132.355 53.3882 131.351C53.8396 130.271 54.4178 129.238 55.2299 128.594C55.3128 128.522 55.4015 128.456 55.4951 128.399C55.8402 128.152 56.1702 127.884 56.4836 127.599C57.2957 126.899 58.2248 126.123 59.1193 126.184C60.6332 126.3 60.1736 128.446 59.7123 129.307C59.4737 129.695 59.17 130.04 58.8145 130.327C58.4539 130.611 58.1447 130.955 57.9003 131.343C57.8574 131.409 57.8097 131.494 57.7553 131.596Z" fill="#FFD6BA"/>
<path d="M79.861 143.952L80.2366 144.083C79.9431 144.932 79.5936 145.76 79.1906 146.562C79.0258 146.656 78.7919 146.539 78.6964 146.383C78.6079 146.219 78.5652 146.034 78.5728 145.847C78.5551 145.314 78.5965 144.78 78.6964 144.255C78.7755 143.751 78.8068 143.487 78.8068 143.487C79.1679 143.619 79.5201 143.774 79.861 143.952Z" fill="#8AB4D6"/>
<path d="M67.1024 126.285L66.6494 127.956C66.6222 128.056 66.5741 128.149 66.5082 128.229C66.4424 128.31 66.3602 128.375 66.2672 128.422L58.3171 132.268L58.7949 130.341C58.8097 130.327 65.829 126.913 65.829 126.913L66.9821 126.354C67.0007 126.347 67.0174 126.335 67.031 126.32C67.0447 126.306 67.055 126.288 67.0612 126.269L67.1024 126.285Z" fill="#778CA0"/>
<path d="M66.9393 125.728C66.999 125.802 67.0407 125.889 67.061 125.982C67.0813 126.075 67.0796 126.172 67.0562 126.264C67.05 126.283 67.0397 126.301 67.026 126.315C67.0124 126.33 66.9957 126.342 66.9772 126.349L65.824 126.908L58.8047 130.322C59.1602 130.035 59.4638 129.69 59.7025 129.302C60.1638 128.441 60.6234 126.295 59.1095 126.179C58.2183 126.125 57.2892 126.894 56.4737 127.594L54.9351 125.774C55.3773 125.161 55.6603 124.448 55.7588 123.7C55.8444 122.852 55.8148 121.298 54.5645 121.469C54.034 121.539 53.6041 121.905 53.1988 122.246C52.9633 122.456 52.7145 122.659 52.4789 122.861L50.7542 120.824C50.9048 120.374 50.9761 119.901 50.965 119.426C50.9486 118.572 50.7064 117.039 49.4973 117.373C49.0838 117.483 48.7477 117.778 48.4512 118.09C48.3178 117.926 48.1777 117.762 48.0361 117.598C47.6539 117.147 47.2783 116.696 46.8961 116.245C46.3344 115.577 45.7644 114.909 45.2026 114.24L43.1171 111.77C42.3445 110.86 41.5703 109.943 40.8108 109.033L38.4453 106.237C37.6875 105.343 36.9379 104.456 36.1884 103.563L34.2116 101.217C33.7042 100.61 33.1886 100.003 32.673 99.3968C32.4704 99.1558 32.2513 98.9049 32.0404 98.6525C31.8839 98.4656 31.51 98.1705 31.4853 97.9213C31.4813 97.9012 31.4815 97.8806 31.4857 97.8606C31.49 97.8406 31.4982 97.8217 31.51 97.8049C31.5266 97.7565 31.5582 97.7146 31.6002 97.6852C31.6422 97.6557 31.6925 97.6403 31.7439 97.6409L41.9722 97.354C42.1128 97.3499 42.2525 97.3773 42.3811 97.434C42.5097 97.4908 42.6238 97.5755 42.7152 97.6819C44.6442 99.905 55.4194 112.393 55.7637 112.789C55.7604 112.781 66.9393 125.728 66.9393 125.728Z" fill="white"/>
<path d="M54.9369 125.774L56.4755 127.594C56.1621 127.88 55.8321 128.147 55.4871 128.394C55.3934 128.451 55.3047 128.517 55.2219 128.589L54.0588 127.228C54.299 126.745 54.5743 126.281 54.8825 125.838C54.8965 125.813 54.915 125.792 54.9369 125.774Z" fill="#778CA0"/>
<path d="M47.4398 132.515C47.4886 132.114 47.5859 131.72 47.7298 131.342C48.224 129.904 48.5732 128.304 49.1893 126.851C49.6423 125.777 50.2436 124.792 51.1414 124.015C51.1809 123.975 51.2271 123.944 51.2584 123.913C51.6653 123.564 52.082 123.215 52.484 122.864C52.7196 122.662 52.9683 122.459 53.2039 122.249C53.6091 121.908 54.0391 121.543 54.5695 121.472C55.8198 121.308 55.8495 122.856 55.7638 123.703C55.6653 124.452 55.3824 125.164 54.9402 125.777C54.9183 125.795 54.8998 125.817 54.8858 125.841C54.5776 126.284 54.3023 126.749 54.0621 127.231C53.9682 127.41 53.8743 127.604 53.7656 127.79C53.4757 128.35 53.25 129.305 53.054 129.922C52.8135 130.676 53.0078 130.94 53.3834 131.343C52.9683 132.346 52.6718 133.388 52.3835 134.242C52.1479 134.925 51.8992 135.657 52.0244 136.373C52.0244 136.396 52.0244 136.435 52.0392 136.466C50.6802 135.975 49.4232 134.927 48.2503 134.158C47.9652 133.997 47.7354 133.754 47.5909 133.461C47.4463 133.168 47.3937 132.839 47.4398 132.515Z" fill="#FFD6BA"/>
<path d="M54.0621 127.228L55.2251 128.589C54.413 129.233 53.8347 130.266 53.3834 131.346C53.0078 130.943 52.8134 130.679 53.0539 129.925C53.2499 129.302 53.4756 128.346 53.7655 127.794C53.8743 127.597 53.9682 127.407 54.0621 127.228Z" fill="#FFD6BA"/>
<path d="M50.7592 120.824L52.484 122.861C52.0787 123.212 51.6603 123.561 51.2583 123.91L50.0327 122.449C50.1366 122.181 50.2565 121.918 50.3918 121.664C50.5411 121.396 50.6641 121.115 50.7592 120.824Z" fill="#778CA0"/>
<path d="M50.0327 122.449L51.2584 123.91C51.2271 123.941 51.1809 123.972 51.1414 124.012C50.2436 124.789 49.6423 125.774 49.1893 126.848C49.0723 126.645 49.0328 126.381 49.1036 125.953C49.2288 125.308 49.3227 124.33 49.5336 123.738C49.7049 123.289 49.8532 122.861 50.0327 122.449Z" fill="#FFD6BA"/>
<path d="M50.97 119.426C50.981 119.901 50.9097 120.374 50.7591 120.824C50.664 121.115 50.541 121.396 50.3917 121.664C50.2564 121.918 50.1365 122.18 50.0326 122.449C49.8531 122.861 49.7032 123.289 49.5384 123.738C49.3276 124.33 49.2337 125.308 49.1085 125.953C49.0376 126.381 49.0772 126.645 49.1941 126.848C48.578 128.3 48.2255 129.9 47.7346 131.338C47.5908 131.716 47.4934 132.111 47.4447 132.512C46.7116 131.976 45.883 131.471 45.2504 130.827C44.8056 130.368 44.0017 129.823 43.8139 129.171C43.6195 128.479 43.9161 127.571 44.1104 126.902C44.3213 126.195 44.4399 125.503 44.5799 124.771C44.7237 123.89 44.9645 123.027 45.2982 122.198C45.5724 121.518 45.9625 120.889 46.4513 120.341C46.7561 119.983 47.0691 119.641 47.3821 119.292C47.6703 118.973 47.9586 118.636 48.2568 118.321C48.3177 118.242 48.3968 118.157 48.4677 118.088C48.7642 117.777 49.1002 117.482 49.5137 117.372C50.7113 117.039 50.9535 118.58 50.97 119.426Z" fill="#FFD6BA"/>
<path d="M48.0411 117.596C48.1827 117.76 48.3228 117.924 48.4562 118.088C48.3854 118.165 48.3063 118.242 48.2453 118.321C47.9472 118.639 47.6589 118.977 47.3706 119.292L39.1224 109.534L30.7209 99.5706L31.4935 97.8065C31.4831 97.8444 31.4803 97.884 31.4853 97.9229C31.51 98.1721 31.884 98.4672 32.0405 98.6541C32.2513 98.9017 32.4704 99.1574 32.673 99.3984C33.1887 100.005 33.7043 100.612 34.2117 101.218L36.1885 103.564C36.938 104.458 37.6875 105.345 38.4453 106.238L40.8109 109.035C41.5753 109.945 42.3495 110.861 43.1172 111.771L45.2027 114.242C45.7644 114.911 46.3344 115.578 46.8962 116.247C47.2833 116.698 47.6589 117.149 48.0411 117.596Z" fill="#778CA0"/>
<path d="M39.1224 109.534L47.369 119.293C47.056 119.642 46.743 119.985 46.4382 120.342C45.9495 120.891 45.5594 121.519 45.2851 122.2L45.2456 122.185C44.1369 120.71 42.9393 119.318 41.9427 117.77C41.0597 116.372 40.007 115.081 39.3267 113.575C39.0466 112.921 38.2411 110.279 39.1224 109.534Z" fill="#FFD6BA"/>
<path d="M149.659 74.0377C144.008 71.513 137.317 72.1212 132.07 75.3493C126.303 78.9053 123.466 85.1352 122.478 91.5946C121.208 99.9444 121.221 108.417 120.725 116.829C120.47 121.174 120.155 125.508 119.964 129.856C119.773 134.204 119.605 138.568 119.295 142.916C118.966 147.525 118.471 152.12 118.54 156.746C118.61 161.373 119.278 165.975 120.847 170.342C121.143 171.162 122.476 170.811 122.176 169.977C119.455 162.435 119.705 154.463 120.364 146.59C121.058 138.311 121.208 130.005 121.756 121.716C122.296 113.552 122.415 105.345 123.171 97.1966C123.804 90.4486 124.876 83.3728 130.126 78.5167C135.068 73.9509 142.742 72.4508 148.937 75.2214C149.739 75.5805 150.443 74.4017 149.632 74.0377H149.659Z" fill="black" fill-opacity="0.1"/>
<path d="M121.631 100.253C119.893 102.782 117.649 104.896 115.516 107.086C114.682 107.943 113.452 108.912 113.157 110.125C112.931 111.055 113.508 111.798 113.74 112.653C114.126 114.075 113.935 115.768 113.832 117.213C113.72 118.801 113.529 120.383 113.409 121.967C113.155 125.31 113.164 128.689 113.108 132.04C113.053 135.335 112.979 138.624 112.824 141.918C112.669 145.239 112.511 148.566 112.604 151.89C112.689 154.963 113.627 157.822 114.444 160.757C115.228 163.573 115.528 166.47 116.106 169.329C117.121 174.348 119.73 179.141 124.273 181.812C128.731 184.435 133.851 183.53 137.946 180.664C147.665 173.859 149.642 161.176 150.507 150.266C150.772 146.918 151.041 143.585 151.517 140.265C151.993 136.945 152.575 133.666 153.126 130.371C154.23 123.798 155.227 117.216 156.545 110.68C156.874 109.031 157.221 107.386 157.586 105.745C157.777 104.884 156.447 104.517 156.258 105.381C154.868 111.675 153.716 118.016 152.701 124.38C151.713 130.61 150.514 136.806 149.771 143.07C149.029 149.3 148.985 155.594 147.629 161.74C146.491 166.926 144.414 172.044 140.911 176.11C137.781 179.741 132.943 183.004 127.919 181.837C123.158 180.73 119.517 176.243 118.124 171.764C117.3 169.111 116.997 166.341 116.506 163.617C115.994 160.775 114.954 158.073 114.365 155.256C113.725 152.222 113.92 149.026 114.035 145.938C114.145 142.775 114.346 139.614 114.424 136.45C114.505 133.171 114.521 129.882 114.61 126.6C114.694 123.513 114.977 120.469 115.203 117.391C115.31 115.916 115.394 114.406 115.203 112.939C115.139 112.496 115.017 112.064 114.842 111.652C114.701 111.307 114.444 110.896 114.496 110.504C114.58 109.907 115.276 109.356 115.661 108.943C116.182 108.392 116.714 107.85 117.246 107.304C118.279 106.258 119.318 105.217 120.303 104.127C121.215 103.125 122.06 102.065 122.832 100.953C123.326 100.221 122.14 99.5345 121.641 100.259L121.631 100.253Z" fill="black" fill-opacity="0.1"/>
<path d="M131.107 78.5281C132.879 76.3808 134.866 74.4181 137.037 72.6703C139.281 70.8669 141.677 69.2652 143.921 67.4618C145.811 65.942 148.586 60.7172 151.08 62.9436C153.085 64.7323 155.555 65.9159 157.902 67.1947C162.754 69.8424 167.733 72.395 172.056 75.8707C175.995 79.0348 179.243 82.9433 181.848 87.2518C187.006 95.7769 189.755 105.614 191.5 115.35C193.669 127.466 193.862 139.831 193.44 152.1C193.018 164.37 191.979 176.656 191.636 188.952C191.593 190.459 191.563 191.965 191.544 193.47C191.533 194.352 192.911 194.354 192.923 193.47C193.088 180.778 194.15 168.124 194.69 155.446C195.226 142.885 195.223 130.248 193.297 117.793C191.72 107.596 189.045 97.259 183.983 88.1862C181.512 83.7597 178.42 79.6447 174.632 76.256C170.442 72.5065 165.495 69.7572 160.574 67.0849C158.065 65.7225 155.364 64.4765 153.047 62.801C152.128 62.1354 151.421 61.2025 150.275 60.9074C149.062 60.5943 147.787 62.9304 146.717 63.5206C145.458 64.2157 144.422 65.2912 143.313 66.1929C142.137 67.1503 140.931 68.0717 139.712 68.9799C137.388 70.6997 135.072 72.3802 133.009 74.4229C132 75.4187 131.042 76.4649 130.14 77.5576C129.579 78.2346 130.55 79.2101 131.115 78.5281H131.107Z" fill="black" fill-opacity="0.1"/>
<path d="M132.767 182.75C132.923 186.521 132.989 190.291 133.081 194.062C133.103 194.942 134.482 194.946 134.46 194.062C134.368 190.291 134.296 186.521 134.146 182.75C134.109 181.869 132.731 181.864 132.767 182.75Z" fill="black" fill-opacity="0.1"/>
<path d="M84.9941 96.3048C85.0238 96.7967 84.9843 97.3442 85.2692 97.7803C85.5542 98.2164 86.027 98.5214 86.3993 98.8378C87.2644 99.585 88.1678 100.287 89.1059 100.941C90.3892 101.822 91.6609 102.799 93.0282 103.546C94.356 104.271 95.8007 104.835 97.163 105.501C98.4661 106.137 99.8268 106.683 101.281 106.858C102.907 107.053 104.502 107.186 106.108 107.54C107.484 107.845 108.836 108.247 110.226 108.514C111.419 108.745 112.781 108.953 113.521 110.022C114.015 110.745 115.216 110.06 114.71 109.329C113.342 107.347 110.8 107.299 108.657 106.746C107.114 106.328 105.548 105.996 103.968 105.753C102.497 105.543 101.031 105.546 99.6126 105.056C98.2206 104.578 96.9769 103.799 95.6244 103.217C94.2308 102.611 92.8996 101.872 91.6494 101.01C90.5242 100.248 89.3876 99.5034 88.33 98.6509C87.8907 98.3 87.4602 97.9399 87.0385 97.5705C86.5179 97.1164 86.424 97.0032 86.3795 96.3081C86.3252 95.431 84.9464 95.4261 85.0007 96.3081L84.9941 96.3048Z" fill="#EEAC7F"/>
<path d="M113.253 97.5688C111.806 96.7015 110.245 96.0687 108.683 95.4375C107.164 94.8277 105.695 94.085 104.046 93.9145C102.332 93.7358 100.784 94.0637 99.1036 94.3047C98.3541 94.4129 97.6655 94.4293 96.944 94.1735C96.5722 94.0493 96.2212 93.8703 95.9028 93.6423C95.3724 93.239 95.262 92.8636 95.8567 92.4472C96.4514 92.0308 97.3278 91.9553 97.9983 91.7668C98.8549 91.5291 99.6934 91.234 100.553 91.0045C101.331 90.7979 102.117 90.5962 102.927 90.5962C103.738 90.5962 104.574 90.793 105.378 90.9667C108.726 91.6897 112.142 92.2996 115.427 93.2882C117.239 93.8325 118.373 95.0523 118.928 96.8393C119.498 98.6673 119.69 100.574 120.367 102.379C120.676 103.199 122.015 102.843 121.697 102.013C120.514 98.8591 120.74 94.5276 117.414 92.6275C115.87 91.7438 113.93 91.4996 112.223 91.0684C110.128 90.5405 108.004 90.1306 105.891 89.6765C104.079 89.2847 102.497 89.1043 100.664 89.5585C99.6752 89.7995 98.7264 90.1306 97.7561 90.4077C96.9176 90.6454 96.0528 90.8077 95.2703 91.2061C93.8107 91.9455 93.6229 93.5014 94.8601 94.5703C96.1779 95.6884 97.8253 95.8818 99.4726 95.6277C100.667 95.4474 101.807 95.1785 103.024 95.2211C104.141 95.2534 105.243 95.4907 106.273 95.9212C108.395 96.7917 110.589 97.5606 112.561 98.7509C113.323 99.2083 114.017 98.0229 113.258 97.5655L113.253 97.5688Z" fill="#EEAC7F"/>
<path d="M96.005 93.8243C95.262 93.7604 94.5998 93.3456 93.9112 93.098C93.758 93.0439 93.1403 92.9816 93.0727 92.9079C93.0052 92.8341 93.0628 92.4537 93.0727 92.3619C93.1666 91.5537 93.4351 90.5159 93.8849 89.829L93.473 90.1438C93.7597 90.047 94.2489 90.1897 94.5586 90.1651C94.9566 90.1316 95.3518 90.0708 95.7414 89.9831C96.362 89.8622 96.9558 89.6312 97.4942 89.3011C98.4085 88.7027 99.0855 87.4731 98.4826 86.4189C98.3532 86.1985 98.1792 86.0074 97.9716 85.8575C97.764 85.7076 97.5274 85.6024 97.2767 85.5484C96.486 85.3582 95.6113 85.3238 94.8057 85.1992C93.5702 85.009 92.137 84.486 90.9246 85.0172C89.8077 85.509 89.2114 86.6435 88.7831 87.719C88.2081 89.1945 87.7205 90.7159 87.251 92.2209C86.8985 93.3505 86.228 94.8441 86.9726 95.9343C87.7831 97.1344 89.5029 97.8311 90.7072 98.5574C92.4286 99.6017 94.188 100.625 95.9688 101.566C97.5156 102.386 98.9834 102.386 100.697 102.313C101.581 102.279 101.586 100.907 100.697 100.941C99.9625 100.992 99.2259 101 98.4908 100.966C97.5634 100.892 96.8089 100.474 96.0198 100.021C94.389 99.0935 92.7433 98.1918 91.1453 97.2114C90.4568 96.7901 89.7566 96.3917 89.073 95.9622C88.3267 95.4949 87.8984 95.1424 88.1044 94.2768C88.5178 92.5308 89.1685 90.834 89.7517 89.142C90.1289 88.0272 90.5951 86.2271 92.0349 86.1599C92.7136 86.1287 93.3956 86.3501 94.0611 86.4599C94.9079 86.5992 95.7562 86.7206 96.6063 86.8353C96.8962 86.873 97.2224 86.8583 97.3245 87.1878C97.4382 87.5518 97.0527 87.9305 96.799 88.1108C96.2175 88.524 95.3938 88.6961 94.7019 88.7666C94.1056 88.8371 93.2935 88.5404 92.8026 88.9847C92.4945 89.2617 92.3578 89.8224 92.2227 90.1995C91.8932 91.1373 91.3611 92.5423 91.8422 93.5128C92.1535 94.1424 92.8306 94.1686 93.4236 94.3637C94.3099 94.6539 95.0578 95.1015 96.005 95.1834C96.888 95.2621 96.883 93.8883 96.005 93.8112V93.8243Z" fill="#EEAC7F"/>
<path d="M113.641 146.99C103.532 141.088 93.1797 135.627 83.0667 129.74C82.299 129.292 81.6038 130.479 82.3715 130.925C92.4845 136.812 102.836 142.282 112.946 148.174C113.714 148.621 114.409 147.436 113.641 146.99Z" fill="black" fill-opacity="0.1"/>
<path d="M78.8676 147.154C89.1371 153.422 99.3051 159.852 109.371 166.442C111.923 168.103 114.465 169.81 116.784 171.779C117.457 172.348 118.432 171.382 117.76 170.808C113.496 167.201 108.615 164.337 103.93 161.316C98.7642 157.984 93.5932 154.661 88.3777 151.408C85.4477 149.58 82.5082 147.767 79.5595 145.969C78.8001 145.505 78.1066 146.692 78.8627 147.154H78.8676Z" fill="black" fill-opacity="0.1"/>
<path d="M82.0288 130.332C82.0451 131.767 81.9813 133.203 81.8377 134.632C81.673 135.993 81.3435 137.332 81.0338 138.667C80.4391 141.245 79.7983 143.829 78.6188 146.208L79.0306 145.893C79.3964 145.831 79.2662 145.636 79.2794 145.306C79.2925 145.012 79.3238 144.719 79.3733 144.429C79.5166 143.565 78.1889 143.193 78.0439 144.064C77.9236 144.79 77.7507 145.669 77.9681 146.392C78.1411 146.972 78.7918 147.434 79.398 147.211C80.0701 146.974 80.3502 145.751 80.5907 145.147C80.9626 144.204 81.2843 143.241 81.5544 142.264C82.0897 140.362 82.5428 138.421 82.9233 136.483C83.3203 134.443 83.3911 132.394 83.4076 130.32C83.4076 129.438 82.037 129.436 82.0288 130.32V130.332Z" fill="black" fill-opacity="0.1"/>
<path d="M71.883 134.579C70.1615 134.127 68.3907 133.861 66.6115 134.035C64.7185 134.208 62.816 134.255 60.9167 134.176C60.0321 134.148 59.1458 134.135 58.2612 134.089C57.5709 134.053 57.5611 133.948 57.7521 133.312C57.9079 132.833 58.115 132.373 58.3699 131.938C58.6012 131.564 58.8778 131.22 59.1936 130.914C59.3583 130.735 59.4983 130.586 59.4983 130.33C59.383 130.527 59.2693 130.725 59.1557 130.923C60.3862 130.31 61.0073 128.387 60.8261 127.118C60.5609 125.261 58.6351 125.246 57.3172 126.089C56.4738 126.625 55.7457 127.343 54.9533 127.946C54.1936 128.554 53.5835 129.327 53.1692 130.205C52.6339 131.266 52.2747 132.402 51.909 133.529C51.5796 134.532 51.1447 135.584 51.3934 136.657C51.4347 136.8 51.5209 136.926 51.6395 137.016C51.7582 137.107 51.9029 137.157 52.0524 137.16C51.8382 136.996 51.6158 136.832 51.3934 136.657C51.6866 137.614 52.4494 138.209 53.2879 138.699C54.3471 139.317 55.4409 139.903 56.543 140.439C57.8526 141.075 59.1524 141.718 60.4472 142.383C61.4916 142.919 62.5591 143.314 63.7419 143.429C65.0087 143.552 66.32 143.395 67.5868 143.316C68.9178 143.234 70.2472 143.152 71.5799 143.137C74.2865 143.106 77.0639 143.328 79.5234 144.547C80.3157 144.941 81.0142 143.757 80.2202 143.364C75.6999 141.121 70.5141 141.813 65.6577 142.052C64.4453 142.113 63.2954 142.095 62.1489 141.655C60.9463 141.193 59.8327 140.483 58.673 139.929C57.4721 139.355 56.2877 138.781 55.1263 138.126C54.329 137.681 53.0193 137.239 52.7278 136.286C52.6857 136.143 52.5992 136.018 52.4808 135.927C52.3624 135.836 52.2182 135.785 52.0688 135.781C52.283 135.945 52.5054 136.109 52.7278 136.286C52.5482 135.511 53.0062 134.611 53.2434 133.886C53.4691 133.196 53.6849 132.504 53.9501 131.827C54.2532 131.055 54.6238 130.259 55.1642 129.62C55.5151 129.205 55.9565 128.927 56.375 128.592C56.8296 128.23 59.0947 125.979 59.4604 127.226C59.6779 127.964 59.1557 129.387 58.472 129.732C58.3676 129.791 58.2811 129.878 58.2212 129.982C58.1612 130.086 58.1301 130.204 58.131 130.323C58.1969 130.169 58.2645 130.007 58.332 129.845C57.3064 130.778 56.6036 132.01 56.3239 133.365C56.0669 134.773 56.9598 135.402 58.2661 135.455C60.4077 135.539 62.6101 135.73 64.7517 135.601C65.8653 135.532 66.9558 135.317 68.076 135.347C69.2423 135.396 70.3987 135.581 71.5222 135.896C72.3805 136.122 72.7479 134.799 71.8896 134.573L71.883 134.579Z" fill="#EEAC7F"/>
<path d="M83.0964 131.368C80.8939 129.774 79.3075 127.497 77.138 125.869C74.667 124.028 72.28 122.123 69.9539 120.111C67.8421 118.285 65.7186 116.444 63.3646 114.914C62.2296 114.175 61.0583 113.483 59.7553 113.098C59.0963 112.904 58.4226 112.75 57.7554 112.58C57.1426 112.424 56.3996 112.098 55.7654 112.098C54.8791 112.098 54.8775 113.47 55.7654 113.47C56.3865 113.47 57.2596 113.872 57.8789 114.029C58.5725 114.204 59.2792 114.357 59.953 114.601C61.1918 115.047 62.3498 115.863 63.4239 116.609C65.7203 118.203 67.7959 120.079 69.9111 121.895C72.1251 123.795 74.4858 125.484 76.7591 127.305C78.7705 128.92 80.2926 131.033 82.393 132.551C83.1112 133.071 83.7998 131.881 83.0882 131.368H83.0964Z" fill="#EEAC7F"/>
<path d="M52.0704 135.794C51.9056 135.794 51.4543 135.455 51.2994 135.37C51.0062 135.206 50.7229 135.025 50.4428 134.84C49.8926 134.478 49.3473 134.099 48.8103 133.714C48.2288 133.299 48.0575 132.953 48.1991 132.238C48.3309 131.583 48.6093 130.927 48.8021 130.291C49.1991 128.959 49.545 127.589 50.2039 126.356C50.8382 125.167 51.7821 124.389 52.7903 123.523C53.2598 123.121 53.7457 122.566 54.3058 122.29C54.8165 122.039 55.0076 122.156 55.0949 122.682C55.286 123.83 54.7753 124.813 54.1559 125.718C53.4624 126.763 52.9361 127.908 52.5959 129.113C52.2796 130.199 52.1182 130.941 52.9254 131.837C53.5167 132.492 54.4887 131.523 53.9006 130.866C53.5299 130.451 53.7589 130.079 53.9006 129.589C54.0549 128.99 54.2696 128.407 54.5414 127.851C55.1048 126.771 55.9416 125.785 56.3007 124.615C56.734 123.203 56.6022 120.528 54.5019 120.795C53.3635 120.941 52.4427 122.025 51.6174 122.726C50.6833 123.521 49.8152 124.292 49.1892 125.361C48.5418 126.466 48.1415 127.697 47.7758 128.917C47.4331 130.064 46.8615 131.305 46.7775 132.51C46.6869 133.837 47.5237 134.478 48.5204 135.166C49.1381 135.594 49.746 136.039 50.3934 136.422C50.8431 136.689 51.5334 137.16 52.077 137.16C52.9649 137.16 52.9665 135.788 52.077 135.788L52.0704 135.794Z" fill="#EEAC7F"/>
<path d="M49.8037 126.503C49.6472 126.166 49.9108 125.369 49.9684 125.01C50.0651 124.458 50.2146 123.916 50.4149 123.392C50.8415 122.257 51.5235 121.218 51.6553 119.992C51.8052 118.611 51.3127 116.267 49.4215 116.693C48.4446 116.914 47.7906 117.811 47.1647 118.519C46.3805 119.405 45.5173 120.239 44.9704 121.306C44.4367 122.339 44.1467 123.462 43.9243 124.597C43.7003 125.764 43.2951 126.918 43.1254 128.09C42.9557 129.263 43.412 130.071 44.2785 130.853C45.2274 131.712 46.224 132.432 47.2437 133.206C47.9488 133.742 48.6357 132.55 47.9389 132.02C46.9884 131.296 46.0576 130.625 45.178 129.812C44.7497 129.417 44.4433 129.117 44.4647 128.5C44.4844 127.928 44.7249 127.367 44.8716 126.818C45.201 125.576 45.3229 124.289 45.7265 123.061C46.1466 121.785 46.9027 120.87 47.7923 119.883C48.0773 119.569 49.4232 117.659 49.9866 118.08C50.6043 118.547 50.2649 120.244 50.0821 120.744C49.6571 121.892 48.9899 122.949 48.7313 124.169C48.5319 125.105 48.2008 126.29 48.6193 127.192C48.9899 127.992 50.1793 127.297 49.8086 126.499L49.8037 126.503Z" fill="#EEAC7F"/>
<path d="M38.661 109.048C37.9345 109.745 38.002 110.863 38.147 111.773C38.3011 112.771 38.6266 113.735 39.1091 114.622C39.8553 116.004 40.8124 117.298 41.6954 118.595C42.6228 119.957 43.687 121.218 44.682 122.529C45.2108 123.226 46.4084 122.543 45.873 121.838C44.1433 119.559 42.4136 117.313 40.8734 114.899C40.3034 114.006 39.9047 113.26 39.6527 112.276C39.511 111.724 39.1469 110.498 39.6346 110.029C40.2754 109.414 39.3051 108.443 38.661 109.058V109.048Z" fill="#EEAC7F"/>
<path d="M66.3676 126.074C65.9542 125.358 66.8964 125.831 66.5192 125.825C66.4401 125.825 66.2985 125.933 66.2194 125.971L65.5868 126.276L65.2409 126.44L62.8967 127.577L58.4802 129.728L59.3154 130.807C60.4109 129.802 61.3696 127.994 60.6563 126.49C59.6514 124.371 57.1524 126.136 56.0174 127.105H56.991L55.4507 125.285C55.4853 125.561 55.5216 125.84 55.5578 126.117C56.3601 124.921 56.9712 122.923 56.1541 121.562C55.0587 119.739 53.0456 121.49 52.0193 122.382H52.9945C52.418 121.703 51.8425 121.023 51.2681 120.342C51.3274 120.564 51.3867 120.787 51.4444 121.01C51.7739 119.888 51.8595 118.349 51.1347 117.339C50.2731 116.141 48.84 116.744 47.9916 117.611H48.9668L40.5654 107.663L36.3663 102.69L34.1671 100.087L33.0749 98.7935C33.0618 98.7788 32.243 97.8754 32.2331 97.9082L31.9152 98.3181C31.7076 98.4148 31.8625 98.3181 32.0799 98.3181L32.9366 98.2935L35.6909 98.2164L41.3232 98.0525C41.8338 98.0377 42.0414 97.9869 42.4252 98.3623C42.8964 98.8247 43.3016 99.3788 43.7316 99.8772L47.8532 104.645C51.7903 109.203 55.728 113.762 59.6663 118.319L66.4681 126.213C67.0463 126.884 68.0183 125.91 67.4434 125.243C63.001 120.098 58.5582 114.954 54.1147 109.811C50.6916 105.85 47.2706 101.889 43.8518 97.9279C43.2884 97.2721 42.842 96.6819 41.8865 96.6622C41.0859 96.6442 40.2771 96.7065 39.4765 96.7294L32.3715 96.9294C32.1638 96.9231 31.9558 96.9292 31.7488 96.9475C30.7687 97.0885 30.5957 98.0312 31.169 98.7181C32.9909 100.923 34.8919 103.076 36.7386 105.263L47.9916 118.58C48.2288 118.86 48.723 118.828 48.9668 118.58C49.2469 118.295 49.6669 117.819 50.0326 118.159C50.2204 118.334 50.2517 118.8 50.2797 119.041C50.367 119.787 49.858 120.693 50.3011 121.321C50.8069 122.036 51.4543 122.682 52.0193 123.351C52.2714 123.649 52.7326 123.577 52.9945 123.351C53.4887 122.918 54.8758 121.397 55.1015 122.716C55.2662 123.677 54.8923 124.646 54.3668 125.426C54.2924 125.558 54.2627 125.71 54.2823 125.86C54.3019 126.01 54.3697 126.149 54.4755 126.258L56.0174 128.079C56.2695 128.377 56.7291 128.304 56.991 128.079C57.4457 127.69 59.3846 125.987 59.4834 127.464C59.5477 128.448 59.0287 129.207 58.3402 129.84C57.7356 130.394 58.5049 131.243 59.1754 130.917L64.3085 128.417L66.193 127.5C67.1155 127.053 68.2802 126.631 67.557 125.379C67.1155 124.615 65.9245 125.302 66.3676 126.074Z" fill="#808191"/>
<path d="M51.769 123.421C51.4098 122.995 51.0502 122.568 50.69 122.141L50.5368 121.961C50.4719 121.896 50.3948 121.845 50.31 121.81C50.2252 121.776 50.1343 121.758 50.0426 121.759C49.8575 121.759 49.6798 121.831 49.5484 121.961C49.4834 122.025 49.432 122.102 49.3972 122.186C49.3624 122.271 49.3449 122.361 49.3457 122.452L49.3704 122.634C49.4023 122.749 49.4636 122.854 49.5484 122.938L50.6274 124.218C50.6784 124.279 50.7295 124.338 50.7789 124.398C50.8439 124.463 50.921 124.514 51.0058 124.548C51.0906 124.583 51.1815 124.601 51.2731 124.6C51.4581 124.6 51.6357 124.528 51.7673 124.398C51.832 124.334 51.8832 124.257 51.918 124.173C51.9528 124.088 51.9704 123.998 51.9699 123.907L51.9452 123.725C51.9134 123.61 51.8521 123.505 51.7673 123.421H51.769Z" fill="black"/>
<path d="M55.7307 128.105L54.7159 126.91L54.5726 126.746C54.5077 126.682 54.4306 126.631 54.3458 126.596C54.2609 126.562 54.1701 126.544 54.0784 126.545C53.8955 126.545 53.7202 126.617 53.5908 126.746C53.4615 126.875 53.3886 127.049 53.3882 127.231L53.4129 127.413C53.4447 127.528 53.506 127.633 53.5908 127.717L54.6072 128.909L54.7522 129.073C54.8171 129.137 54.8942 129.188 54.979 129.223C55.0639 129.257 55.1547 129.275 55.2464 129.274C55.4313 129.274 55.6088 129.202 55.7406 129.073C55.805 129.008 55.856 128.931 55.8905 128.847C55.925 128.762 55.9423 128.672 55.9416 128.581L55.9168 128.399C55.8856 128.284 55.8249 128.18 55.7406 128.095L55.7307 128.105Z" fill="black"/>
<path d="M30.9152 97.4606C30.6571 98.0486 30.3979 98.6372 30.1377 99.2263C30.0674 99.3588 30.0401 99.5097 30.0596 99.6583C30.0791 99.8068 30.1443 99.9458 30.2464 100.056L43.4432 115.681L46.9026 119.78C47.4743 120.457 48.4445 119.482 47.8762 118.81L34.6514 103.153L31.215 99.087L31.3237 99.9182C31.5818 99.3291 31.841 98.741 32.1013 98.1541C32.4555 97.3541 31.2677 96.654 30.9103 97.4606H30.9152Z" fill="#1B1D21"/>
<path d="M59.0057 132.443L59.4258 130.735C59.4671 130.603 59.493 130.467 59.5032 130.33C59.4945 130.154 59.4181 129.988 59.2898 129.866C59.1615 129.744 58.991 129.677 58.8138 129.677C58.6366 129.677 58.4661 129.744 58.3378 129.866C58.2094 129.988 58.133 130.154 58.1244 130.33C58.1244 130.276 58.1392 130.217 58.1474 130.155C58.0102 130.716 57.8729 131.278 57.7356 131.838L57.6763 132.079C57.6278 132.255 57.6513 132.442 57.7417 132.6C57.8321 132.759 57.9819 132.875 58.1581 132.923C58.3344 132.971 58.5228 132.948 58.6817 132.858C58.8407 132.768 58.9572 132.619 59.0057 132.443Z" fill="black"/>
<path d="M66.4681 126.067C66.3709 126.423 66.2753 126.779 66.1781 127.136C66.1188 127.353 66.1007 127.682 65.9294 127.827C65.8039 127.905 65.6702 127.969 65.5307 128.018L64.6346 128.453L59.3944 130.989L57.9908 131.668L58.826 131.776C58.6366 131.553 58.4488 131.33 58.2577 131.109C57.6844 130.433 56.7142 131.407 57.2841 132.078L57.8508 132.747C58.0584 132.989 58.4274 132.979 58.6877 132.853L62.577 130.971C63.9196 130.315 65.3281 129.74 66.6278 129.004C67.468 128.531 67.5685 127.272 67.7975 126.426C68.0264 125.58 66.6987 125.208 66.4681 126.061V126.067Z" fill="black"/>
<path d="M108.246 52.7265C109.039 51.5281 110.17 49.9608 111.79 50.0067C112.544 50.028 113.248 50.4034 113.861 50.8133C114.762 51.3956 115.538 52.1508 116.144 53.0348C118.226 56.2087 116.878 60.2352 114.702 62.9813C114.159 63.6666 115.127 64.6437 115.678 63.9502C117.752 61.3271 119.2 57.863 118.3 54.5021C117.806 52.6856 116.653 51.2232 115.17 50.0756C113.956 49.1345 112.482 48.3886 110.905 48.7181C109.174 49.0804 107.97 50.6477 107.052 52.0314C106.558 52.7708 107.755 53.4594 108.243 52.7249L108.246 52.7265Z" fill="black"/>
<path d="M112.361 54.4168C111.538 55.6497 111.424 57.2383 111.839 58.6351C111.863 58.722 111.904 58.8033 111.96 58.8744C112.015 58.9455 112.084 59.005 112.163 59.0496C112.242 59.0941 112.329 59.1228 112.418 59.1339C112.508 59.1451 112.599 59.1385 112.687 59.1146C112.774 59.0907 112.856 59.05 112.927 58.9946C112.999 58.9393 113.058 58.8705 113.103 58.7922C113.148 58.7139 113.177 58.6275 113.188 58.5381C113.199 58.4487 113.193 58.358 113.169 58.2711C113.129 58.14 113.094 58.0072 113.066 57.8744C113.052 57.8055 113.038 57.735 113.027 57.6662C113.027 57.6301 113.015 57.5957 113.009 57.5596C113.022 57.6531 113.022 57.6596 113.009 57.5793C112.976 57.281 112.969 56.9803 112.989 56.6809C112.989 56.6497 113.02 56.4022 112.989 56.5759C112.999 56.4989 113.014 56.4218 113.029 56.3464C113.06 56.1906 113.1 56.0368 113.149 55.8857C113.174 55.8103 113.202 55.7349 113.231 55.6595C113.177 55.8005 113.274 55.5677 113.286 55.5431C113.362 55.3938 113.447 55.2487 113.539 55.1086C113.631 54.9515 113.656 54.7648 113.61 54.5891C113.563 54.4135 113.449 54.2632 113.292 54.1709C113.133 54.0833 112.947 54.06 112.771 54.1058C112.596 54.1516 112.445 54.263 112.35 54.4168H112.361Z" fill="black"/>
<path fill-rule="evenodd" clip-rule="evenodd" d="M88.4353 71.054C87.4469 70.0703 87.2146 68.6866 87.9164 68.0817C88.6182 67.4767 89.9196 67.6964 90.9673 68.7374C91.9557 69.7211 92.188 71.1048 91.4878 71.7114C90.7169 72.3852 89.3529 72.0967 88.4353 71.054Z" fill="black"/>
<path d="M83.4523 65.8717C84.4197 65.0495 85.5695 64.4676 86.8069 64.1737C88.0444 63.8799 89.3342 63.8825 90.5704 64.1814C91.4304 64.4027 91.7961 63.078 90.9362 62.8583C88.0088 62.1075 84.7405 62.9223 82.4771 64.9011C81.8181 65.4848 82.7884 66.452 83.4523 65.8717Z" fill="black"/>
<path fill-rule="evenodd" clip-rule="evenodd" d="M111.396 87.7289C111.396 87.7289 118.608 77.9774 119.781 73.5526C120.627 74.9132 121.316 76.3646 121.835 77.8791C122.588 80.2956 122.494 83.3466 122.494 83.3466L118.323 81.3383L111.396 87.7289Z" fill="#EBB692"/>
<path d="M117.45 58.6695C119.843 60.0647 122.58 59.586 125.151 59.0466C126.612 58.74 128.116 58.4334 129.619 58.5367C130.342 58.5876 130.887 58.9236 131.566 59.1237C131.993 59.2483 132.459 59.1794 132.872 59.2876C133.508 59.4515 134.075 58.6105 133.543 58.14C131.492 56.3284 130.041 53.8381 129.754 51.0903C129.467 48.3426 130.036 45.5916 129.678 42.8423C129.083 38.2518 126.589 34.3515 122.817 31.694C122.092 31.1808 121.402 32.3711 122.122 32.8777C124.046 34.2197 125.623 35.9973 126.723 38.0643C127.822 40.1312 128.413 42.4285 128.446 44.767C128.502 47.5377 127.976 50.3264 128.728 53.0495C129.392 55.3976 130.725 57.5042 132.566 59.1155L133.236 57.9678C132.805 57.8547 132.368 57.9334 131.93 57.8039C131.291 57.6137 130.777 57.3121 130.101 57.2202C128.864 57.0563 127.578 57.2071 126.355 57.417C123.675 57.8744 120.697 58.9761 118.145 57.4891C117.377 57.0415 116.682 58.2269 117.448 58.6744L117.45 58.6695Z" fill="black"/>
<path d="M121.984 32.7744C123.577 34.6975 123.558 37.4977 123.173 39.824C122.717 42.5996 121.713 45.2785 120.425 47.7721C120.022 48.5558 121.211 49.2476 121.616 48.4656C123.061 45.6654 124.186 42.6455 124.603 39.5142C124.96 36.832 124.749 33.9614 122.955 31.7973C122.39 31.1153 121.42 32.0908 121.98 32.7678L121.984 32.7744Z" fill="black"/>
<path d="M119.611 43.9243C121.209 41.7094 122.267 39.0732 122.318 36.3255C122.333 35.4418 120.954 35.4418 120.939 36.3255C120.893 38.8404 119.88 41.2094 118.422 43.2325C118.205 43.5325 118.369 43.9965 118.669 44.1702C118.828 44.2582 119.014 44.2817 119.19 44.2359C119.366 44.19 119.517 44.0784 119.611 43.9243Z" fill="black"/>
<path d="M75.199 53.9283C75.6817 55.8776 77.5431 56.9334 79.2745 57.6597C81.7768 58.7106 84.4356 59.1745 87.1092 59.5746C92.0364 60.3107 97.5929 60.4713 102.041 57.881C104.224 56.5958 105.995 54.7195 107.147 52.4708C107.523 51.7445 106.666 51.1592 106.065 51.638C100.36 56.1169 92.3577 56.3711 86.3103 52.42C85.5657 51.9282 84.8738 53.1217 85.6135 53.6053C92.2209 57.922 100.86 57.4613 107.04 52.6085L105.956 51.7773C104.783 54.0866 102.894 55.9584 100.568 57.1154C97.9174 58.4269 94.8386 58.727 91.9162 58.6515C88.7832 58.5574 85.6705 58.1175 82.6351 57.34C80.6154 56.8252 77.1083 55.8923 76.53 53.5545C76.3192 52.6971 74.9881 53.0626 75.2006 53.9201L75.199 53.9283Z" fill="black"/>
<path d="M74.9058 50.251C73.2354 51.3986 72.3294 53.2954 71.7067 55.1578C70.9934 57.2891 70.6261 59.5434 70.463 61.7779C70.0133 67.8964 70.1516 74.1771 71.6161 80.1627C72.308 82.981 73.4282 85.7271 75.4363 87.8682C76.0129 88.483 76.8069 87.7042 76.5186 87.037C74.919 83.3515 74.69 79.1676 74.9866 75.2034C75.2979 71.0343 76.2847 66.8422 77.563 62.86C77.8332 62.0173 76.5021 61.6566 76.232 62.496C74.8844 66.693 73.873 71.1326 73.5847 75.5395C73.3145 79.6611 73.6687 83.9007 75.3276 87.7305L76.4115 86.8976C72.9257 83.1843 72.1894 77.3216 71.799 72.4704C71.5835 69.5471 71.5565 66.613 71.7182 63.6863C71.8286 61.4746 72.0263 59.2843 72.5617 57.1285C73.0559 55.1382 73.8021 52.6577 75.5928 51.4314C76.3193 50.9395 75.6307 49.7444 74.8976 50.246L74.9058 50.251Z" fill="black"/>
<path d="M76.8167 48.5197C76.5794 46.4688 77.1461 44.4932 77.9698 42.6275C78.7163 40.8881 79.6733 39.2458 80.8197 37.7371C83.0074 34.9106 85.6266 32.2219 88.5391 30.1349C94.3888 25.9445 101.883 23.7214 109.078 24.546C113.404 25.0379 117.377 26.915 119.941 30.4972C120.451 31.2104 121.647 30.5267 121.132 29.8054C118.832 26.5842 115.391 24.3508 111.501 23.5558C107.413 22.7351 103.193 22.8292 99.1463 23.8312C95.527 24.7074 92.0816 26.1833 88.9542 28.1971C85.7568 30.2775 82.9909 32.9843 80.5528 35.9025C79.0903 37.6438 77.8712 39.574 76.9287 41.6406C75.9403 43.803 75.1693 46.1196 75.4461 48.5263C75.5449 49.3936 76.9287 49.4034 76.8249 48.5263L76.8167 48.5197Z" fill="black"/>
<path d="M95.626 35.6434C98.0328 32.6285 101.556 30.7513 105.25 29.7775C107.295 29.2103 109.42 28.9859 111.539 29.1135C113.592 29.2627 115.783 29.4709 117.634 30.4382C118.419 30.8497 119.117 29.6643 118.33 29.2528C116.369 28.2265 114.192 28.0019 112.019 27.7773C109.712 27.5462 107.378 27.8232 105.144 28.3839C101.15 29.3906 97.2519 31.4169 94.6574 34.6696C94.1105 35.3549 95.0807 36.332 95.6326 35.6401L95.626 35.6434Z" fill="black"/>
<path d="M110.355 90.4488C112.612 88.1535 114.88 85.8206 116.842 83.2565C117.182 82.8122 117.633 82.0285 118.266 82.0613C118.981 82.0974 119.784 82.7663 120.407 83.086C121.768 83.7946 123.175 84.4103 124.619 84.9287C125.456 85.2255 125.817 83.9008 124.985 83.6057C123.366 83.046 121.803 82.3357 120.318 81.4842C118.962 80.7252 117.671 80.2514 116.465 81.5383C115.946 82.0925 115.516 82.7351 115.019 83.3106C114.452 83.9664 113.907 84.6385 113.345 85.296C112.1 86.7534 110.709 88.1093 109.377 89.4782C108.757 90.111 109.731 91.0832 110.352 90.4488H110.355Z" fill="#EBB692"/>
<path d="M75.3638 56.5498C75.3556 59.4877 76.0689 62.2879 77.797 64.6832C79.4542 66.9784 81.4804 68.9588 83.3666 71.0688C84.2875 72.1 85.1013 73.1608 85.3237 74.5608C85.4884 75.638 85.3039 76.72 85.0733 77.7725C84.7224 79.3874 84.2496 81.1744 85.8244 82.3007C86.8507 83.0385 88.1488 83.1598 89.3629 83.3483C90.0082 83.4289 90.6438 83.5728 91.2607 83.7778C92.03 84.0615 92.6543 84.609 93.2803 85.1189C93.9606 85.6747 94.9425 84.7091 94.2555 84.15C93.3676 83.427 92.5093 82.727 91.399 82.3794C90.3167 82.04 89.1718 81.9925 88.0665 81.7498C87.2593 81.5711 86.1885 81.258 86.0798 80.3022C85.9859 79.494 86.3055 78.6185 86.4685 77.843C86.9282 75.6593 86.8952 73.4788 85.5773 71.5885C84.0684 69.4195 81.9746 67.6538 80.2779 65.6324C79.2895 64.4553 78.2895 63.188 77.6833 61.7649C76.9881 60.1255 76.7476 58.3106 76.7525 56.5498C76.7525 55.6662 75.377 55.6662 75.3737 56.5498H75.3638Z" fill="black" fill-opacity="0.1"/>
<path d="M100.033 89.0979C99.4603 88.6312 98.898 88.1546 98.3456 87.6683C98.2123 87.5415 98.0358 87.4694 97.8514 87.4666C97.7145 87.465 97.5801 87.5041 97.4656 87.5789C97.3511 87.6537 97.2616 87.7607 97.2086 87.8864C97.1555 88.0121 97.1413 88.1506 97.1678 88.2844C97.1943 88.4181 97.2602 88.5409 97.3572 88.6372C97.9063 89.1257 98.4686 89.6028 99.0441 90.0684C99.1783 90.1937 99.3544 90.265 99.5383 90.2684C99.7229 90.2681 99.9001 90.1963 100.033 90.0684C100.097 90.0036 100.148 89.9268 100.182 89.8424C100.217 89.758 100.234 89.6677 100.233 89.5766C100.236 89.4853 100.219 89.3945 100.184 89.3099C100.15 89.2252 100.098 89.1486 100.033 89.0847V89.0979Z" fill="black" fill-opacity="0.1"/>
<path d="M97.3262 84.791C98.8533 83.0516 100.84 81.7761 103.133 81.3285C103.224 81.3076 103.309 81.2687 103.385 81.2141C103.46 81.1595 103.523 81.0903 103.571 81.0106C103.618 80.931 103.649 80.8426 103.662 80.7508C103.674 80.659 103.668 80.5656 103.643 80.4762C103.618 80.3869 103.575 80.3035 103.517 80.2311C103.459 80.1586 103.387 80.0986 103.305 80.0546C103.223 80.0106 103.133 79.9836 103.041 79.9751C102.948 79.9667 102.854 79.977 102.766 80.0055C100.265 80.4973 98.0181 81.922 96.351 83.8188C96.2259 83.9501 96.1562 84.1241 96.1562 84.3049C96.1562 84.4858 96.2259 84.6598 96.351 84.791C96.4814 84.9176 96.6564 84.9885 96.8386 84.9885C97.0208 84.9885 97.1957 84.9176 97.3262 84.791Z" fill="black" fill-opacity="0.1"/>
<path d="M118.349 26.9937C118.559 26.3937 119.503 26.3134 120.03 26.3117C120.603 26.3148 121.166 26.4614 121.667 26.738C122.786 27.3396 123.665 28.3348 124.507 29.2644C125.318 30.1595 126.154 31.1366 126.603 32.2695C127.074 33.4499 126.85 34.4581 125.874 35.2861C125.197 35.8599 126.178 36.8255 126.85 36.2566C127.828 35.4271 128.372 34.2745 128.205 32.9876C128.041 31.7694 127.393 30.6694 126.659 29.7087C125.898 28.7113 125.06 27.7761 124.15 26.9117C123.245 26.0543 122.173 25.2559 120.916 25.028C119.473 24.7657 117.562 25.0805 117.02 26.6314C116.728 27.4675 118.059 27.8266 118.349 26.997V26.9937Z" fill="black"/>
<path d="M123.324 26.7921C127.102 24.446 131.945 24.005 136.009 25.9051C139.719 27.6298 142.213 30.8235 143.389 34.6811C144.498 38.3158 144.736 42.1816 146.282 45.6851C147.847 49.2378 150.837 51.3298 153.719 53.7529C155.19 54.989 156.61 56.3432 157.497 58.0712C158.675 60.3664 158.661 63.1338 157.612 65.47C157.253 66.2701 158.436 66.9685 158.801 66.1619C160.651 62.0469 159.64 57.6974 156.566 54.5037C153.856 51.6871 150.141 49.8264 148.155 46.3557C146.051 42.6735 145.932 38.2945 144.717 34.3122C143.493 30.3054 140.952 26.8822 137.167 24.9428C132.581 22.5918 126.99 22.8918 122.626 25.5986C121.875 26.0658 122.565 27.2528 123.321 26.7839L123.324 26.7921Z" fill="black"/>
<path d="M127.785 32.6629C129.788 31.7874 131.904 33.7515 132.398 35.5729C133.151 38.3272 131.892 41.1602 131.278 43.8128C130.741 46.1359 130.578 48.6098 131.795 50.7559C132.857 52.6314 134.661 53.9266 136.347 55.2086C138.435 56.7973 141.142 59.1253 140.537 62.0632C140.361 62.9255 141.69 63.2928 141.867 62.4271C142.4 59.8319 140.99 57.5088 139.168 55.7677C137.299 53.9741 134.819 52.7593 133.32 50.5936C129.726 45.4014 136.309 39.1945 133.156 33.8433C131.927 31.7596 129.419 30.4595 127.087 31.4776C126.276 31.8317 126.978 33.0154 127.784 32.6629H127.785Z" fill="black"/>
<path d="M127.393 30.848C129.711 30.0283 132.759 30.1234 134.712 31.7793C136.36 33.1679 137.155 35.3319 137.286 37.4288C137.34 38.3059 138.719 38.3125 138.663 37.4288C138.509 34.9467 137.564 32.3236 135.574 30.7071C133.241 28.8217 129.798 28.5348 127.026 29.5168C126.202 29.8103 126.553 31.1366 127.393 30.8399V30.848Z" fill="black"/>
<path d="M30.0355 93.4587L27.0967 91.6028C26.6107 91.2979 25.876 91.811 26.0836 92.3783C26.2175 92.74 26.418 93.0736 26.675 93.362C26.9138 93.6374 27.2285 93.8735 27.3965 94.1997C27.7556 94.8932 26.8331 94.7227 26.4081 94.6457C24.5373 94.2778 22.687 93.8132 20.8648 93.2538C20.1202 93.0357 19.6441 94.1292 20.3344 94.5079C21.9246 95.3823 23.5049 96.2736 25.0754 97.1819C25.3752 97.3557 25.7706 97.5311 25.9551 97.8377C26.1396 98.1442 25.9337 98.2852 25.6536 98.4098C24.834 98.7489 23.9549 98.9222 23.0673 98.9197C22.1563 98.9361 22.209 100.187 23.0673 100.292C23.7819 100.379 24.4912 100.505 25.1924 100.667C25.5108 100.739 25.8266 100.819 26.1396 100.907C26.319 100.951 26.4956 101.005 26.6684 101.071C26.7013 101.084 26.8661 101.177 26.8661 101.179C26.8232 101.194 26.7969 100.92 26.815 100.931C26.7787 100.908 27.0539 100.905 26.787 100.984C26.6931 101.012 26.5382 101.218 26.4427 101.284C26.1376 101.494 25.7997 101.652 25.4428 101.753C24.5647 101.994 24.9486 103.204 25.8085 103.074C26.39 102.987 27.1445 102.892 27.7013 103.125C28.0472 103.269 28.4557 102.961 28.548 102.646C28.6617 102.251 28.408 101.944 28.067 101.802C27.2861 101.474 26.2549 101.638 25.4428 101.753L25.8085 103.074C26.7606 102.812 28.515 101.936 28.1296 100.685C27.8874 99.8952 26.9171 99.7017 26.2236 99.5115C25.1863 99.2435 24.1317 99.0469 23.0673 98.923V100.295C24.2115 100.294 25.3424 100.051 26.385 99.582C27.3734 99.1132 27.7029 98.0082 27.1033 97.0852C26.5036 96.1621 25.2319 95.6785 24.3127 95.1555C23.2243 94.5336 22.13 93.9216 21.0295 93.3193C20.8538 93.7369 20.6765 94.1549 20.4974 94.5735C21.6654 94.9145 22.835 95.249 24.0178 95.5326C25.0194 95.7752 26.1725 96.1556 27.2153 96.0785C28.1329 96.0113 28.9252 95.3982 28.8626 94.4128C28.809 93.9058 28.595 93.4288 28.2515 93.0505C27.9731 92.7226 27.5546 92.4258 27.4014 92.0061L26.3883 92.7816L29.3387 94.644C30.0915 95.1178 30.7834 93.9309 30.0355 93.4587Z" fill="#FF5F00"/>
</g>
<defs>
<clipPath id="clip0_3711_2698">
<rect width="176" height="175" fill="white" transform="translate(20 23)"/>
</clipPath>
</defs>
</svg>
